# https://github.com/mikedh/trimesh
v 2.40509997 4.57000002 0.60000000 0.92156863 0.92156863 0.94117647
v 2.40509997 7.43000002 0.60000000 0.92156863 0.92156863 0.94117647
v 0.39509997 7.43000002 0.60000000 0.92156863 0.92156863 0.94117647
v 0.39509997 4.57000002 0.60000000 0.92156863 0.92156863 0.94117647
v 2.40509997 4.57000002 1.15000000 0.92156863 0.92156863 0.94117647
v 2.40509997 7.43000002 1.15000000 0.92156863 0.92156863 0.94117647
v 0.39509997 7.43000002 1.15000000 0.92156863 0.92156863 0.94117647
v 0.39509997 4.57000002 1.15000000 0.92156863 0.92156863 0.94117647
v 4.88255876 -3.81530916 0.60000000 0.92156863 0.92156863 0.94117647
v 4.88255876 -1.80530916 0.60000000 0.92156863 0.92156863 0.94117647
v 2.02255876 -1.80530916 0.60000000 0.92156863 0.92156863 0.94117647
v 2.02255876 -3.81530916 0.60000000 0.92156863 0.92156863 0.94117647
v 4.88255876 -3.81530916 1.15000000 0.92156863 0.92156863 0.94117647
v 4.88255876 -1.80530916 1.15000000 0.92156863 0.92156863 0.94117647
v 2.02255876 -1.80530916 1.15000000 0.92156863 0.92156863 0.94117647
v 2.02255876 -3.81530916 1.15000000 0.92156863 0.92156863 0.94117647
v 4.89008041 -6.07961282 0.60000000 0.92156863 0.92156863 0.94117647
v 4.89008041 -4.06961282 0.60000000 0.92156863 0.92156863 0.94117647
v 2.03008041 -4.06961282 0.60000000 0.92156863 0.92156863 0.94117647
v 2.03008041 -6.07961282 0.60000000 0.92156863 0.92156863 0.94117647
v 4.89008041 -6.07961282 1.15000000 0.92156863 0.92156863 0.94117647
v 4.89008041 -4.06961282 1.15000000 0.92156863 0.92156863 0.94117647
v 2.03008041 -4.06961282 1.15000000 0.92156863 0.92156863 0.94117647
v 2.03008041 -6.07961282 1.15000000 0.92156863 0.92156863 0.94117647
f 2 1 4
f 3 2 4
f 8 5 6
f 8 6 7
f 6 5 2
f 2 5 1
f 7 6 3
f 3 6 2
f 5 8 1
f 1 8 4
f 8 7 4
f 4 7 3
f 10 9 12
f 11 10 12
f 16 13 14
f 16 14 15
f 14 13 10
f 10 13 9
f 15 14 11
f 11 14 10
f 13 16 9
f 9 16 12
f 16 15 12
f 12 15 11
f 18 17 20
f 19 18 20
f 24 21 22
f 24 22 23
f 22 21 18
f 18 21 17
f 23 22 19
f 19 22 18
f 21 24 17
f 17 24 20
f 24 23 20
f 20 23 19

