# https://github.com/mikedh/trimesh
v -2.77500000 -7.49999998 0.60000000 0.92549020 0.90196078 0.85490196
v -2.77500000 -7.79999998 0.60000000 0.92549020 0.90196078 0.85490196
v -3.37500000 -7.79999998 0.60000000 0.92549020 0.90196078 0.85490196
v -3.37500000 -7.49999998 0.60000000 0.92549020 0.90196078 0.85490196
v -2.77500000 -7.49999998 3.35000000 0.92549020 0.90196078 0.85490196
v -2.77500000 -7.79999998 3.35000000 0.92549020 0.90196078 0.85490196
v -3.37500000 -7.79999998 3.35000000 0.92549020 0.90196078 0.85490196
v -3.37500000 -7.49999998 3.35000000 0.92549020 0.90196078 0.85490196
v -3.37500000 -5.04999998 0.60000000 0.92549020 0.90196078 0.85490196
v -3.07500000 -5.04999998 0.60000000 0.92549020 0.90196078 0.85490196
v -3.07500000 -5.64999998 0.60000000 0.92549020 0.90196078 0.85490196
v -3.37500000 -5.64999998 0.60000000 0.92549020 0.90196078 0.85490196
v -3.37500000 -5.04999998 3.35000000 0.92549020 0.90196078 0.85490196
v -3.07500000 -5.04999998 3.35000000 0.92549020 0.90196078 0.85490196
v -3.07500000 -5.64999998 3.35000000 0.92549020 0.90196078 0.85490196
v -3.37500000 -5.64999998 3.35000000 0.92549020 0.90196078 0.85490196
v -5.47500000 -4.69999998 0.60000000 0.92549020 0.90196078 0.85490196
v -5.17500000 -4.69999998 0.60000000 0.92549020 0.90196078 0.85490196
v -5.17500000 -5.29999998 0.60000000 0.92549020 0.90196078 0.85490196
v -5.47500000 -5.29999998 0.60000000 0.92549020 0.90196078 0.85490196
v -5.47500000 -4.69999998 3.35000000 0.92549020 0.90196078 0.85490196
v -5.17500000 -4.69999998 3.35000000 0.92549020 0.90196078 0.85490196
v -5.17500000 -5.29999998 3.35000000 0.92549020 0.90196078 0.85490196
v -5.47500000 -5.29999998 3.35000000 0.92549020 0.90196078 0.85490196
v -5.47500000 -2.09999998 0.60000000 0.92549020 0.90196078 0.85490196
v -5.17500000 -2.09999998 0.60000000 0.92549020 0.90196078 0.85490196
v -5.17500000 -2.69999998 0.60000000 0.92549020 0.90196078 0.85490196
v -5.47500000 -2.69999998 0.60000000 0.92549020 0.90196078 0.85490196
v -5.47500000 -2.09999998 3.35000000 0.92549020 0.90196078 0.85490196
v -5.17500000 -2.09999998 3.35000000 0.92549020 0.90196078 0.85490196
v -5.17500000 -2.69999998 3.35000000 0.92549020 0.90196078 0.85490196
v -5.47500000 -2.69999998 3.35000000 0.92549020 0.90196078 0.85490196
v 0.02500000 -2.09999998 0.60000000 0.92549020 0.90196078 0.85490196
v 0.32500000 -2.09999998 0.60000000 0.92549020 0.90196078 0.85490196
v 0.32500000 -2.69999998 0.60000000 0.92549020 0.90196078 0.85490196
v 0.02500000 -2.69999998 0.60000000 0.92549020 0.90196078 0.85490196
v 0.02500000 -2.09999998 3.35000000 0.92549020 0.90196078 0.85490196
v 0.32500000 -2.09999998 3.35000000 0.92549020 0.90196078 0.85490196
v 0.32500000 -2.69999998 3.35000000 0.92549020 0.90196078 0.85490196
v 0.02500000 -2.69999998 3.35000000 0.92549020 0.90196078 0.85490196
v -5.47500000 5.05000002 0.60000000 0.92549020 0.90196078 0.85490196
v -5.17500000 5.05000002 0.60000000 0.92549020 0.90196078 0.85490196
v -5.17500000 4.45000002 0.60000000 0.92549020 0.90196078 0.85490196
v -5.47500000 4.45000002 0.60000000 0.92549020 0.90196078 0.85490196
v -5.47500000 5.05000002 3.35000000 0.92549020 0.90196078 0.85490196
v -5.17500000 5.05000002 3.35000000 0.92549020 0.90196078 0.85490196
v -5.17500000 4.45000002 3.35000000 0.92549020 0.90196078 0.85490196
v -5.47500000 4.45000002 3.35000000 0.92549020 0.90196078 0.85490196
v 0.32500000 5.10000002 0.60000000 0.92549020 0.90196078 0.85490196
v 0.32500000 4.80000002 0.60000000 0.92549020 0.90196078 0.85490196
v -0.27500000 4.80000002 0.60000000 0.92549020 0.90196078 0.85490196
v -0.27500000 5.10000002 0.60000000 0.92549020 0.90196078 0.85490196
v 0.32500000 5.10000002 3.35000000 0.92549020 0.90196078 0.85490196
v 0.32500000 4.80000002 3.35000000 0.92549020 0.90196078 0.85490196
v -0.27500000 4.80000002 3.35000000 0.92549020 0.90196078 0.85490196
v -0.27500000 5.10000002 3.35000000 0.92549020 0.90196078 0.85490196
v -5.47500000 7.80000002 0.60000000 0.92549020 0.90196078 0.85490196
v -4.87500000 7.80000002 0.60000000 0.92549020 0.90196078 0.85490196
v -4.87500000 7.50000002 0.60000000 0.92549020 0.90196078 0.85490196
v -5.47500000 7.50000002 0.60000000 0.92549020 0.90196078 0.85490196
v -5.47500000 7.80000002 3.35000000 0.92549020 0.90196078 0.85490196
v -4.87500000 7.80000002 3.35000000 0.92549020 0.90196078 0.85490196
v -4.87500000 7.50000002 3.35000000 0.92549020 0.90196078 0.85490196
v -5.47500000 7.50000002 3.35000000 0.92549020 0.90196078 0.85490196
v 0.92500000 -7.49999998 0.60000000 0.92549020 0.90196078 0.85490196
v 0.92500000 -7.79999998 0.60000000 0.92549020 0.90196078 0.85490196
v 0.32500000 -7.79999998 0.60000000 0.92549020 0.90196078 0.85490196
v 0.32500000 -7.49999998 0.60000000 0.92549020 0.90196078 0.85490196
v 0.92500000 -7.49999998 3.35000000 0.92549020 0.90196078 0.85490196
v 0.92500000 -7.79999998 3.35000000 0.92549020 0.90196078 0.85490196
v 0.32500000 -7.79999998 3.35000000 0.92549020 0.90196078 0.85490196
v 0.32500000 -7.49999998 3.35000000 0.92549020 0.90196078 0.85490196
v 5.17500000 -7.19999998 0.60000000 0.92549020 0.90196078 0.85490196
v 5.47500000 -7.19999998 0.60000000 0.92549020 0.90196078 0.85490196
v 5.47500000 -7.79999998 0.60000000 0.92549020 0.90196078 0.85490196
v 5.17500000 -7.79999998 0.60000000 0.92549020 0.90196078 0.85490196
v 5.17500000 -7.19999998 3.35000000 0.92549020 0.90196078 0.85490196
v 5.47500000 -7.19999998 3.35000000 0.92549020 0.90196078 0.85490196
v 5.47500000 -7.79999998 3.35000000 0.92549020 0.90196078 0.85490196
v 5.17500000 -7.79999998 3.35000000 0.92549020 0.90196078 0.85490196
v 5.17500000 -3.89999998 0.60000000 0.92549020 0.90196078 0.85490196
v 5.47500000 -3.89999998 0.60000000 0.92549020 0.90196078 0.85490196
v 5.47500000 -4.49999998 0.60000000 0.92549020 0.90196078 0.85490196
v 5.17500000 -4.49999998 0.60000000 0.92549020 0.90196078 0.85490196
v 5.17500000 -3.89999998 3.35000000 0.92549020 0.90196078 0.85490196
v 5.47500000 -3.89999998 3.35000000 0.92549020 0.90196078 0.85490196
v 5.47500000 -4.49999998 3.35000000 0.92549020 0.90196078 0.85490196
v 5.17500000 -4.49999998 3.35000000 0.92549020 0.90196078 0.85490196
v 0.27500000 -3.89999998 0.60000000 0.92549020 0.90196078 0.85490196
v 0.57500000 -3.89999998 0.60000000 0.92549020 0.90196078 0.85490196
v 0.57500000 -4.49999998 0.60000000 0.92549020 0.90196078 0.85490196
v 0.27500000 -4.49999998 0.60000000 0.92549020 0.90196078 0.85490196
v 0.27500000 -3.89999998 3.35000000 0.92549020 0.90196078 0.85490196
v 0.57500000 -3.89999998 3.35000000 0.92549020 0.90196078 0.85490196
v 0.57500000 -4.49999998 3.35000000 0.92549020 0.90196078 0.85490196
v 0.27500000 -4.49999998 3.35000000 0.92549020 0.90196078 0.85490196
v 1.52500000 2.60000002 0.60000000 0.92549020 0.90196078 0.85490196
v 1.82500000 2.60000002 0.60000000 0.92549020 0.90196078 0.85490196
v 1.82500000 2.00000002 0.60000000 0.92549020 0.90196078 0.85490196
v 1.52500000 2.00000002 0.60000000 0.92549020 0.90196078 0.85490196
v 1.52500000 2.60000002 3.35000000 0.92549020 0.90196078 0.85490196
v 1.82500000 2.60000002 3.35000000 0.92549020 0.90196078 0.85490196
v 1.82500000 2.00000002 3.35000000 0.92549020 0.90196078 0.85490196
v 1.52500000 2.00000002 3.35000000 0.92549020 0.90196078 0.85490196
v 5.17500000 2.60000002 0.60000000 0.92549020 0.90196078 0.85490196
v 5.47500000 2.60000002 0.60000000 0.92549020 0.90196078 0.85490196
v 5.47500000 2.00000002 0.60000000 0.92549020 0.90196078 0.85490196
v 5.17500000 2.00000002 0.60000000 0.92549020 0.90196078 0.85490196
v 5.17500000 2.60000002 3.35000000 0.92549020 0.90196078 0.85490196
v 5.47500000 2.60000002 3.35000000 0.92549020 0.90196078 0.85490196
v 5.47500000 2.00000002 3.35000000 0.92549020 0.90196078 0.85490196
v 5.17500000 2.00000002 3.35000000 0.92549020 0.90196078 0.85490196
v 0.67500000 7.80000002 0.60000000 0.92549020 0.90196078 0.85490196
v 0.67500000 7.50000002 0.60000000 0.92549020 0.90196078 0.85490196
v 0.07500000 7.50000002 0.60000000 0.92549020 0.90196078 0.85490196
v 0.07500000 7.80000002 0.60000000 0.92549020 0.90196078 0.85490196
v 0.67500000 7.80000002 3.35000000 0.92549020 0.90196078 0.85490196
v 0.67500000 7.50000002 3.35000000 0.92549020 0.90196078 0.85490196
v 0.07500000 7.50000002 3.35000000 0.92549020 0.90196078 0.85490196
v 0.07500000 7.80000002 3.35000000 0.92549020 0.90196078 0.85490196
v 5.47500000 7.80000002 0.60000000 0.92549020 0.90196078 0.85490196
v 5.47500000 7.50000002 0.60000000 0.92549020 0.90196078 0.85490196
v 4.87500000 7.50000002 0.60000000 0.92549020 0.90196078 0.85490196
v 4.87500000 7.80000002 0.60000000 0.92549020 0.90196078 0.85490196
v 5.47500000 7.80000002 3.35000000 0.92549020 0.90196078 0.85490196
v 5.47500000 7.50000002 3.35000000 0.92549020 0.90196078 0.85490196
v 4.87500000 7.50000002 3.35000000 0.92549020 0.90196078 0.85490196
v 4.87500000 7.80000002 3.35000000 0.92549020 0.90196078 0.85490196
f 3 4 1
f 2 3 1
f 5 8 7
f 5 7 6
f 5 6 1
f 1 6 2
f 6 7 2
f 2 7 3
f 8 5 4
f 4 5 1
f 7 8 3
f 3 8 4
f 11 12 9
f 10 11 9
f 13 16 15
f 13 15 14
f 13 14 9
f 9 14 10
f 14 15 10
f 10 15 11
f 16 13 12
f 12 13 9
f 15 16 11
f 11 16 12
f 19 20 17
f 18 19 17
f 21 24 23
f 21 23 22
f 21 22 17
f 17 22 18
f 22 23 18
f 18 23 19
f 24 21 20
f 20 21 17
f 23 24 19
f 19 24 20
f 27 28 25
f 26 27 25
f 29 32 31
f 29 31 30
f 29 30 25
f 25 30 26
f 30 31 26
f 26 31 27
f 32 29 28
f 28 29 25
f 31 32 27
f 27 32 28
f 35 36 33
f 34 35 33
f 37 40 39
f 37 39 38
f 37 38 33
f 33 38 34
f 38 39 34
f 34 39 35
f 40 37 36
f 36 37 33
f 39 40 35
f 35 40 36
f 43 44 41
f 42 43 41
f 45 48 47
f 45 47 46
f 45 46 41
f 41 46 42
f 46 47 42
f 42 47 43
f 48 45 44
f 44 45 41
f 47 48 43
f 43 48 44
f 51 52 49
f 50 51 49
f 53 56 55
f 53 55 54
f 53 54 49
f 49 54 50
f 54 55 50
f 50 55 51
f 56 53 52
f 52 53 49
f 55 56 51
f 51 56 52
f 59 60 57
f 58 59 57
f 61 64 63
f 61 63 62
f 61 62 57
f 57 62 58
f 62 63 58
f 58 63 59
f 64 61 60
f 60 61 57
f 63 64 59
f 59 64 60
f 67 68 65
f 66 67 65
f 69 72 71
f 69 71 70
f 69 70 65
f 65 70 66
f 70 71 66
f 66 71 67
f 72 69 68
f 68 69 65
f 71 72 67
f 67 72 68
f 75 76 73
f 74 75 73
f 77 80 79
f 77 79 78
f 77 78 73
f 73 78 74
f 78 79 74
f 74 79 75
f 80 77 76
f 76 77 73
f 79 80 75
f 75 80 76
f 83 84 81
f 82 83 81
f 85 88 87
f 85 87 86
f 85 86 81
f 81 86 82
f 86 87 82
f 82 87 83
f 88 85 84
f 84 85 81
f 87 88 83
f 83 88 84
f 91 92 89
f 90 91 89
f 93 96 95
f 93 95 94
f 93 94 89
f 89 94 90
f 94 95 90
f 90 95 91
f 96 93 92
f 92 93 89
f 95 96 91
f 91 96 92
f 99 100 97
f 98 99 97
f 101 104 103
f 101 103 102
f 101 102 97
f 97 102 98
f 102 103 98
f 98 103 99
f 104 101 100
f 100 101 97
f 103 104 99
f 99 104 100
f 107 108 105
f 106 107 105
f 109 112 111
f 109 111 110
f 109 110 105
f 105 110 106
f 110 111 106
f 106 111 107
f 112 109 108
f 108 109 105
f 111 112 107
f 107 112 108
f 115 116 113
f 114 115 113
f 117 120 119
f 117 119 118
f 117 118 113
f 113 118 114
f 118 119 114
f 114 119 115
f 120 117 116
f 116 117 113
f 119 120 115
f 115 120 116
f 123 124 121
f 122 123 121
f 125 128 127
f 125 127 126
f 125 126 121
f 121 126 122
f 126 127 122
f 122 127 123
f 128 125 124
f 124 125 121
f 127 128 123
f 123 128 124

