# https://github.com/mikedh/trimesh
v -3.44358616 -2.57999998 0.60000000 0.35294118 0.35294118 0.37254902
v -3.44358616 -1.97999998 0.60000000 0.35294118 0.35294118 0.37254902
v -4.00358616 -1.97999998 0.60000000 0.35294118 0.35294118 0.37254902
v -4.00358616 -2.57999998 0.60000000 0.35294118 0.35294118 0.37254902
v -3.44358616 -2.57999998 1.52000000 0.35294118 0.35294118 0.37254902
v -3.44358616 -1.97999998 1.52000000 0.35294118 0.35294118 0.37254902
v -4.00358616 -1.97999998 1.52000000 0.35294118 0.35294118 0.37254902
v -4.00358616 -2.57999998 1.52000000 0.35294118 0.35294118 0.37254902
v -4.62836990 -2.45062962 0.60000000 0.35294118 0.35294118 0.37254902
v -4.62836990 0.76937038 0.60000000 0.35294118 0.35294118 0.37254902
v -5.22836990 0.76937038 0.60000000 0.35294118 0.35294118 0.37254902
v -5.22836990 -2.45062962 0.60000000 0.35294118 0.35294118 0.37254902
v -4.62836990 -2.45062962 1.52000000 0.35294118 0.35294118 0.37254902
v -4.62836990 0.76937038 1.52000000 0.35294118 0.35294118 0.37254902
v -5.22836990 0.76937038 1.52000000 0.35294118 0.35294118 0.37254902
v -5.22836990 -2.45062962 1.52000000 0.35294118 0.35294118 0.37254902
v -4.02836990 -2.45062962 0.60000000 0.35294118 0.35294118 0.37254902
v -4.02836990 -1.85062962 0.60000000 0.35294118 0.35294118 0.37254902
v -4.62836990 -1.85062962 0.60000000 0.35294118 0.35294118 0.37254902
v -4.62836990 -2.45062962 0.60000000 0.35294118 0.35294118 0.37254902
v -4.02836990 -2.45062962 1.52000000 0.35294118 0.35294118 0.37254902
v -4.02836990 -1.85062962 1.52000000 0.35294118 0.35294118 0.37254902
v -4.62836990 -1.85062962 1.52000000 0.35294118 0.35294118 0.37254902
v -4.62836990 -2.45062962 1.52000000 0.35294118 0.35294118 0.37254902
f 2 1 4
f 3 2 4
f 8 5 6
f 8 6 7
f 6 5 2
f 2 5 1
f 7 6 3
f 3 6 2
f 5 8 1
f 1 8 4
f 8 7 4
f 4 7 3
f 10 9 12
f 11 10 12
f 16 13 14
f 16 14 15
f 14 13 10
f 10 13 9
f 15 14 11
f 11 14 10
f 13 16 9
f 9 16 12
f 16 15 12
f 12 15 11
f 18 17 20
f 19 18 20
f 24 21 22
f 24 22 23
f 22 21 18
f 18 21 17
f 23 22 19
f 19 22 18
f 21 24 17
f 17 24 20
f 24 23 20
f 20 23 19

