# https://github.com/mikedh/trimesh
v -4.48500000 -5.25999998 0.60000000 0.47058824 0.31372549 0.19607843
v -4.48500000 -5.08999998 0.60000000 0.47058824 0.31372549 0.19607843
v -3.56500000 -5.08999998 0.60000000 0.47058824 0.31372549 0.19607843
v -3.56500000 -5.25999998 0.60000000 0.47058824 0.31372549 0.19607843
v -4.48500000 -5.25999998 2.70000000 0.47058824 0.31372549 0.19607843
v -4.48500000 -5.08999998 2.70000000 0.47058824 0.31372549 0.19607843
v -3.56500000 -5.08999998 2.70000000 0.47058824 0.31372549 0.19607843
v -3.56500000 -5.25999998 2.70000000 0.47058824 0.31372549 0.19607843
f 3 4 1
f 2 3 1
f 5 8 7
f 5 7 6
f 5 6 1
f 1 6 2
f 6 7 2
f 2 7 3
f 8 5 4
f 4 5 1
f 7 8 3
f 3 8 4

