# https://github.com/mikedh/trimesh
v -6.37500000 8.70000002 3.28000000 0.43137255 0.27450980 0.17647059
v 6.37500000 8.70000002 3.28000000 0.43137255 0.27450980 0.17647059
v 6.37500000 -8.70000002 3.28000000 0.43137255 0.27450980 0.17647059
v -6.37500000 -8.70000002 3.28000000 0.43137255 0.27450980 0.17647059
v -6.34500000 8.67000002 3.28000000 0.43137255 0.27450980 0.17647059
v -6.34500000 -8.67000002 3.28000000 0.43137255 0.27450980 0.17647059
v 6.34500000 -8.67000002 3.28000000 0.43137255 0.27450980 0.17647059
v 6.34500000 8.67000002 3.28000000 0.43137255 0.27450980 0.17647059
v -6.37500000 8.70000002 3.48000000 0.43137255 0.27450980 0.17647059
v 6.37500000 8.70000002 3.48000000 0.43137255 0.27450980 0.17647059
v 6.37500000 -8.70000002 3.48000000 0.43137255 0.27450980 0.17647059
v -6.37500000 -8.70000002 3.48000000 0.43137255 0.27450980 0.17647059
v -6.34500000 8.67000002 3.48000000 0.43137255 0.27450980 0.17647059
v -6.34500000 -8.67000002 3.48000000 0.43137255 0.27450980 0.17647059
v 6.34500000 -8.67000002 3.48000000 0.43137255 0.27450980 0.17647059
v 6.34500000 8.67000002 3.48000000 0.43137255 0.27450980 0.17647059
f 5 6 4
f 4 6 7
f 3 4 7
f 2 3 7
f 5 4 1
f 8 5 1
f 2 7 8
f 1 2 8
f 12 14 13
f 15 14 12
f 15 12 11
f 15 11 10
f 9 12 13
f 9 13 16
f 16 15 10
f 16 10 9
f 9 10 1
f 1 10 2
f 10 11 2
f 2 11 3
f 12 9 4
f 4 9 1
f 11 12 3
f 3 12 4
f 13 14 5
f 5 14 6
f 14 15 6
f 6 15 7
f 16 13 8
f 8 13 5
f 15 16 7
f 7 16 8

