# https://github.com/mikedh/trimesh
v -3.37836990 -7.80000002 0.58000000 0.76862745 0.62745098 0.46274510
v -3.37836990 -6.75062962 0.58000000 0.76862745 0.62745098 0.46274510
v -5.47500000 -6.75062962 0.58000000 0.76862745 0.62745098 0.46274510
v -5.47500000 5.04937038 0.58000000 0.76862745 0.62745098 0.46274510
v 0.10163010 5.04937038 0.58000000 0.76862745 0.62745098 0.46274510
v 0.10163010 7.80000002 0.58000000 0.76862745 0.62745098 0.46274510
v 5.47500000 7.80000002 0.58000000 0.76862745 0.62745098 0.46274510
v 5.47500000 -7.80000002 0.58000000 0.76862745 0.62745098 0.46274510
v -3.37836990 -7.80000002 0.60000000 0.76862745 0.62745098 0.46274510
v -3.37836990 -6.75062962 0.60000000 0.76862745 0.62745098 0.46274510
v -5.47500000 -6.75062962 0.60000000 0.76862745 0.62745098 0.46274510
v -5.47500000 5.04937038 0.60000000 0.76862745 0.62745098 0.46274510
v 0.10163010 5.04937038 0.60000000 0.76862745 0.62745098 0.46274510
v 0.10163010 7.80000002 0.60000000 0.76862745 0.62745098 0.46274510
v 5.47500000 7.80000002 0.60000000 0.76862745 0.62745098 0.46274510
v 5.47500000 -7.80000002 0.60000000 0.76862745 0.62745098 0.46274510
f 7 8 1
f 5 6 7
f 3 4 5
f 2 3 5
f 1 2 5
f 7 1 5
f 9 16 15
f 15 14 13
f 13 12 11
f 13 11 10
f 13 10 9
f 13 9 15
f 9 10 1
f 1 10 2
f 10 11 2
f 2 11 3
f 11 12 3
f 3 12 4
f 12 13 4
f 4 13 5
f 13 14 5
f 5 14 6
f 14 15 6
f 6 15 7
f 16 9 8
f 8 9 1
f 15 16 7
f 7 16 8

