# https://github.com/mikedh/trimesh
v -4.50000000 4.96500002 0.60000000 0.27450980 0.27450980 0.28235294
v -4.45000000 4.96500002 0.60000000 0.27450980 0.27450980 0.28235294
v -4.45000000 4.88500002 0.60000000 0.27450980 0.27450980 0.28235294
v -4.50000000 4.88500002 0.60000000 0.27450980 0.27450980 0.28235294
v -4.50000000 4.96500002 2.80000000 0.27450980 0.27450980 0.28235294
v -4.45000000 4.96500002 2.80000000 0.27450980 0.27450980 0.28235294
v -4.45000000 4.88500002 2.80000000 0.27450980 0.27450980 0.28235294
v -4.50000000 4.88500002 2.80000000 0.27450980 0.27450980 0.28235294
v -2.47500000 4.96500002 0.60000000 0.27450980 0.27450980 0.28235294
v -2.47500000 4.88500002 0.60000000 0.27450980 0.27450980 0.28235294
v -2.52500000 4.88500002 0.60000000 0.27450980 0.27450980 0.28235294
v -2.52500000 4.96500002 0.60000000 0.27450980 0.27450980 0.28235294
v -2.47500000 4.96500002 2.80000000 0.27450980 0.27450980 0.28235294
v -2.47500000 4.88500002 2.80000000 0.27450980 0.27450980 0.28235294
v -2.52500000 4.88500002 2.80000000 0.27450980 0.27450980 0.28235294
v -2.52500000 4.96500002 2.80000000 0.27450980 0.27450980 0.28235294
v -0.50000000 4.96500002 0.60000000 0.27450980 0.27450980 0.28235294
v -0.50000000 4.88500002 0.60000000 0.27450980 0.27450980 0.28235294
v -0.55000000 4.88500002 0.60000000 0.27450980 0.27450980 0.28235294
v -0.55000000 4.96500002 0.60000000 0.27450980 0.27450980 0.28235294
v -0.50000000 4.96500002 2.80000000 0.27450980 0.27450980 0.28235294
v -0.50000000 4.88500002 2.80000000 0.27450980 0.27450980 0.28235294
v -0.55000000 4.88500002 2.80000000 0.27450980 0.27450980 0.28235294
v -0.55000000 4.96500002 2.80000000 0.27450980 0.27450980 0.28235294
v -0.50000000 4.88500002 0.60000000 0.27450980 0.27450980 0.28235294
v -0.50000000 4.96500002 0.60000000 0.27450980 0.27450980 0.28235294
v -4.50000000 4.96500002 0.60000000 0.27450980 0.27450980 0.28235294
v -4.50000000 4.88500002 0.60000000 0.27450980 0.27450980 0.28235294
v -0.50000000 4.88500002 0.65000000 0.27450980 0.27450980 0.28235294
v -0.50000000 4.96500002 0.65000000 0.27450980 0.27450980 0.28235294
v -4.50000000 4.96500002 0.65000000 0.27450980 0.27450980 0.28235294
v -4.50000000 4.88500002 0.65000000 0.27450980 0.27450980 0.28235294
v -0.50000000 4.88500002 2.75000000 0.27450980 0.27450980 0.28235294
v -0.50000000 4.96500002 2.75000000 0.27450980 0.27450980 0.28235294
v -4.50000000 4.96500002 2.75000000 0.27450980 0.27450980 0.28235294
v -4.50000000 4.88500002 2.75000000 0.27450980 0.27450980 0.28235294
v -0.50000000 4.88500002 2.80000000 0.27450980 0.27450980 0.28235294
v -0.50000000 4.96500002 2.80000000 0.27450980 0.27450980 0.28235294
v -4.50000000 4.96500002 2.80000000 0.27450980 0.27450980 0.28235294
v -4.50000000 4.88500002 2.80000000 0.27450980 0.27450980 0.28235294
v 1.52500000 7.71500002 0.60000000 0.27450980 0.27450980 0.28235294
v 1.57500000 7.71500002 0.60000000 0.27450980 0.27450980 0.28235294
v 1.57500000 7.63500002 0.60000000 0.27450980 0.27450980 0.28235294
v 1.52500000 7.63500002 0.60000000 0.27450980 0.27450980 0.28235294
v 1.52500000 7.71500002 2.80000000 0.27450980 0.27450980 0.28235294
v 1.57500000 7.71500002 2.80000000 0.27450980 0.27450980 0.28235294
v 1.57500000 7.63500002 2.80000000 0.27450980 0.27450980 0.28235294
v 1.52500000 7.63500002 2.80000000 0.27450980 0.27450980 0.28235294
v 2.80000000 7.71500002 0.60000000 0.27450980 0.27450980 0.28235294
v 2.80000000 7.63500002 0.60000000 0.27450980 0.27450980 0.28235294
v 2.75000000 7.63500002 0.60000000 0.27450980 0.27450980 0.28235294
v 2.75000000 7.71500002 0.60000000 0.27450980 0.27450980 0.28235294
v 2.80000000 7.71500002 2.80000000 0.27450980 0.27450980 0.28235294
v 2.80000000 7.63500002 2.80000000 0.27450980 0.27450980 0.28235294
v 2.75000000 7.63500002 2.80000000 0.27450980 0.27450980 0.28235294
v 2.75000000 7.71500002 2.80000000 0.27450980 0.27450980 0.28235294
v 4.02500000 7.71500002 0.60000000 0.27450980 0.27450980 0.28235294
v 4.02500000 7.63500002 0.60000000 0.27450980 0.27450980 0.28235294
v 3.97500000 7.63500002 0.60000000 0.27450980 0.27450980 0.28235294
v 3.97500000 7.71500002 0.60000000 0.27450980 0.27450980 0.28235294
v 4.02500000 7.71500002 2.80000000 0.27450980 0.27450980 0.28235294
v 4.02500000 7.63500002 2.80000000 0.27450980 0.27450980 0.28235294
v 3.97500000 7.63500002 2.80000000 0.27450980 0.27450980 0.28235294
v 3.97500000 7.71500002 2.80000000 0.27450980 0.27450980 0.28235294
v 4.02500000 7.63500002 0.60000000 0.27450980 0.27450980 0.28235294
v 4.02500000 7.71500002 0.60000000 0.27450980 0.27450980 0.28235294
v 1.52500000 7.71500002 0.60000000 0.27450980 0.27450980 0.28235294
v 1.52500000 7.63500002 0.60000000 0.27450980 0.27450980 0.28235294
v 4.02500000 7.63500002 0.65000000 0.27450980 0.27450980 0.28235294
v 4.02500000 7.71500002 0.65000000 0.27450980 0.27450980 0.28235294
v 1.52500000 7.71500002 0.65000000 0.27450980 0.27450980 0.28235294
v 1.52500000 7.63500002 0.65000000 0.27450980 0.27450980 0.28235294
v 4.02500000 7.63500002 2.75000000 0.27450980 0.27450980 0.28235294
v 4.02500000 7.71500002 2.75000000 0.27450980 0.27450980 0.28235294
v 1.52500000 7.71500002 2.75000000 0.27450980 0.27450980 0.28235294
v 1.52500000 7.63500002 2.75000000 0.27450980 0.27450980 0.28235294
v 4.02500000 7.63500002 2.80000000 0.27450980 0.27450980 0.28235294
v 4.02500000 7.71500002 2.80000000 0.27450980 0.27450980 0.28235294
v 1.52500000 7.71500002 2.80000000 0.27450980 0.27450980 0.28235294
v 1.52500000 7.63500002 2.80000000 0.27450980 0.27450980 0.28235294
v 2.07500000 -7.63499998 1.30000000 0.27450980 0.27450980 0.28235294
v 2.12500000 -7.63499998 1.30000000 0.27450980 0.27450980 0.28235294
v 2.12500000 -7.71499998 1.30000000 0.27450980 0.27450980 0.28235294
v 2.07500000 -7.71499998 1.30000000 0.27450980 0.27450980 0.28235294
v 2.07500000 -7.63499998 2.80000000 0.27450980 0.27450980 0.28235294
v 2.12500000 -7.63499998 2.80000000 0.27450980 0.27450980 0.28235294
v 2.12500000 -7.71499998 2.80000000 0.27450980 0.27450980 0.28235294
v 2.07500000 -7.71499998 2.80000000 0.27450980 0.27450980 0.28235294
v 2.85000000 -7.63499998 1.30000000 0.27450980 0.27450980 0.28235294
v 2.85000000 -7.71499998 1.30000000 0.27450980 0.27450980 0.28235294
v 2.80000000 -7.71499998 1.30000000 0.27450980 0.27450980 0.28235294
v 2.80000000 -7.63499998 1.30000000 0.27450980 0.27450980 0.28235294
v 2.85000000 -7.63499998 2.80000000 0.27450980 0.27450980 0.28235294
v 2.85000000 -7.71499998 2.80000000 0.27450980 0.27450980 0.28235294
v 2.80000000 -7.71499998 2.80000000 0.27450980 0.27450980 0.28235294
v 2.80000000 -7.63499998 2.80000000 0.27450980 0.27450980 0.28235294
v 3.57500000 -7.63499998 1.30000000 0.27450980 0.27450980 0.28235294
v 3.57500000 -7.71499998 1.30000000 0.27450980 0.27450980 0.28235294
v 3.52500000 -7.71499998 1.30000000 0.27450980 0.27450980 0.28235294
v 3.52500000 -7.63499998 1.30000000 0.27450980 0.27450980 0.28235294
v 3.57500000 -7.63499998 2.80000000 0.27450980 0.27450980 0.28235294
v 3.57500000 -7.71499998 2.80000000 0.27450980 0.27450980 0.28235294
v 3.52500000 -7.71499998 2.80000000 0.27450980 0.27450980 0.28235294
v 3.52500000 -7.63499998 2.80000000 0.27450980 0.27450980 0.28235294
v 3.57500000 -7.71499998 1.30000000 0.27450980 0.27450980 0.28235294
v 3.57500000 -7.63499998 1.30000000 0.27450980 0.27450980 0.28235294
v 2.07500000 -7.63499998 1.30000000 0.27450980 0.27450980 0.28235294
v 2.07500000 -7.71499998 1.30000000 0.27450980 0.27450980 0.28235294
v 3.57500000 -7.71499998 1.35000000 0.27450980 0.27450980 0.28235294
v 3.57500000 -7.63499998 1.35000000 0.27450980 0.27450980 0.28235294
v 2.07500000 -7.63499998 1.35000000 0.27450980 0.27450980 0.28235294
v 2.07500000 -7.71499998 1.35000000 0.27450980 0.27450980 0.28235294
v 3.57500000 -7.71499998 2.75000000 0.27450980 0.27450980 0.28235294
v 3.57500000 -7.63499998 2.75000000 0.27450980 0.27450980 0.28235294
v 2.07500000 -7.63499998 2.75000000 0.27450980 0.27450980 0.28235294
v 2.07500000 -7.71499998 2.75000000 0.27450980 0.27450980 0.28235294
v 3.57500000 -7.71499998 2.80000000 0.27450980 0.27450980 0.28235294
v 3.57500000 -7.63499998 2.80000000 0.27450980 0.27450980 0.28235294
v 2.07500000 -7.63499998 2.80000000 0.27450980 0.27450980 0.28235294
v 2.07500000 -7.71499998 2.80000000 0.27450980 0.27450980 0.28235294
v 5.31000000 -2.49999998 1.30000000 0.27450980 0.27450980 0.28235294
v 5.39000000 -2.49999998 1.30000000 0.27450980 0.27450980 0.28235294
v 5.39000000 -2.54999998 1.30000000 0.27450980 0.27450980 0.28235294
v 5.31000000 -2.54999998 1.30000000 0.27450980 0.27450980 0.28235294
v 5.31000000 -2.49999998 2.80000000 0.27450980 0.27450980 0.28235294
v 5.39000000 -2.49999998 2.80000000 0.27450980 0.27450980 0.28235294
v 5.39000000 -2.54999998 2.80000000 0.27450980 0.27450980 0.28235294
v 5.31000000 -2.54999998 2.80000000 0.27450980 0.27450980 0.28235294
v 5.39000000 -1.77499998 1.30000000 0.27450980 0.27450980 0.28235294
v 5.39000000 -1.82499998 1.30000000 0.27450980 0.27450980 0.28235294
v 5.31000000 -1.82499998 1.30000000 0.27450980 0.27450980 0.28235294
v 5.31000000 -1.77499998 1.30000000 0.27450980 0.27450980 0.28235294
v 5.39000000 -1.77499998 2.80000000 0.27450980 0.27450980 0.28235294
v 5.39000000 -1.82499998 2.80000000 0.27450980 0.27450980 0.28235294
v 5.31000000 -1.82499998 2.80000000 0.27450980 0.27450980 0.28235294
v 5.31000000 -1.77499998 2.80000000 0.27450980 0.27450980 0.28235294
v 5.39000000 -1.04999998 1.30000000 0.27450980 0.27450980 0.28235294
v 5.39000000 -1.09999998 1.30000000 0.27450980 0.27450980 0.28235294
v 5.31000000 -1.09999998 1.30000000 0.27450980 0.27450980 0.28235294
v 5.31000000 -1.04999998 1.30000000 0.27450980 0.27450980 0.28235294
v 5.39000000 -1.04999998 2.80000000 0.27450980 0.27450980 0.28235294
v 5.39000000 -1.09999998 2.80000000 0.27450980 0.27450980 0.28235294
v 5.31000000 -1.09999998 2.80000000 0.27450980 0.27450980 0.28235294
v 5.31000000 -1.04999998 2.80000000 0.27450980 0.27450980 0.28235294
v 5.39000000 -2.54999998 1.30000000 0.27450980 0.27450980 0.28235294
v 5.39000000 -1.04999998 1.30000000 0.27450980 0.27450980 0.28235294
v 5.31000000 -1.04999998 1.30000000 0.27450980 0.27450980 0.28235294
v 5.31000000 -2.54999998 1.30000000 0.27450980 0.27450980 0.28235294
v 5.39000000 -2.54999998 1.35000000 0.27450980 0.27450980 0.28235294
v 5.39000000 -1.04999998 1.35000000 0.27450980 0.27450980 0.28235294
v 5.31000000 -1.04999998 1.35000000 0.27450980 0.27450980 0.28235294
v 5.31000000 -2.54999998 1.35000000 0.27450980 0.27450980 0.28235294
v 5.39000000 -2.54999998 2.75000000 0.27450980 0.27450980 0.28235294
v 5.39000000 -1.04999998 2.75000000 0.27450980 0.27450980 0.28235294
v 5.31000000 -1.04999998 2.75000000 0.27450980 0.27450980 0.28235294
v 5.31000000 -2.54999998 2.75000000 0.27450980 0.27450980 0.28235294
v 5.39000000 -2.54999998 2.80000000 0.27450980 0.27450980 0.28235294
v 5.39000000 -1.04999998 2.80000000 0.27450980 0.27450980 0.28235294
v 5.31000000 -1.04999998 2.80000000 0.27450980 0.27450980 0.28235294
v 5.31000000 -2.54999998 2.80000000 0.27450980 0.27450980 0.28235294
v -5.39000000 -1.29999998 1.30000000 0.27450980 0.27450980 0.28235294
v -5.31000000 -1.29999998 1.30000000 0.27450980 0.27450980 0.28235294
v -5.31000000 -1.34999998 1.30000000 0.27450980 0.27450980 0.28235294
v -5.39000000 -1.34999998 1.30000000 0.27450980 0.27450980 0.28235294
v -5.39000000 -1.29999998 2.80000000 0.27450980 0.27450980 0.28235294
v -5.31000000 -1.29999998 2.80000000 0.27450980 0.27450980 0.28235294
v -5.31000000 -1.34999998 2.80000000 0.27450980 0.27450980 0.28235294
v -5.39000000 -1.34999998 2.80000000 0.27450980 0.27450980 0.28235294
v -5.31000000 -0.69999998 1.30000000 0.27450980 0.27450980 0.28235294
v -5.31000000 -0.74999998 1.30000000 0.27450980 0.27450980 0.28235294
v -5.39000000 -0.74999998 1.30000000 0.27450980 0.27450980 0.28235294
v -5.39000000 -0.69999998 1.30000000 0.27450980 0.27450980 0.28235294
v -5.31000000 -0.69999998 2.80000000 0.27450980 0.27450980 0.28235294
v -5.31000000 -0.74999998 2.80000000 0.27450980 0.27450980 0.28235294
v -5.39000000 -0.74999998 2.80000000 0.27450980 0.27450980 0.28235294
v -5.39000000 -0.69999998 2.80000000 0.27450980 0.27450980 0.28235294
v -5.31000000 -0.09999998 1.30000000 0.27450980 0.27450980 0.28235294
v -5.31000000 -0.14999998 1.30000000 0.27450980 0.27450980 0.28235294
v -5.39000000 -0.14999998 1.30000000 0.27450980 0.27450980 0.28235294
v -5.39000000 -0.09999998 1.30000000 0.27450980 0.27450980 0.28235294
v -5.31000000 -0.09999998 2.80000000 0.27450980 0.27450980 0.28235294
v -5.31000000 -0.14999998 2.80000000 0.27450980 0.27450980 0.28235294
v -5.39000000 -0.14999998 2.80000000 0.27450980 0.27450980 0.28235294
v -5.39000000 -0.09999998 2.80000000 0.27450980 0.27450980 0.28235294
v -5.31000000 -1.34999998 1.30000000 0.27450980 0.27450980 0.28235294
v -5.31000000 -0.09999998 1.30000000 0.27450980 0.27450980 0.28235294
v -5.39000000 -0.09999998 1.30000000 0.27450980 0.27450980 0.28235294
v -5.39000000 -1.34999998 1.30000000 0.27450980 0.27450980 0.28235294
v -5.31000000 -1.34999998 1.35000000 0.27450980 0.27450980 0.28235294
v -5.31000000 -0.09999998 1.35000000 0.27450980 0.27450980 0.28235294
v -5.39000000 -0.09999998 1.35000000 0.27450980 0.27450980 0.28235294
v -5.39000000 -1.34999998 1.35000000 0.27450980 0.27450980 0.28235294
v -5.31000000 -1.34999998 2.75000000 0.27450980 0.27450980 0.28235294
v -5.31000000 -0.09999998 2.75000000 0.27450980 0.27450980 0.28235294
v -5.39000000 -0.09999998 2.75000000 0.27450980 0.27450980 0.28235294
v -5.39000000 -1.34999998 2.75000000 0.27450980 0.27450980 0.28235294
v -5.31000000 -1.34999998 2.80000000 0.27450980 0.27450980 0.28235294
v -5.31000000 -0.09999998 2.80000000 0.27450980 0.27450980 0.28235294
v -5.39000000 -0.09999998 2.80000000 0.27450980 0.27450980 0.28235294
v -5.39000000 -1.34999998 2.80000000 0.27450980 0.27450980 0.28235294
v 5.31000000 3.05000002 2.20000000 0.27450980 0.27450980 0.28235294
v 5.39000000 3.05000002 2.20000000 0.27450980 0.27450980 0.28235294
v 5.39000000 3.00000002 2.20000000 0.27450980 0.27450980 0.28235294
v 5.31000000 3.00000002 2.20000000 0.27450980 0.27450980 0.28235294
v 5.31000000 3.05000002 2.80000000 0.27450980 0.27450980 0.28235294
v 5.39000000 3.05000002 2.80000000 0.27450980 0.27450980 0.28235294
v 5.39000000 3.00000002 2.80000000 0.27450980 0.27450980 0.28235294
v 5.31000000 3.00000002 2.80000000 0.27450980 0.27450980 0.28235294
v 5.39000000 3.32500002 2.20000000 0.27450980 0.27450980 0.28235294
v 5.39000000 3.27500002 2.20000000 0.27450980 0.27450980 0.28235294
v 5.31000000 3.27500002 2.20000000 0.27450980 0.27450980 0.28235294
v 5.31000000 3.32500002 2.20000000 0.27450980 0.27450980 0.28235294
v 5.39000000 3.32500002 2.80000000 0.27450980 0.27450980 0.28235294
v 5.39000000 3.27500002 2.80000000 0.27450980 0.27450980 0.28235294
v 5.31000000 3.27500002 2.80000000 0.27450980 0.27450980 0.28235294
v 5.31000000 3.32500002 2.80000000 0.27450980 0.27450980 0.28235294
v 5.39000000 3.60000002 2.20000000 0.27450980 0.27450980 0.28235294
v 5.39000000 3.55000002 2.20000000 0.27450980 0.27450980 0.28235294
v 5.31000000 3.55000002 2.20000000 0.27450980 0.27450980 0.28235294
v 5.31000000 3.60000002 2.20000000 0.27450980 0.27450980 0.28235294
v 5.39000000 3.60000002 2.80000000 0.27450980 0.27450980 0.28235294
v 5.39000000 3.55000002 2.80000000 0.27450980 0.27450980 0.28235294
v 5.31000000 3.55000002 2.80000000 0.27450980 0.27450980 0.28235294
v 5.31000000 3.60000002 2.80000000 0.27450980 0.27450980 0.28235294
v 5.39000000 3.00000002 2.20000000 0.27450980 0.27450980 0.28235294
v 5.39000000 3.60000002 2.20000000 0.27450980 0.27450980 0.28235294
v 5.31000000 3.60000002 2.20000000 0.27450980 0.27450980 0.28235294
v 5.31000000 3.00000002 2.20000000 0.27450980 0.27450980 0.28235294
v 5.39000000 3.00000002 2.25000000 0.27450980 0.27450980 0.28235294
v 5.39000000 3.60000002 2.25000000 0.27450980 0.27450980 0.28235294
v 5.31000000 3.60000002 2.25000000 0.27450980 0.27450980 0.28235294
v 5.31000000 3.00000002 2.25000000 0.27450980 0.27450980 0.28235294
v 5.39000000 3.00000002 2.75000000 0.27450980 0.27450980 0.28235294
v 5.39000000 3.60000002 2.75000000 0.27450980 0.27450980 0.28235294
v 5.31000000 3.60000002 2.75000000 0.27450980 0.27450980 0.28235294
v 5.31000000 3.00000002 2.75000000 0.27450980 0.27450980 0.28235294
v 5.39000000 3.00000002 2.80000000 0.27450980 0.27450980 0.28235294
v 5.39000000 3.60000002 2.80000000 0.27450980 0.27450980 0.28235294
v 5.31000000 3.60000002 2.80000000 0.27450980 0.27450980 0.28235294
v 5.31000000 3.00000002 2.80000000 0.27450980 0.27450980 0.28235294
v 5.31000000 1.20000002 2.20000000 0.27450980 0.27450980 0.28235294
v 5.39000000 1.20000002 2.20000000 0.27450980 0.27450980 0.28235294
v 5.39000000 1.15000002 2.20000000 0.27450980 0.27450980 0.28235294
v 5.31000000 1.15000002 2.20000000 0.27450980 0.27450980 0.28235294
v 5.31000000 1.20000002 2.80000000 0.27450980 0.27450980 0.28235294
v 5.39000000 1.20000002 2.80000000 0.27450980 0.27450980 0.28235294
v 5.39000000 1.15000002 2.80000000 0.27450980 0.27450980 0.28235294
v 5.31000000 1.15000002 2.80000000 0.27450980 0.27450980 0.28235294
v 5.39000000 1.47500002 2.20000000 0.27450980 0.27450980 0.28235294
v 5.39000000 1.42500002 2.20000000 0.27450980 0.27450980 0.28235294
v 5.31000000 1.42500002 2.20000000 0.27450980 0.27450980 0.28235294
v 5.31000000 1.47500002 2.20000000 0.27450980 0.27450980 0.28235294
v 5.39000000 1.47500002 2.80000000 0.27450980 0.27450980 0.28235294
v 5.39000000 1.42500002 2.80000000 0.27450980 0.27450980 0.28235294
v 5.31000000 1.42500002 2.80000000 0.27450980 0.27450980 0.28235294
v 5.31000000 1.47500002 2.80000000 0.27450980 0.27450980 0.28235294
v 5.39000000 1.75000002 2.20000000 0.27450980 0.27450980 0.28235294
v 5.39000000 1.70000002 2.20000000 0.27450980 0.27450980 0.28235294
v 5.31000000 1.70000002 2.20000000 0.27450980 0.27450980 0.28235294
v 5.31000000 1.75000002 2.20000000 0.27450980 0.27450980 0.28235294
v 5.39000000 1.75000002 2.80000000 0.27450980 0.27450980 0.28235294
v 5.39000000 1.70000002 2.80000000 0.27450980 0.27450980 0.28235294
v 5.31000000 1.70000002 2.80000000 0.27450980 0.27450980 0.28235294
v 5.31000000 1.75000002 2.80000000 0.27450980 0.27450980 0.28235294
v 5.39000000 1.15000002 2.20000000 0.27450980 0.27450980 0.28235294
v 5.39000000 1.75000002 2.20000000 0.27450980 0.27450980 0.28235294
v 5.31000000 1.75000002 2.20000000 0.27450980 0.27450980 0.28235294
v 5.31000000 1.15000002 2.20000000 0.27450980 0.27450980 0.28235294
v 5.39000000 1.15000002 2.25000000 0.27450980 0.27450980 0.28235294
v 5.39000000 1.75000002 2.25000000 0.27450980 0.27450980 0.28235294
v 5.31000000 1.75000002 2.25000000 0.27450980 0.27450980 0.28235294
v 5.31000000 1.15000002 2.25000000 0.27450980 0.27450980 0.28235294
v 5.39000000 1.15000002 2.75000000 0.27450980 0.27450980 0.28235294
v 5.39000000 1.75000002 2.75000000 0.27450980 0.27450980 0.28235294
v 5.31000000 1.75000002 2.75000000 0.27450980 0.27450980 0.28235294
v 5.31000000 1.15000002 2.75000000 0.27450980 0.27450980 0.28235294
v 5.39000000 1.15000002 2.80000000 0.27450980 0.27450980 0.28235294
v 5.39000000 1.75000002 2.80000000 0.27450980 0.27450980 0.28235294
v 5.31000000 1.75000002 2.80000000 0.27450980 0.27450980 0.28235294
v 5.31000000 1.15000002 2.80000000 0.27450980 0.27450980 0.28235294
v -0.62500000 -7.63499998 2.20000000 0.27450980 0.27450980 0.28235294
v -0.57500000 -7.63499998 2.20000000 0.27450980 0.27450980 0.28235294
v -0.57500000 -7.71499998 2.20000000 0.27450980 0.27450980 0.28235294
v -0.62500000 -7.71499998 2.20000000 0.27450980 0.27450980 0.28235294
v -0.62500000 -7.63499998 2.80000000 0.27450980 0.27450980 0.28235294
v -0.57500000 -7.63499998 2.80000000 0.27450980 0.27450980 0.28235294
v -0.57500000 -7.71499998 2.80000000 0.27450980 0.27450980 0.28235294
v -0.62500000 -7.71499998 2.80000000 0.27450980 0.27450980 0.28235294
v -0.30000000 -7.63499998 2.20000000 0.27450980 0.27450980 0.28235294
v -0.30000000 -7.71499998 2.20000000 0.27450980 0.27450980 0.28235294
v -0.35000000 -7.71499998 2.20000000 0.27450980 0.27450980 0.28235294
v -0.35000000 -7.63499998 2.20000000 0.27450980 0.27450980 0.28235294
v -0.30000000 -7.63499998 2.80000000 0.27450980 0.27450980 0.28235294
v -0.30000000 -7.71499998 2.80000000 0.27450980 0.27450980 0.28235294
v -0.35000000 -7.71499998 2.80000000 0.27450980 0.27450980 0.28235294
v -0.35000000 -7.63499998 2.80000000 0.27450980 0.27450980 0.28235294
v -0.02500000 -7.63499998 2.20000000 0.27450980 0.27450980 0.28235294
v -0.02500000 -7.71499998 2.20000000 0.27450980 0.27450980 0.28235294
v -0.07500000 -7.71499998 2.20000000 0.27450980 0.27450980 0.28235294
v -0.07500000 -7.63499998 2.20000000 0.27450980 0.27450980 0.28235294
v -0.02500000 -7.63499998 2.80000000 0.27450980 0.27450980 0.28235294
v -0.02500000 -7.71499998 2.80000000 0.27450980 0.27450980 0.28235294
v -0.07500000 -7.71499998 2.80000000 0.27450980 0.27450980 0.28235294
v -0.07500000 -7.63499998 2.80000000 0.27450980 0.27450980 0.28235294
v -0.02500000 -7.71499998 2.20000000 0.27450980 0.27450980 0.28235294
v -0.02500000 -7.63499998 2.20000000 0.27450980 0.27450980 0.28235294
v -0.62500000 -7.63499998 2.20000000 0.27450980 0.27450980 0.28235294
v -0.62500000 -7.71499998 2.20000000 0.27450980 0.27450980 0.28235294
v -0.02500000 -7.71499998 2.25000000 0.27450980 0.27450980 0.28235294
v -0.02500000 -7.63499998 2.25000000 0.27450980 0.27450980 0.28235294
v -0.62500000 -7.63499998 2.25000000 0.27450980 0.27450980 0.28235294
v -0.62500000 -7.71499998 2.25000000 0.27450980 0.27450980 0.28235294
v -0.02500000 -7.71499998 2.75000000 0.27450980 0.27450980 0.28235294
v -0.02500000 -7.63499998 2.75000000 0.27450980 0.27450980 0.28235294
v -0.62500000 -7.63499998 2.75000000 0.27450980 0.27450980 0.28235294
v -0.62500000 -7.71499998 2.75000000 0.27450980 0.27450980 0.28235294
v -0.02500000 -7.71499998 2.80000000 0.27450980 0.27450980 0.28235294
v -0.02500000 -7.63499998 2.80000000 0.27450980 0.27450980 0.28235294
v -0.62500000 -7.63499998 2.80000000 0.27450980 0.27450980 0.28235294
v -0.62500000 -7.71499998 2.80000000 0.27450980 0.27450980 0.28235294
v -2.40000000 -7.63499998 2.20000000 0.27450980 0.27450980 0.28235294
v -2.35000000 -7.63499998 2.20000000 0.27450980 0.27450980 0.28235294
v -2.35000000 -7.71499998 2.20000000 0.27450980 0.27450980 0.28235294
v -2.40000000 -7.71499998 2.20000000 0.27450980 0.27450980 0.28235294
v -2.40000000 -7.63499998 2.80000000 0.27450980 0.27450980 0.28235294
v -2.35000000 -7.63499998 2.80000000 0.27450980 0.27450980 0.28235294
v -2.35000000 -7.71499998 2.80000000 0.27450980 0.27450980 0.28235294
v -2.40000000 -7.71499998 2.80000000 0.27450980 0.27450980 0.28235294
v -2.07500000 -7.63499998 2.20000000 0.27450980 0.27450980 0.28235294
v -2.07500000 -7.71499998 2.20000000 0.27450980 0.27450980 0.28235294
v -2.12500000 -7.71499998 2.20000000 0.27450980 0.27450980 0.28235294
v -2.12500000 -7.63499998 2.20000000 0.27450980 0.27450980 0.28235294
v -2.07500000 -7.63499998 2.80000000 0.27450980 0.27450980 0.28235294
v -2.07500000 -7.71499998 2.80000000 0.27450980 0.27450980 0.28235294
v -2.12500000 -7.71499998 2.80000000 0.27450980 0.27450980 0.28235294
v -2.12500000 -7.63499998 2.80000000 0.27450980 0.27450980 0.28235294
v -1.80000000 -7.63499998 2.20000000 0.27450980 0.27450980 0.28235294
v -1.80000000 -7.71499998 2.20000000 0.27450980 0.27450980 0.28235294
v -1.85000000 -7.71499998 2.20000000 0.27450980 0.27450980 0.28235294
v -1.85000000 -7.63499998 2.20000000 0.27450980 0.27450980 0.28235294
v -1.80000000 -7.63499998 2.80000000 0.27450980 0.27450980 0.28235294
v -1.80000000 -7.71499998 2.80000000 0.27450980 0.27450980 0.28235294
v -1.85000000 -7.71499998 2.80000000 0.27450980 0.27450980 0.28235294
v -1.85000000 -7.63499998 2.80000000 0.27450980 0.27450980 0.28235294
v -1.80000000 -7.71499998 2.20000000 0.27450980 0.27450980 0.28235294
v -1.80000000 -7.63499998 2.20000000 0.27450980 0.27450980 0.28235294
v -2.40000000 -7.63499998 2.20000000 0.27450980 0.27450980 0.28235294
v -2.40000000 -7.71499998 2.20000000 0.27450980 0.27450980 0.28235294
v -1.80000000 -7.71499998 2.25000000 0.27450980 0.27450980 0.28235294
v -1.80000000 -7.63499998 2.25000000 0.27450980 0.27450980 0.28235294
v -2.40000000 -7.63499998 2.25000000 0.27450980 0.27450980 0.28235294
v -2.40000000 -7.71499998 2.25000000 0.27450980 0.27450980 0.28235294
v -1.80000000 -7.71499998 2.75000000 0.27450980 0.27450980 0.28235294
v -1.80000000 -7.63499998 2.75000000 0.27450980 0.27450980 0.28235294
v -2.40000000 -7.63499998 2.75000000 0.27450980 0.27450980 0.28235294
v -2.40000000 -7.71499998 2.75000000 0.27450980 0.27450980 0.28235294
v -1.80000000 -7.71499998 2.80000000 0.27450980 0.27450980 0.28235294
v -1.80000000 -7.63499998 2.80000000 0.27450980 0.27450980 0.28235294
v -2.40000000 -7.63499998 2.80000000 0.27450980 0.27450980 0.28235294
v -2.40000000 -7.71499998 2.80000000 0.27450980 0.27450980 0.28235294
f 3 4 1
f 2 3 1
f 5 8 7
f 5 7 6
f 5 6 1
f 1 6 2
f 6 7 2
f 2 7 3
f 8 5 4
f 4 5 1
f 7 8 3
f 3 8 4
f 11 12 9
f 10 11 9
f 13 16 15
f 13 15 14
f 13 14 9
f 9 14 10
f 14 15 10
f 10 15 11
f 16 13 12
f 12 13 9
f 15 16 11
f 11 16 12
f 19 20 17
f 18 19 17
f 21 24 23
f 21 23 22
f 21 22 17
f 17 22 18
f 22 23 18
f 18 23 19
f 24 21 20
f 20 21 17
f 23 24 19
f 19 24 20
f 26 25 28
f 27 26 28
f 32 29 30
f 32 30 31
f 30 29 26
f 26 29 25
f 31 30 27
f 27 30 26
f 29 32 25
f 25 32 28
f 32 31 28
f 28 31 27
f 34 33 36
f 35 34 36
f 40 37 38
f 40 38 39
f 38 37 34
f 34 37 33
f 39 38 35
f 35 38 34
f 37 40 33
f 33 40 36
f 40 39 36
f 36 39 35
f 43 44 41
f 42 43 41
f 45 48 47
f 45 47 46
f 45 46 41
f 41 46 42
f 46 47 42
f 42 47 43
f 48 45 44
f 44 45 41
f 47 48 43
f 43 48 44
f 51 52 49
f 50 51 49
f 53 56 55
f 53 55 54
f 53 54 49
f 49 54 50
f 54 55 50
f 50 55 51
f 56 53 52
f 52 53 49
f 55 56 51
f 51 56 52
f 59 60 57
f 58 59 57
f 61 64 63
f 61 63 62
f 61 62 57
f 57 62 58
f 62 63 58
f 58 63 59
f 64 61 60
f 60 61 57
f 63 64 59
f 59 64 60
f 66 65 68
f 67 66 68
f 72 69 70
f 72 70 71
f 70 69 66
f 66 69 65
f 71 70 67
f 67 70 66
f 69 72 65
f 65 72 68
f 72 71 68
f 68 71 67
f 74 73 76
f 75 74 76
f 80 77 78
f 80 78 79
f 78 77 74
f 74 77 73
f 79 78 75
f 75 78 74
f 77 80 73
f 73 80 76
f 80 79 76
f 76 79 75
f 83 84 81
f 82 83 81
f 85 88 87
f 85 87 86
f 85 86 81
f 81 86 82
f 86 87 82
f 82 87 83
f 88 85 84
f 84 85 81
f 87 88 83
f 83 88 84
f 91 92 89
f 90 91 89
f 93 96 95
f 93 95 94
f 93 94 89
f 89 94 90
f 94 95 90
f 90 95 91
f 96 93 92
f 92 93 89
f 95 96 91
f 91 96 92
f 99 100 97
f 98 99 97
f 101 104 103
f 101 103 102
f 101 102 97
f 97 102 98
f 102 103 98
f 98 103 99
f 104 101 100
f 100 101 97
f 103 104 99
f 99 104 100
f 106 105 108
f 107 106 108
f 112 109 110
f 112 110 111
f 110 109 106
f 106 109 105
f 111 110 107
f 107 110 106
f 109 112 105
f 105 112 108
f 112 111 108
f 108 111 107
f 114 113 116
f 115 114 116
f 120 117 118
f 120 118 119
f 118 117 114
f 114 117 113
f 119 118 115
f 115 118 114
f 117 120 113
f 113 120 116
f 120 119 116
f 116 119 115
f 123 124 121
f 122 123 121
f 125 128 127
f 125 127 126
f 125 126 121
f 121 126 122
f 126 127 122
f 122 127 123
f 128 125 124
f 124 125 121
f 127 128 123
f 123 128 124
f 131 132 129
f 130 131 129
f 133 136 135
f 133 135 134
f 133 134 129
f 129 134 130
f 134 135 130
f 130 135 131
f 136 133 132
f 132 133 129
f 135 136 131
f 131 136 132
f 139 140 137
f 138 139 137
f 141 144 143
f 141 143 142
f 141 142 137
f 137 142 138
f 142 143 138
f 138 143 139
f 144 141 140
f 140 141 137
f 143 144 139
f 139 144 140
f 146 145 148
f 147 146 148
f 152 149 150
f 152 150 151
f 150 149 146
f 146 149 145
f 151 150 147
f 147 150 146
f 149 152 145
f 145 152 148
f 152 151 148
f 148 151 147
f 154 153 156
f 155 154 156
f 160 157 158
f 160 158 159
f 158 157 154
f 154 157 153
f 159 158 155
f 155 158 154
f 157 160 153
f 153 160 156
f 160 159 156
f 156 159 155
f 163 164 161
f 162 163 161
f 165 168 167
f 165 167 166
f 165 166 161
f 161 166 162
f 166 167 162
f 162 167 163
f 168 165 164
f 164 165 161
f 167 168 163
f 163 168 164
f 171 172 169
f 170 171 169
f 173 176 175
f 173 175 174
f 173 174 169
f 169 174 170
f 174 175 170
f 170 175 171
f 176 173 172
f 172 173 169
f 175 176 171
f 171 176 172
f 179 180 177
f 178 179 177
f 181 184 183
f 181 183 182
f 181 182 177
f 177 182 178
f 182 183 178
f 178 183 179
f 184 181 180
f 180 181 177
f 183 184 179
f 179 184 180
f 186 185 188
f 187 186 188
f 192 189 190
f 192 190 191
f 190 189 186
f 186 189 185
f 191 190 187
f 187 190 186
f 189 192 185
f 185 192 188
f 192 191 188
f 188 191 187
f 194 193 196
f 195 194 196
f 200 197 198
f 200 198 199
f 198 197 194
f 194 197 193
f 199 198 195
f 195 198 194
f 197 200 193
f 193 200 196
f 200 199 196
f 196 199 195
f 203 204 201
f 202 203 201
f 205 208 207
f 205 207 206
f 205 206 201
f 201 206 202
f 206 207 202
f 202 207 203
f 208 205 204
f 204 205 201
f 207 208 203
f 203 208 204
f 211 212 209
f 210 211 209
f 213 216 215
f 213 215 214
f 213 214 209
f 209 214 210
f 214 215 210
f 210 215 211
f 216 213 212
f 212 213 209
f 215 216 211
f 211 216 212
f 219 220 217
f 218 219 217
f 221 224 223
f 221 223 222
f 221 222 217
f 217 222 218
f 222 223 218
f 218 223 219
f 224 221 220
f 220 221 217
f 223 224 219
f 219 224 220
f 226 225 228
f 227 226 228
f 232 229 230
f 232 230 231
f 230 229 226
f 226 229 225
f 231 230 227
f 227 230 226
f 229 232 225
f 225 232 228
f 232 231 228
f 228 231 227
f 234 233 236
f 235 234 236
f 240 237 238
f 240 238 239
f 238 237 234
f 234 237 233
f 239 238 235
f 235 238 234
f 237 240 233
f 233 240 236
f 240 239 236
f 236 239 235
f 243 244 241
f 242 243 241
f 245 248 247
f 245 247 246
f 245 246 241
f 241 246 242
f 246 247 242
f 242 247 243
f 248 245 244
f 244 245 241
f 247 248 243
f 243 248 244
f 251 252 249
f 250 251 249
f 253 256 255
f 253 255 254
f 253 254 249
f 249 254 250
f 254 255 250
f 250 255 251
f 256 253 252
f 252 253 249
f 255 256 251
f 251 256 252
f 259 260 257
f 258 259 257
f 261 264 263
f 261 263 262
f 261 262 257
f 257 262 258
f 262 263 258
f 258 263 259
f 264 261 260
f 260 261 257
f 263 264 259
f 259 264 260
f 266 265 268
f 267 266 268
f 272 269 270
f 272 270 271
f 270 269 266
f 266 269 265
f 271 270 267
f 267 270 266
f 269 272 265
f 265 272 268
f 272 271 268
f 268 271 267
f 274 273 276
f 275 274 276
f 280 277 278
f 280 278 279
f 278 277 274
f 274 277 273
f 279 278 275
f 275 278 274
f 277 280 273
f 273 280 276
f 280 279 276
f 276 279 275
f 283 284 281
f 282 283 281
f 285 288 287
f 285 287 286
f 285 286 281
f 281 286 282
f 286 287 282
f 282 287 283
f 288 285 284
f 284 285 281
f 287 288 283
f 283 288 284
f 291 292 289
f 290 291 289
f 293 296 295
f 293 295 294
f 293 294 289
f 289 294 290
f 294 295 290
f 290 295 291
f 296 293 292
f 292 293 289
f 295 296 291
f 291 296 292
f 299 300 297
f 298 299 297
f 301 304 303
f 301 303 302
f 301 302 297
f 297 302 298
f 302 303 298
f 298 303 299
f 304 301 300
f 300 301 297
f 303 304 299
f 299 304 300
f 306 305 308
f 307 306 308
f 312 309 310
f 312 310 311
f 310 309 306
f 306 309 305
f 311 310 307
f 307 310 306
f 309 312 305
f 305 312 308
f 312 311 308
f 308 311 307
f 314 313 316
f 315 314 316
f 320 317 318
f 320 318 319
f 318 317 314
f 314 317 313
f 319 318 315
f 315 318 314
f 317 320 313
f 313 320 316
f 320 319 316
f 316 319 315
f 323 324 321
f 322 323 321
f 325 328 327
f 325 327 326
f 325 326 321
f 321 326 322
f 326 327 322
f 322 327 323
f 328 325 324
f 324 325 321
f 327 328 323
f 323 328 324
f 331 332 329
f 330 331 329
f 333 336 335
f 333 335 334
f 333 334 329
f 329 334 330
f 334 335 330
f 330 335 331
f 336 333 332
f 332 333 329
f 335 336 331
f 331 336 332
f 339 340 337
f 338 339 337
f 341 344 343
f 341 343 342
f 341 342 337
f 337 342 338
f 342 343 338
f 338 343 339
f 344 341 340
f 340 341 337
f 343 344 339
f 339 344 340
f 346 345 348
f 347 346 348
f 352 349 350
f 352 350 351
f 350 349 346
f 346 349 345
f 351 350 347
f 347 350 346
f 349 352 345
f 345 352 348
f 352 351 348
f 348 351 347
f 354 353 356
f 355 354 356
f 360 357 358
f 360 358 359
f 358 357 354
f 354 357 353
f 359 358 355
f 355 358 354
f 357 360 353
f 353 360 356
f 360 359 356
f 356 359 355

