# https://github.com/mikedh/trimesh
v -0.50000000 4.91000002 0.60000000 0.58823529 0.74509804 0.82352941
v -0.50000000 4.94000002 0.60000000 0.58823529 0.74509804 0.82352941
v -4.50000000 4.94000002 0.60000000 0.58823529 0.74509804 0.82352941
v -4.50000000 4.91000002 0.60000000 0.58823529 0.74509804 0.82352941
v -0.50000000 4.91000002 2.80000000 0.58823529 0.74509804 0.82352941
v -0.50000000 4.94000002 2.80000000 0.58823529 0.74509804 0.82352941
v -4.50000000 4.94000002 2.80000000 0.58823529 0.74509804 0.82352941
v -4.50000000 4.91000002 2.80000000 0.58823529 0.74509804 0.82352941
v 4.02500000 7.66000002 0.60000000 0.58823529 0.74509804 0.82352941
v 4.02500000 7.69000002 0.60000000 0.58823529 0.74509804 0.82352941
v 1.52500000 7.69000002 0.60000000 0.58823529 0.74509804 0.82352941
v 1.52500000 7.66000002 0.60000000 0.58823529 0.74509804 0.82352941
v 4.02500000 7.66000002 2.80000000 0.58823529 0.74509804 0.82352941
v 4.02500000 7.69000002 2.80000000 0.58823529 0.74509804 0.82352941
v 1.52500000 7.69000002 2.80000000 0.58823529 0.74509804 0.82352941
v 1.52500000 7.66000002 2.80000000 0.58823529 0.74509804 0.82352941
v 3.57500000 -7.68999998 1.30000000 0.58823529 0.74509804 0.82352941
v 3.57500000 -7.65999998 1.30000000 0.58823529 0.74509804 0.82352941
v 2.07500000 -7.65999998 1.30000000 0.58823529 0.74509804 0.82352941
v 2.07500000 -7.68999998 1.30000000 0.58823529 0.74509804 0.82352941
v 3.57500000 -7.68999998 2.80000000 0.58823529 0.74509804 0.82352941
v 3.57500000 -7.65999998 2.80000000 0.58823529 0.74509804 0.82352941
v 2.07500000 -7.65999998 2.80000000 0.58823529 0.74509804 0.82352941
v 2.07500000 -7.68999998 2.80000000 0.58823529 0.74509804 0.82352941
v 5.36500000 -2.54999998 1.30000000 0.58823529 0.74509804 0.82352941
v 5.36500000 -1.04999998 1.30000000 0.58823529 0.74509804 0.82352941
v 5.33500000 -1.04999998 1.30000000 0.58823529 0.74509804 0.82352941
v 5.33500000 -2.54999998 1.30000000 0.58823529 0.74509804 0.82352941
v 5.36500000 -2.54999998 2.80000000 0.58823529 0.74509804 0.82352941
v 5.36500000 -1.04999998 2.80000000 0.58823529 0.74509804 0.82352941
v 5.33500000 -1.04999998 2.80000000 0.58823529 0.74509804 0.82352941
v 5.33500000 -2.54999998 2.80000000 0.58823529 0.74509804 0.82352941
v -5.33500000 -1.34999998 1.30000000 0.58823529 0.74509804 0.82352941
v -5.33500000 -0.09999998 1.30000000 0.58823529 0.74509804 0.82352941
v -5.36500000 -0.09999998 1.30000000 0.58823529 0.74509804 0.82352941
v -5.36500000 -1.34999998 1.30000000 0.58823529 0.74509804 0.82352941
v -5.33500000 -1.34999998 2.80000000 0.58823529 0.74509804 0.82352941
v -5.33500000 -0.09999998 2.80000000 0.58823529 0.74509804 0.82352941
v -5.36500000 -0.09999998 2.80000000 0.58823529 0.74509804 0.82352941
v -5.36500000 -1.34999998 2.80000000 0.58823529 0.74509804 0.82352941
v 5.36500000 3.00000002 2.20000000 0.58823529 0.74509804 0.82352941
v 5.36500000 3.60000002 2.20000000 0.58823529 0.74509804 0.82352941
v 5.33500000 3.60000002 2.20000000 0.58823529 0.74509804 0.82352941
v 5.33500000 3.00000002 2.20000000 0.58823529 0.74509804 0.82352941
v 5.36500000 3.00000002 2.80000000 0.58823529 0.74509804 0.82352941
v 5.36500000 3.60000002 2.80000000 0.58823529 0.74509804 0.82352941
v 5.33500000 3.60000002 2.80000000 0.58823529 0.74509804 0.82352941
v 5.33500000 3.00000002 2.80000000 0.58823529 0.74509804 0.82352941
v 5.36500000 1.15000002 2.20000000 0.58823529 0.74509804 0.82352941
v 5.36500000 1.75000002 2.20000000 0.58823529 0.74509804 0.82352941
v 5.33500000 1.75000002 2.20000000 0.58823529 0.74509804 0.82352941
v 5.33500000 1.15000002 2.20000000 0.58823529 0.74509804 0.82352941
v 5.36500000 1.15000002 2.80000000 0.58823529 0.74509804 0.82352941
v 5.36500000 1.75000002 2.80000000 0.58823529 0.74509804 0.82352941
v 5.33500000 1.75000002 2.80000000 0.58823529 0.74509804 0.82352941
v 5.33500000 1.15000002 2.80000000 0.58823529 0.74509804 0.82352941
v -0.02500000 -7.68999998 2.20000000 0.58823529 0.74509804 0.82352941
v -0.02500000 -7.65999998 2.20000000 0.58823529 0.74509804 0.82352941
v -0.62500000 -7.65999998 2.20000000 0.58823529 0.74509804 0.82352941
v -0.62500000 -7.68999998 2.20000000 0.58823529 0.74509804 0.82352941
v -0.02500000 -7.68999998 2.80000000 0.58823529 0.74509804 0.82352941
v -0.02500000 -7.65999998 2.80000000 0.58823529 0.74509804 0.82352941
v -0.62500000 -7.65999998 2.80000000 0.58823529 0.74509804 0.82352941
v -0.62500000 -7.68999998 2.80000000 0.58823529 0.74509804 0.82352941
v -1.80000000 -7.68999998 2.20000000 0.58823529 0.74509804 0.82352941
v -1.80000000 -7.65999998 2.20000000 0.58823529 0.74509804 0.82352941
v -2.40000000 -7.65999998 2.20000000 0.58823529 0.74509804 0.82352941
v -2.40000000 -7.68999998 2.20000000 0.58823529 0.74509804 0.82352941
v -1.80000000 -7.68999998 2.80000000 0.58823529 0.74509804 0.82352941
v -1.80000000 -7.65999998 2.80000000 0.58823529 0.74509804 0.82352941
v -2.40000000 -7.65999998 2.80000000 0.58823529 0.74509804 0.82352941
v -2.40000000 -7.68999998 2.80000000 0.58823529 0.74509804 0.82352941
f 2 1 4
f 3 2 4
f 8 5 6
f 8 6 7
f 6 5 2
f 2 5 1
f 7 6 3
f 3 6 2
f 5 8 1
f 1 8 4
f 8 7 4
f 4 7 3
f 10 9 12
f 11 10 12
f 16 13 14
f 16 14 15
f 14 13 10
f 10 13 9
f 15 14 11
f 11 14 10
f 13 16 9
f 9 16 12
f 16 15 12
f 12 15 11
f 18 17 20
f 19 18 20
f 24 21 22
f 24 22 23
f 22 21 18
f 18 21 17
f 23 22 19
f 19 22 18
f 21 24 17
f 17 24 20
f 24 23 20
f 20 23 19
f 26 25 28
f 27 26 28
f 32 29 30
f 32 30 31
f 30 29 26
f 26 29 25
f 31 30 27
f 27 30 26
f 29 32 25
f 25 32 28
f 32 31 28
f 28 31 27
f 34 33 36
f 35 34 36
f 40 37 38
f 40 38 39
f 38 37 34
f 34 37 33
f 39 38 35
f 35 38 34
f 37 40 33
f 33 40 36
f 40 39 36
f 36 39 35
f 42 41 44
f 43 42 44
f 48 45 46
f 48 46 47
f 46 45 42
f 42 45 41
f 47 46 43
f 43 46 42
f 45 48 41
f 41 48 44
f 48 47 44
f 44 47 43
f 50 49 52
f 51 50 52
f 56 53 54
f 56 54 55
f 54 53 50
f 50 53 49
f 55 54 51
f 51 54 50
f 53 56 49
f 49 56 52
f 56 55 52
f 52 55 51
f 58 57 60
f 59 58 60
f 64 61 62
f 64 62 63
f 62 61 58
f 58 61 57
f 63 62 59
f 59 62 58
f 61 64 57
f 57 64 60
f 64 63 60
f 60 63 59
f 66 65 68
f 67 66 68
f 72 69 70
f 72 70 71
f 70 69 66
f 66 69 65
f 71 70 67
f 67 70 66
f 69 72 65
f 65 72 68
f 72 71 68
f 68 71 67

