# https://github.com/mikedh/trimesh
v 1005.47500000 -1007.80000002 -0.05000000 0.47058824 0.58823529 0.35294118
v 1005.47500000 1007.80000002 -0.05000000 0.47058824 0.58823529 0.35294118
v -1005.47500000 1007.80000002 -0.05000000 0.47058824 0.58823529 0.35294118
v -1005.47500000 -1007.80000002 -0.05000000 0.47058824 0.58823529 0.35294118
v 1005.47500000 -1007.80000002 0.00000000 0.47058824 0.58823529 0.35294118
v 1005.47500000 1007.80000002 0.00000000 0.47058824 0.58823529 0.35294118
v -1005.47500000 1007.80000002 0.00000000 0.47058824 0.58823529 0.35294118
v -1005.47500000 -1007.80000002 0.00000000 0.47058824 0.58823529 0.35294118
f 2 1 4
f 3 2 4
f 8 5 6
f 8 6 7
f 6 5 2
f 2 5 1
f 7 6 3
f 3 6 2
f 5 8 1
f 1 8 4
f 8 7 4
f 4 7 3

