# https://github.com/mikedh/trimesh
v 5.47500000 7.80000002 0.00000000 0.74509804 0.71372549 0.65882353
v 5.47500000 -7.80000002 0.00000000 0.74509804 0.71372549 0.65882353
v -3.37836990 -7.80000002 0.00000000 0.74509804 0.71372549 0.65882353
v -3.37836990 -6.75062962 0.00000000 0.74509804 0.71372549 0.65882353
v -5.47500000 -6.75062962 0.00000000 0.74509804 0.71372549 0.65882353
v -5.47500000 7.80000002 0.00000000 0.74509804 0.71372549 0.65882353
v 5.47500000 7.80000002 0.58000000 0.74509804 0.71372549 0.65882353
v 5.47500000 -7.80000002 0.58000000 0.74509804 0.71372549 0.65882353
v -3.37836990 -7.80000002 0.58000000 0.74509804 0.71372549 0.65882353
v -3.37836990 -6.75062962 0.58000000 0.74509804 0.71372549 0.65882353
v -5.47500000 -6.75062962 0.58000000 0.74509804 0.71372549 0.65882353
v -5.47500000 7.80000002 0.58000000 0.74509804 0.71372549 0.65882353
v 0.10163010 5.04937038 0.58000000 0.74509804 0.71372549 0.65882353
v 0.10163010 7.79937038 0.58000000 0.74509804 0.71372549 0.65882353
v -5.47836990 7.79937038 0.58000000 0.74509804 0.71372549 0.65882353
v -5.47836990 5.04937038 0.58000000 0.74509804 0.71372549 0.65882353
v 0.10163010 5.04937038 0.60000000 0.74509804 0.71372549 0.65882353
v 0.10163010 7.79937038 0.60000000 0.74509804 0.71372549 0.65882353
v -5.47836990 7.79937038 0.60000000 0.74509804 0.71372549 0.65882353
v -5.47836990 5.04937038 0.60000000 0.74509804 0.71372549 0.65882353
f 5 6 1
f 4 5 1
f 3 4 1
f 2 3 1
f 7 12 11
f 7 11 10
f 7 10 9
f 7 9 8
f 7 8 1
f 1 8 2
f 8 9 2
f 2 9 3
f 9 10 3
f 3 10 4
f 10 11 4
f 4 11 5
f 12 7 6
f 6 7 1
f 11 12 5
f 5 12 6
f 14 13 16
f 15 14 16
f 20 17 18
f 20 18 19
f 18 17 14
f 14 17 13
f 19 18 15
f 15 18 14
f 17 20 13
f 13 20 16
f 20 19 16
f 16 19 15

