# https://github.com/mikedh/trimesh
v -5.39836990 5.04937038 1.75000000 0.23529412 0.23529412 0.24313725
v -5.39836990 7.49937038 1.75000000 0.23529412 0.23529412 0.24313725
v -5.47836990 7.49937038 1.75000000 0.23529412 0.23529412 0.24313725
v -5.47836990 5.04937038 1.75000000 0.23529412 0.23529412 0.24313725
v -5.39836990 5.04937038 1.80000000 0.23529412 0.23529412 0.24313725
v -5.39836990 7.49937038 1.80000000 0.23529412 0.23529412 0.24313725
v -5.47836990 7.49937038 1.80000000 0.23529412 0.23529412 0.24313725
v -5.47836990 5.04937038 1.80000000 0.23529412 0.23529412 0.24313725
v -5.41836990 5.03937038 0.60000000 0.23529412 0.23529412 0.24313725
v -5.41836990 5.05937038 0.60000000 0.23529412 0.23529412 0.24313725
v -5.45836990 5.05937038 0.60000000 0.23529412 0.23529412 0.24313725
v -5.45836990 5.03937038 0.60000000 0.23529412 0.23529412 0.24313725
v -5.41836990 5.03937038 1.75000000 0.23529412 0.23529412 0.24313725
v -5.41836990 5.05937038 1.75000000 0.23529412 0.23529412 0.24313725
v -5.45836990 5.05937038 1.75000000 0.23529412 0.23529412 0.24313725
v -5.45836990 5.03937038 1.75000000 0.23529412 0.23529412 0.24313725
v -5.41836990 5.16187038 0.60000000 0.23529412 0.23529412 0.24313725
v -5.41836990 5.18187038 0.60000000 0.23529412 0.23529412 0.24313725
v -5.45836990 5.18187038 0.60000000 0.23529412 0.23529412 0.24313725
v -5.45836990 5.16187038 0.60000000 0.23529412 0.23529412 0.24313725
v -5.41836990 5.16187038 1.75000000 0.23529412 0.23529412 0.24313725
v -5.41836990 5.18187038 1.75000000 0.23529412 0.23529412 0.24313725
v -5.45836990 5.18187038 1.75000000 0.23529412 0.23529412 0.24313725
v -5.45836990 5.16187038 1.75000000 0.23529412 0.23529412 0.24313725
v -5.41836990 5.28437038 0.60000000 0.23529412 0.23529412 0.24313725
v -5.41836990 5.30437038 0.60000000 0.23529412 0.23529412 0.24313725
v -5.45836990 5.30437038 0.60000000 0.23529412 0.23529412 0.24313725
v -5.45836990 5.28437038 0.60000000 0.23529412 0.23529412 0.24313725
v -5.41836990 5.28437038 1.75000000 0.23529412 0.23529412 0.24313725
v -5.41836990 5.30437038 1.75000000 0.23529412 0.23529412 0.24313725
v -5.45836990 5.30437038 1.75000000 0.23529412 0.23529412 0.24313725
v -5.45836990 5.28437038 1.75000000 0.23529412 0.23529412 0.24313725
v -5.41836990 5.40687038 0.60000000 0.23529412 0.23529412 0.24313725
v -5.41836990 5.42687038 0.60000000 0.23529412 0.23529412 0.24313725
v -5.45836990 5.42687038 0.60000000 0.23529412 0.23529412 0.24313725
v -5.45836990 5.40687038 0.60000000 0.23529412 0.23529412 0.24313725
v -5.41836990 5.40687038 1.75000000 0.23529412 0.23529412 0.24313725
v -5.41836990 5.42687038 1.75000000 0.23529412 0.23529412 0.24313725
v -5.45836990 5.42687038 1.75000000 0.23529412 0.23529412 0.24313725
v -5.45836990 5.40687038 1.75000000 0.23529412 0.23529412 0.24313725
v -5.41836990 5.52937038 0.60000000 0.23529412 0.23529412 0.24313725
v -5.41836990 5.54937038 0.60000000 0.23529412 0.23529412 0.24313725
v -5.45836990 5.54937038 0.60000000 0.23529412 0.23529412 0.24313725
v -5.45836990 5.52937038 0.60000000 0.23529412 0.23529412 0.24313725
v -5.41836990 5.52937038 1.75000000 0.23529412 0.23529412 0.24313725
v -5.41836990 5.54937038 1.75000000 0.23529412 0.23529412 0.24313725
v -5.45836990 5.54937038 1.75000000 0.23529412 0.23529412 0.24313725
v -5.45836990 5.52937038 1.75000000 0.23529412 0.23529412 0.24313725
v -5.41836990 5.65187038 0.60000000 0.23529412 0.23529412 0.24313725
v -5.41836990 5.67187038 0.60000000 0.23529412 0.23529412 0.24313725
v -5.45836990 5.67187038 0.60000000 0.23529412 0.23529412 0.24313725
v -5.45836990 5.65187038 0.60000000 0.23529412 0.23529412 0.24313725
v -5.41836990 5.65187038 1.75000000 0.23529412 0.23529412 0.24313725
v -5.41836990 5.67187038 1.75000000 0.23529412 0.23529412 0.24313725
v -5.45836990 5.67187038 1.75000000 0.23529412 0.23529412 0.24313725
v -5.45836990 5.65187038 1.75000000 0.23529412 0.23529412 0.24313725
v -5.41836990 5.77437038 0.60000000 0.23529412 0.23529412 0.24313725
v -5.41836990 5.79437038 0.60000000 0.23529412 0.23529412 0.24313725
v -5.45836990 5.79437038 0.60000000 0.23529412 0.23529412 0.24313725
v -5.45836990 5.77437038 0.60000000 0.23529412 0.23529412 0.24313725
v -5.41836990 5.77437038 1.75000000 0.23529412 0.23529412 0.24313725
v -5.41836990 5.79437038 1.75000000 0.23529412 0.23529412 0.24313725
v -5.45836990 5.79437038 1.75000000 0.23529412 0.23529412 0.24313725
v -5.45836990 5.77437038 1.75000000 0.23529412 0.23529412 0.24313725
v -5.41836990 5.89687038 0.60000000 0.23529412 0.23529412 0.24313725
v -5.41836990 5.91687038 0.60000000 0.23529412 0.23529412 0.24313725
v -5.45836990 5.91687038 0.60000000 0.23529412 0.23529412 0.24313725
v -5.45836990 5.89687038 0.60000000 0.23529412 0.23529412 0.24313725
v -5.41836990 5.89687038 1.75000000 0.23529412 0.23529412 0.24313725
v -5.41836990 5.91687038 1.75000000 0.23529412 0.23529412 0.24313725
v -5.45836990 5.91687038 1.75000000 0.23529412 0.23529412 0.24313725
v -5.45836990 5.89687038 1.75000000 0.23529412 0.23529412 0.24313725
v -5.41836990 6.01937038 0.60000000 0.23529412 0.23529412 0.24313725
v -5.41836990 6.03937038 0.60000000 0.23529412 0.23529412 0.24313725
v -5.45836990 6.03937038 0.60000000 0.23529412 0.23529412 0.24313725
v -5.45836990 6.01937038 0.60000000 0.23529412 0.23529412 0.24313725
v -5.41836990 6.01937038 1.75000000 0.23529412 0.23529412 0.24313725
v -5.41836990 6.03937038 1.75000000 0.23529412 0.23529412 0.24313725
v -5.45836990 6.03937038 1.75000000 0.23529412 0.23529412 0.24313725
v -5.45836990 6.01937038 1.75000000 0.23529412 0.23529412 0.24313725
v -5.41836990 6.14187038 0.60000000 0.23529412 0.23529412 0.24313725
v -5.41836990 6.16187038 0.60000000 0.23529412 0.23529412 0.24313725
v -5.45836990 6.16187038 0.60000000 0.23529412 0.23529412 0.24313725
v -5.45836990 6.14187038 0.60000000 0.23529412 0.23529412 0.24313725
v -5.41836990 6.14187038 1.75000000 0.23529412 0.23529412 0.24313725
v -5.41836990 6.16187038 1.75000000 0.23529412 0.23529412 0.24313725
v -5.45836990 6.16187038 1.75000000 0.23529412 0.23529412 0.24313725
v -5.45836990 6.14187038 1.75000000 0.23529412 0.23529412 0.24313725
v -5.41836990 6.26437038 0.60000000 0.23529412 0.23529412 0.24313725
v -5.41836990 6.28437038 0.60000000 0.23529412 0.23529412 0.24313725
v -5.45836990 6.28437038 0.60000000 0.23529412 0.23529412 0.24313725
v -5.45836990 6.26437038 0.60000000 0.23529412 0.23529412 0.24313725
v -5.41836990 6.26437038 1.75000000 0.23529412 0.23529412 0.24313725
v -5.41836990 6.28437038 1.75000000 0.23529412 0.23529412 0.24313725
v -5.45836990 6.28437038 1.75000000 0.23529412 0.23529412 0.24313725
v -5.45836990 6.26437038 1.75000000 0.23529412 0.23529412 0.24313725
v -5.41836990 6.38687038 0.60000000 0.23529412 0.23529412 0.24313725
v -5.41836990 6.40687038 0.60000000 0.23529412 0.23529412 0.24313725
v -5.45836990 6.40687038 0.60000000 0.23529412 0.23529412 0.24313725
v -5.45836990 6.38687038 0.60000000 0.23529412 0.23529412 0.24313725
v -5.41836990 6.38687038 1.75000000 0.23529412 0.23529412 0.24313725
v -5.41836990 6.40687038 1.75000000 0.23529412 0.23529412 0.24313725
v -5.45836990 6.40687038 1.75000000 0.23529412 0.23529412 0.24313725
v -5.45836990 6.38687038 1.75000000 0.23529412 0.23529412 0.24313725
v -5.41836990 6.50937038 0.60000000 0.23529412 0.23529412 0.24313725
v -5.41836990 6.52937038 0.60000000 0.23529412 0.23529412 0.24313725
v -5.45836990 6.52937038 0.60000000 0.23529412 0.23529412 0.24313725
v -5.45836990 6.50937038 0.60000000 0.23529412 0.23529412 0.24313725
v -5.41836990 6.50937038 1.75000000 0.23529412 0.23529412 0.24313725
v -5.41836990 6.52937038 1.75000000 0.23529412 0.23529412 0.24313725
v -5.45836990 6.52937038 1.75000000 0.23529412 0.23529412 0.24313725
v -5.45836990 6.50937038 1.75000000 0.23529412 0.23529412 0.24313725
v -5.41836990 6.63187038 0.60000000 0.23529412 0.23529412 0.24313725
v -5.41836990 6.65187038 0.60000000 0.23529412 0.23529412 0.24313725
v -5.45836990 6.65187038 0.60000000 0.23529412 0.23529412 0.24313725
v -5.45836990 6.63187038 0.60000000 0.23529412 0.23529412 0.24313725
v -5.41836990 6.63187038 1.75000000 0.23529412 0.23529412 0.24313725
v -5.41836990 6.65187038 1.75000000 0.23529412 0.23529412 0.24313725
v -5.45836990 6.65187038 1.75000000 0.23529412 0.23529412 0.24313725
v -5.45836990 6.63187038 1.75000000 0.23529412 0.23529412 0.24313725
v -5.41836990 6.75437038 0.60000000 0.23529412 0.23529412 0.24313725
v -5.41836990 6.77437038 0.60000000 0.23529412 0.23529412 0.24313725
v -5.45836990 6.77437038 0.60000000 0.23529412 0.23529412 0.24313725
v -5.45836990 6.75437038 0.60000000 0.23529412 0.23529412 0.24313725
v -5.41836990 6.75437038 1.75000000 0.23529412 0.23529412 0.24313725
v -5.41836990 6.77437038 1.75000000 0.23529412 0.23529412 0.24313725
v -5.45836990 6.77437038 1.75000000 0.23529412 0.23529412 0.24313725
v -5.45836990 6.75437038 1.75000000 0.23529412 0.23529412 0.24313725
v -5.41836990 6.87687038 0.60000000 0.23529412 0.23529412 0.24313725
v -5.41836990 6.89687038 0.60000000 0.23529412 0.23529412 0.24313725
v -5.45836990 6.89687038 0.60000000 0.23529412 0.23529412 0.24313725
v -5.45836990 6.87687038 0.60000000 0.23529412 0.23529412 0.24313725
v -5.41836990 6.87687038 1.75000000 0.23529412 0.23529412 0.24313725
v -5.41836990 6.89687038 1.75000000 0.23529412 0.23529412 0.24313725
v -5.45836990 6.89687038 1.75000000 0.23529412 0.23529412 0.24313725
v -5.45836990 6.87687038 1.75000000 0.23529412 0.23529412 0.24313725
v -5.41836990 6.99937038 0.60000000 0.23529412 0.23529412 0.24313725
v -5.41836990 7.01937038 0.60000000 0.23529412 0.23529412 0.24313725
v -5.45836990 7.01937038 0.60000000 0.23529412 0.23529412 0.24313725
v -5.45836990 6.99937038 0.60000000 0.23529412 0.23529412 0.24313725
v -5.41836990 6.99937038 1.75000000 0.23529412 0.23529412 0.24313725
v -5.41836990 7.01937038 1.75000000 0.23529412 0.23529412 0.24313725
v -5.45836990 7.01937038 1.75000000 0.23529412 0.23529412 0.24313725
v -5.45836990 6.99937038 1.75000000 0.23529412 0.23529412 0.24313725
v -5.41836990 7.12187038 0.60000000 0.23529412 0.23529412 0.24313725
v -5.41836990 7.14187038 0.60000000 0.23529412 0.23529412 0.24313725
v -5.45836990 7.14187038 0.60000000 0.23529412 0.23529412 0.24313725
v -5.45836990 7.12187038 0.60000000 0.23529412 0.23529412 0.24313725
v -5.41836990 7.12187038 1.75000000 0.23529412 0.23529412 0.24313725
v -5.41836990 7.14187038 1.75000000 0.23529412 0.23529412 0.24313725
v -5.45836990 7.14187038 1.75000000 0.23529412 0.23529412 0.24313725
v -5.45836990 7.12187038 1.75000000 0.23529412 0.23529412 0.24313725
v -5.41836990 7.24437038 0.60000000 0.23529412 0.23529412 0.24313725
v -5.41836990 7.26437038 0.60000000 0.23529412 0.23529412 0.24313725
v -5.45836990 7.26437038 0.60000000 0.23529412 0.23529412 0.24313725
v -5.45836990 7.24437038 0.60000000 0.23529412 0.23529412 0.24313725
v -5.41836990 7.24437038 1.75000000 0.23529412 0.23529412 0.24313725
v -5.41836990 7.26437038 1.75000000 0.23529412 0.23529412 0.24313725
v -5.45836990 7.26437038 1.75000000 0.23529412 0.23529412 0.24313725
v -5.45836990 7.24437038 1.75000000 0.23529412 0.23529412 0.24313725
v -5.41836990 7.36687038 0.60000000 0.23529412 0.23529412 0.24313725
v -5.41836990 7.38687038 0.60000000 0.23529412 0.23529412 0.24313725
v -5.45836990 7.38687038 0.60000000 0.23529412 0.23529412 0.24313725
v -5.45836990 7.36687038 0.60000000 0.23529412 0.23529412 0.24313725
v -5.41836990 7.36687038 1.75000000 0.23529412 0.23529412 0.24313725
v -5.41836990 7.38687038 1.75000000 0.23529412 0.23529412 0.24313725
v -5.45836990 7.38687038 1.75000000 0.23529412 0.23529412 0.24313725
v -5.45836990 7.36687038 1.75000000 0.23529412 0.23529412 0.24313725
v -5.41836990 7.48937038 0.60000000 0.23529412 0.23529412 0.24313725
v -5.41836990 7.50937038 0.60000000 0.23529412 0.23529412 0.24313725
v -5.45836990 7.50937038 0.60000000 0.23529412 0.23529412 0.24313725
v -5.45836990 7.48937038 0.60000000 0.23529412 0.23529412 0.24313725
v -5.41836990 7.48937038 1.75000000 0.23529412 0.23529412 0.24313725
v -5.41836990 7.50937038 1.75000000 0.23529412 0.23529412 0.24313725
v -5.45836990 7.50937038 1.75000000 0.23529412 0.23529412 0.24313725
v -5.45836990 7.48937038 1.75000000 0.23529412 0.23529412 0.24313725
v -1.42836990 7.71937038 1.75000000 0.23529412 0.23529412 0.24313725
v -1.42836990 7.79937038 1.75000000 0.23529412 0.23529412 0.24313725
v -4.87836990 7.79937038 1.75000000 0.23529412 0.23529412 0.24313725
v -4.87836990 7.71937038 1.75000000 0.23529412 0.23529412 0.24313725
v -1.42836990 7.71937038 1.80000000 0.23529412 0.23529412 0.24313725
v -1.42836990 7.79937038 1.80000000 0.23529412 0.23529412 0.24313725
v -4.87836990 7.79937038 1.80000000 0.23529412 0.23529412 0.24313725
v -4.87836990 7.71937038 1.80000000 0.23529412 0.23529412 0.24313725
v -4.86836990 7.73937038 0.60000000 0.23529412 0.23529412 0.24313725
v -4.86836990 7.77937038 0.60000000 0.23529412 0.23529412 0.24313725
v -4.88836990 7.77937038 0.60000000 0.23529412 0.23529412 0.24313725
v -4.88836990 7.73937038 0.60000000 0.23529412 0.23529412 0.24313725
v -4.86836990 7.73937038 1.75000000 0.23529412 0.23529412 0.24313725
v -4.86836990 7.77937038 1.75000000 0.23529412 0.23529412 0.24313725
v -4.88836990 7.77937038 1.75000000 0.23529412 0.23529412 0.24313725
v -4.88836990 7.73937038 1.75000000 0.23529412 0.23529412 0.24313725
v -4.74515562 7.73937038 0.60000000 0.23529412 0.23529412 0.24313725
v -4.74515562 7.77937038 0.60000000 0.23529412 0.23529412 0.24313725
v -4.76515562 7.77937038 0.60000000 0.23529412 0.23529412 0.24313725
v -4.76515562 7.73937038 0.60000000 0.23529412 0.23529412 0.24313725
v -4.74515562 7.73937038 1.75000000 0.23529412 0.23529412 0.24313725
v -4.74515562 7.77937038 1.75000000 0.23529412 0.23529412 0.24313725
v -4.76515562 7.77937038 1.75000000 0.23529412 0.23529412 0.24313725
v -4.76515562 7.73937038 1.75000000 0.23529412 0.23529412 0.24313725
v -4.62194133 7.73937038 0.60000000 0.23529412 0.23529412 0.24313725
v -4.62194133 7.77937038 0.60000000 0.23529412 0.23529412 0.24313725
v -4.64194133 7.77937038 0.60000000 0.23529412 0.23529412 0.24313725
v -4.64194133 7.73937038 0.60000000 0.23529412 0.23529412 0.24313725
v -4.62194133 7.73937038 1.75000000 0.23529412 0.23529412 0.24313725
v -4.62194133 7.77937038 1.75000000 0.23529412 0.23529412 0.24313725
v -4.64194133 7.77937038 1.75000000 0.23529412 0.23529412 0.24313725
v -4.64194133 7.73937038 1.75000000 0.23529412 0.23529412 0.24313725
v -4.49872704 7.73937038 0.60000000 0.23529412 0.23529412 0.24313725
v -4.49872704 7.77937038 0.60000000 0.23529412 0.23529412 0.24313725
v -4.51872704 7.77937038 0.60000000 0.23529412 0.23529412 0.24313725
v -4.51872704 7.73937038 0.60000000 0.23529412 0.23529412 0.24313725
v -4.49872704 7.73937038 1.75000000 0.23529412 0.23529412 0.24313725
v -4.49872704 7.77937038 1.75000000 0.23529412 0.23529412 0.24313725
v -4.51872704 7.77937038 1.75000000 0.23529412 0.23529412 0.24313725
v -4.51872704 7.73937038 1.75000000 0.23529412 0.23529412 0.24313725
v -4.37551276 7.73937038 0.60000000 0.23529412 0.23529412 0.24313725
v -4.37551276 7.77937038 0.60000000 0.23529412 0.23529412 0.24313725
v -4.39551276 7.77937038 0.60000000 0.23529412 0.23529412 0.24313725
v -4.39551276 7.73937038 0.60000000 0.23529412 0.23529412 0.24313725
v -4.37551276 7.73937038 1.75000000 0.23529412 0.23529412 0.24313725
v -4.37551276 7.77937038 1.75000000 0.23529412 0.23529412 0.24313725
v -4.39551276 7.77937038 1.75000000 0.23529412 0.23529412 0.24313725
v -4.39551276 7.73937038 1.75000000 0.23529412 0.23529412 0.24313725
v -4.25229847 7.73937038 0.60000000 0.23529412 0.23529412 0.24313725
v -4.25229847 7.77937038 0.60000000 0.23529412 0.23529412 0.24313725
v -4.27229847 7.77937038 0.60000000 0.23529412 0.23529412 0.24313725
v -4.27229847 7.73937038 0.60000000 0.23529412 0.23529412 0.24313725
v -4.25229847 7.73937038 1.75000000 0.23529412 0.23529412 0.24313725
v -4.25229847 7.77937038 1.75000000 0.23529412 0.23529412 0.24313725
v -4.27229847 7.77937038 1.75000000 0.23529412 0.23529412 0.24313725
v -4.27229847 7.73937038 1.75000000 0.23529412 0.23529412 0.24313725
v -4.12908419 7.73937038 0.60000000 0.23529412 0.23529412 0.24313725
v -4.12908419 7.77937038 0.60000000 0.23529412 0.23529412 0.24313725
v -4.14908419 7.77937038 0.60000000 0.23529412 0.23529412 0.24313725
v -4.14908419 7.73937038 0.60000000 0.23529412 0.23529412 0.24313725
v -4.12908419 7.73937038 1.75000000 0.23529412 0.23529412 0.24313725
v -4.12908419 7.77937038 1.75000000 0.23529412 0.23529412 0.24313725
v -4.14908419 7.77937038 1.75000000 0.23529412 0.23529412 0.24313725
v -4.14908419 7.73937038 1.75000000 0.23529412 0.23529412 0.24313725
v -4.00586990 7.73937038 0.60000000 0.23529412 0.23529412 0.24313725
v -4.00586990 7.77937038 0.60000000 0.23529412 0.23529412 0.24313725
v -4.02586990 7.77937038 0.60000000 0.23529412 0.23529412 0.24313725
v -4.02586990 7.73937038 0.60000000 0.23529412 0.23529412 0.24313725
v -4.00586990 7.73937038 1.75000000 0.23529412 0.23529412 0.24313725
v -4.00586990 7.77937038 1.75000000 0.23529412 0.23529412 0.24313725
v -4.02586990 7.77937038 1.75000000 0.23529412 0.23529412 0.24313725
v -4.02586990 7.73937038 1.75000000 0.23529412 0.23529412 0.24313725
v -3.88265562 7.73937038 0.60000000 0.23529412 0.23529412 0.24313725
v -3.88265562 7.77937038 0.60000000 0.23529412 0.23529412 0.24313725
v -3.90265562 7.77937038 0.60000000 0.23529412 0.23529412 0.24313725
v -3.90265562 7.73937038 0.60000000 0.23529412 0.23529412 0.24313725
v -3.88265562 7.73937038 1.75000000 0.23529412 0.23529412 0.24313725
v -3.88265562 7.77937038 1.75000000 0.23529412 0.23529412 0.24313725
v -3.90265562 7.77937038 1.75000000 0.23529412 0.23529412 0.24313725
v -3.90265562 7.73937038 1.75000000 0.23529412 0.23529412 0.24313725
v -3.75944133 7.73937038 0.60000000 0.23529412 0.23529412 0.24313725
v -3.75944133 7.77937038 0.60000000 0.23529412 0.23529412 0.24313725
v -3.77944133 7.77937038 0.60000000 0.23529412 0.23529412 0.24313725
v -3.77944133 7.73937038 0.60000000 0.23529412 0.23529412 0.24313725
v -3.75944133 7.73937038 1.75000000 0.23529412 0.23529412 0.24313725
v -3.75944133 7.77937038 1.75000000 0.23529412 0.23529412 0.24313725
v -3.77944133 7.77937038 1.75000000 0.23529412 0.23529412 0.24313725
v -3.77944133 7.73937038 1.75000000 0.23529412 0.23529412 0.24313725
v -3.63622704 7.73937038 0.60000000 0.23529412 0.23529412 0.24313725
v -3.63622704 7.77937038 0.60000000 0.23529412 0.23529412 0.24313725
v -3.65622704 7.77937038 0.60000000 0.23529412 0.23529412 0.24313725
v -3.65622704 7.73937038 0.60000000 0.23529412 0.23529412 0.24313725
v -3.63622704 7.73937038 1.75000000 0.23529412 0.23529412 0.24313725
v -3.63622704 7.77937038 1.75000000 0.23529412 0.23529412 0.24313725
v -3.65622704 7.77937038 1.75000000 0.23529412 0.23529412 0.24313725
v -3.65622704 7.73937038 1.75000000 0.23529412 0.23529412 0.24313725
v -3.51301276 7.73937038 0.60000000 0.23529412 0.23529412 0.24313725
v -3.51301276 7.77937038 0.60000000 0.23529412 0.23529412 0.24313725
v -3.53301276 7.77937038 0.60000000 0.23529412 0.23529412 0.24313725
v -3.53301276 7.73937038 0.60000000 0.23529412 0.23529412 0.24313725
v -3.51301276 7.73937038 1.75000000 0.23529412 0.23529412 0.24313725
v -3.51301276 7.77937038 1.75000000 0.23529412 0.23529412 0.24313725
v -3.53301276 7.77937038 1.75000000 0.23529412 0.23529412 0.24313725
v -3.53301276 7.73937038 1.75000000 0.23529412 0.23529412 0.24313725
v -3.38979847 7.73937038 0.60000000 0.23529412 0.23529412 0.24313725
v -3.38979847 7.77937038 0.60000000 0.23529412 0.23529412 0.24313725
v -3.40979847 7.77937038 0.60000000 0.23529412 0.23529412 0.24313725
v -3.40979847 7.73937038 0.60000000 0.23529412 0.23529412 0.24313725
v -3.38979847 7.73937038 1.75000000 0.23529412 0.23529412 0.24313725
v -3.38979847 7.77937038 1.75000000 0.23529412 0.23529412 0.24313725
v -3.40979847 7.77937038 1.75000000 0.23529412 0.23529412 0.24313725
v -3.40979847 7.73937038 1.75000000 0.23529412 0.23529412 0.24313725
v -3.26658419 7.73937038 0.60000000 0.23529412 0.23529412 0.24313725
v -3.26658419 7.77937038 0.60000000 0.23529412 0.23529412 0.24313725
v -3.28658419 7.77937038 0.60000000 0.23529412 0.23529412 0.24313725
v -3.28658419 7.73937038 0.60000000 0.23529412 0.23529412 0.24313725
v -3.26658419 7.73937038 1.75000000 0.23529412 0.23529412 0.24313725
v -3.26658419 7.77937038 1.75000000 0.23529412 0.23529412 0.24313725
v -3.28658419 7.77937038 1.75000000 0.23529412 0.23529412 0.24313725
v -3.28658419 7.73937038 1.75000000 0.23529412 0.23529412 0.24313725
v -3.14336990 7.73937038 0.60000000 0.23529412 0.23529412 0.24313725
v -3.14336990 7.77937038 0.60000000 0.23529412 0.23529412 0.24313725
v -3.16336990 7.77937038 0.60000000 0.23529412 0.23529412 0.24313725
v -3.16336990 7.73937038 0.60000000 0.23529412 0.23529412 0.24313725
v -3.14336990 7.73937038 1.75000000 0.23529412 0.23529412 0.24313725
v -3.14336990 7.77937038 1.75000000 0.23529412 0.23529412 0.24313725
v -3.16336990 7.77937038 1.75000000 0.23529412 0.23529412 0.24313725
v -3.16336990 7.73937038 1.75000000 0.23529412 0.23529412 0.24313725
v -3.02015562 7.73937038 0.60000000 0.23529412 0.23529412 0.24313725
v -3.02015562 7.77937038 0.60000000 0.23529412 0.23529412 0.24313725
v -3.04015562 7.77937038 0.60000000 0.23529412 0.23529412 0.24313725
v -3.04015562 7.73937038 0.60000000 0.23529412 0.23529412 0.24313725
v -3.02015562 7.73937038 1.75000000 0.23529412 0.23529412 0.24313725
v -3.02015562 7.77937038 1.75000000 0.23529412 0.23529412 0.24313725
v -3.04015562 7.77937038 1.75000000 0.23529412 0.23529412 0.24313725
v -3.04015562 7.73937038 1.75000000 0.23529412 0.23529412 0.24313725
v -2.89694133 7.73937038 0.60000000 0.23529412 0.23529412 0.24313725
v -2.89694133 7.77937038 0.60000000 0.23529412 0.23529412 0.24313725
v -2.91694133 7.77937038 0.60000000 0.23529412 0.23529412 0.24313725
v -2.91694133 7.73937038 0.60000000 0.23529412 0.23529412 0.24313725
v -2.89694133 7.73937038 1.75000000 0.23529412 0.23529412 0.24313725
v -2.89694133 7.77937038 1.75000000 0.23529412 0.23529412 0.24313725
v -2.91694133 7.77937038 1.75000000 0.23529412 0.23529412 0.24313725
v -2.91694133 7.73937038 1.75000000 0.23529412 0.23529412 0.24313725
v -2.77372704 7.73937038 0.60000000 0.23529412 0.23529412 0.24313725
v -2.77372704 7.77937038 0.60000000 0.23529412 0.23529412 0.24313725
v -2.79372704 7.77937038 0.60000000 0.23529412 0.23529412 0.24313725
v -2.79372704 7.73937038 0.60000000 0.23529412 0.23529412 0.24313725
v -2.77372704 7.73937038 1.75000000 0.23529412 0.23529412 0.24313725
v -2.77372704 7.77937038 1.75000000 0.23529412 0.23529412 0.24313725
v -2.79372704 7.77937038 1.75000000 0.23529412 0.23529412 0.24313725
v -2.79372704 7.73937038 1.75000000 0.23529412 0.23529412 0.24313725
v -2.65051276 7.73937038 0.60000000 0.23529412 0.23529412 0.24313725
v -2.65051276 7.77937038 0.60000000 0.23529412 0.23529412 0.24313725
v -2.67051276 7.77937038 0.60000000 0.23529412 0.23529412 0.24313725
v -2.67051276 7.73937038 0.60000000 0.23529412 0.23529412 0.24313725
v -2.65051276 7.73937038 1.75000000 0.23529412 0.23529412 0.24313725
v -2.65051276 7.77937038 1.75000000 0.23529412 0.23529412 0.24313725
v -2.67051276 7.77937038 1.75000000 0.23529412 0.23529412 0.24313725
v -2.67051276 7.73937038 1.75000000 0.23529412 0.23529412 0.24313725
v -2.52729847 7.73937038 0.60000000 0.23529412 0.23529412 0.24313725
v -2.52729847 7.77937038 0.60000000 0.23529412 0.23529412 0.24313725
v -2.54729847 7.77937038 0.60000000 0.23529412 0.23529412 0.24313725
v -2.54729847 7.73937038 0.60000000 0.23529412 0.23529412 0.24313725
v -2.52729847 7.73937038 1.75000000 0.23529412 0.23529412 0.24313725
v -2.52729847 7.77937038 1.75000000 0.23529412 0.23529412 0.24313725
v -2.54729847 7.77937038 1.75000000 0.23529412 0.23529412 0.24313725
v -2.54729847 7.73937038 1.75000000 0.23529412 0.23529412 0.24313725
v -2.40408419 7.73937038 0.60000000 0.23529412 0.23529412 0.24313725
v -2.40408419 7.77937038 0.60000000 0.23529412 0.23529412 0.24313725
v -2.42408419 7.77937038 0.60000000 0.23529412 0.23529412 0.24313725
v -2.42408419 7.73937038 0.60000000 0.23529412 0.23529412 0.24313725
v -2.40408419 7.73937038 1.75000000 0.23529412 0.23529412 0.24313725
v -2.40408419 7.77937038 1.75000000 0.23529412 0.23529412 0.24313725
v -2.42408419 7.77937038 1.75000000 0.23529412 0.23529412 0.24313725
v -2.42408419 7.73937038 1.75000000 0.23529412 0.23529412 0.24313725
v -2.28086990 7.73937038 0.60000000 0.23529412 0.23529412 0.24313725
v -2.28086990 7.77937038 0.60000000 0.23529412 0.23529412 0.24313725
v -2.30086990 7.77937038 0.60000000 0.23529412 0.23529412 0.24313725
v -2.30086990 7.73937038 0.60000000 0.23529412 0.23529412 0.24313725
v -2.28086990 7.73937038 1.75000000 0.23529412 0.23529412 0.24313725
v -2.28086990 7.77937038 1.75000000 0.23529412 0.23529412 0.24313725
v -2.30086990 7.77937038 1.75000000 0.23529412 0.23529412 0.24313725
v -2.30086990 7.73937038 1.75000000 0.23529412 0.23529412 0.24313725
v -2.15765562 7.73937038 0.60000000 0.23529412 0.23529412 0.24313725
v -2.15765562 7.77937038 0.60000000 0.23529412 0.23529412 0.24313725
v -2.17765562 7.77937038 0.60000000 0.23529412 0.23529412 0.24313725
v -2.17765562 7.73937038 0.60000000 0.23529412 0.23529412 0.24313725
v -2.15765562 7.73937038 1.75000000 0.23529412 0.23529412 0.24313725
v -2.15765562 7.77937038 1.75000000 0.23529412 0.23529412 0.24313725
v -2.17765562 7.77937038 1.75000000 0.23529412 0.23529412 0.24313725
v -2.17765562 7.73937038 1.75000000 0.23529412 0.23529412 0.24313725
v -2.03444133 7.73937038 0.60000000 0.23529412 0.23529412 0.24313725
v -2.03444133 7.77937038 0.60000000 0.23529412 0.23529412 0.24313725
v -2.05444133 7.77937038 0.60000000 0.23529412 0.23529412 0.24313725
v -2.05444133 7.73937038 0.60000000 0.23529412 0.23529412 0.24313725
v -2.03444133 7.73937038 1.75000000 0.23529412 0.23529412 0.24313725
v -2.03444133 7.77937038 1.75000000 0.23529412 0.23529412 0.24313725
v -2.05444133 7.77937038 1.75000000 0.23529412 0.23529412 0.24313725
v -2.05444133 7.73937038 1.75000000 0.23529412 0.23529412 0.24313725
v -1.91122704 7.73937038 0.60000000 0.23529412 0.23529412 0.24313725
v -1.91122704 7.77937038 0.60000000 0.23529412 0.23529412 0.24313725
v -1.93122704 7.77937038 0.60000000 0.23529412 0.23529412 0.24313725
v -1.93122704 7.73937038 0.60000000 0.23529412 0.23529412 0.24313725
v -1.91122704 7.73937038 1.75000000 0.23529412 0.23529412 0.24313725
v -1.91122704 7.77937038 1.75000000 0.23529412 0.23529412 0.24313725
v -1.93122704 7.77937038 1.75000000 0.23529412 0.23529412 0.24313725
v -1.93122704 7.73937038 1.75000000 0.23529412 0.23529412 0.24313725
v -1.78801276 7.73937038 0.60000000 0.23529412 0.23529412 0.24313725
v -1.78801276 7.77937038 0.60000000 0.23529412 0.23529412 0.24313725
v -1.80801276 7.77937038 0.60000000 0.23529412 0.23529412 0.24313725
v -1.80801276 7.73937038 0.60000000 0.23529412 0.23529412 0.24313725
v -1.78801276 7.73937038 1.75000000 0.23529412 0.23529412 0.24313725
v -1.78801276 7.77937038 1.75000000 0.23529412 0.23529412 0.24313725
v -1.80801276 7.77937038 1.75000000 0.23529412 0.23529412 0.24313725
v -1.80801276 7.73937038 1.75000000 0.23529412 0.23529412 0.24313725
v -1.66479847 7.73937038 0.60000000 0.23529412 0.23529412 0.24313725
v -1.66479847 7.77937038 0.60000000 0.23529412 0.23529412 0.24313725
v -1.68479847 7.77937038 0.60000000 0.23529412 0.23529412 0.24313725
v -1.68479847 7.73937038 0.60000000 0.23529412 0.23529412 0.24313725
v -1.66479847 7.73937038 1.75000000 0.23529412 0.23529412 0.24313725
v -1.66479847 7.77937038 1.75000000 0.23529412 0.23529412 0.24313725
v -1.68479847 7.77937038 1.75000000 0.23529412 0.23529412 0.24313725
v -1.68479847 7.73937038 1.75000000 0.23529412 0.23529412 0.24313725
v -1.54158419 7.73937038 0.60000000 0.23529412 0.23529412 0.24313725
v -1.54158419 7.77937038 0.60000000 0.23529412 0.23529412 0.24313725
v -1.56158419 7.77937038 0.60000000 0.23529412 0.23529412 0.24313725
v -1.56158419 7.73937038 0.60000000 0.23529412 0.23529412 0.24313725
v -1.54158419 7.73937038 1.75000000 0.23529412 0.23529412 0.24313725
v -1.54158419 7.77937038 1.75000000 0.23529412 0.23529412 0.24313725
v -1.56158419 7.77937038 1.75000000 0.23529412 0.23529412 0.24313725
v -1.56158419 7.73937038 1.75000000 0.23529412 0.23529412 0.24313725
v -1.41836990 7.73937038 0.60000000 0.23529412 0.23529412 0.24313725
v -1.41836990 7.77937038 0.60000000 0.23529412 0.23529412 0.24313725
v -1.43836990 7.77937038 0.60000000 0.23529412 0.23529412 0.24313725
v -1.43836990 7.73937038 0.60000000 0.23529412 0.23529412 0.24313725
v -1.41836990 7.73937038 1.75000000 0.23529412 0.23529412 0.24313725
v -1.41836990 7.77937038 1.75000000 0.23529412 0.23529412 0.24313725
v -1.43836990 7.77937038 1.75000000 0.23529412 0.23529412 0.24313725
v -1.43836990 7.73937038 1.75000000 0.23529412 0.23529412 0.24313725
f 2 1 4
f 3 2 4
f 8 5 6
f 8 6 7
f 6 5 2
f 2 5 1
f 7 6 3
f 3 6 2
f 5 8 1
f 1 8 4
f 8 7 4
f 4 7 3
f 10 9 12
f 11 10 12
f 16 13 14
f 16 14 15
f 14 13 10
f 10 13 9
f 15 14 11
f 11 14 10
f 13 16 9
f 9 16 12
f 16 15 12
f 12 15 11
f 18 17 20
f 19 18 20
f 24 21 22
f 24 22 23
f 22 21 18
f 18 21 17
f 23 22 19
f 19 22 18
f 21 24 17
f 17 24 20
f 24 23 20
f 20 23 19
f 26 25 28
f 27 26 28
f 32 29 30
f 32 30 31
f 30 29 26
f 26 29 25
f 31 30 27
f 27 30 26
f 29 32 25
f 25 32 28
f 32 31 28
f 28 31 27
f 34 33 36
f 35 34 36
f 40 37 38
f 40 38 39
f 38 37 34
f 34 37 33
f 39 38 35
f 35 38 34
f 37 40 33
f 33 40 36
f 40 39 36
f 36 39 35
f 42 41 44
f 43 42 44
f 48 45 46
f 48 46 47
f 46 45 42
f 42 45 41
f 47 46 43
f 43 46 42
f 45 48 41
f 41 48 44
f 48 47 44
f 44 47 43
f 50 49 52
f 51 50 52
f 56 53 54
f 56 54 55
f 54 53 50
f 50 53 49
f 55 54 51
f 51 54 50
f 53 56 49
f 49 56 52
f 56 55 52
f 52 55 51
f 58 57 60
f 59 58 60
f 64 61 62
f 64 62 63
f 62 61 58
f 58 61 57
f 63 62 59
f 59 62 58
f 61 64 57
f 57 64 60
f 64 63 60
f 60 63 59
f 66 65 68
f 67 66 68
f 72 69 70
f 72 70 71
f 70 69 66
f 66 69 65
f 71 70 67
f 67 70 66
f 69 72 65
f 65 72 68
f 72 71 68
f 68 71 67
f 74 73 76
f 75 74 76
f 80 77 78
f 80 78 79
f 78 77 74
f 74 77 73
f 79 78 75
f 75 78 74
f 77 80 73
f 73 80 76
f 80 79 76
f 76 79 75
f 82 81 84
f 83 82 84
f 88 85 86
f 88 86 87
f 86 85 82
f 82 85 81
f 87 86 83
f 83 86 82
f 85 88 81
f 81 88 84
f 88 87 84
f 84 87 83
f 90 89 92
f 91 90 92
f 96 93 94
f 96 94 95
f 94 93 90
f 90 93 89
f 95 94 91
f 91 94 90
f 93 96 89
f 89 96 92
f 96 95 92
f 92 95 91
f 98 97 100
f 99 98 100
f 104 101 102
f 104 102 103
f 102 101 98
f 98 101 97
f 103 102 99
f 99 102 98
f 101 104 97
f 97 104 100
f 104 103 100
f 100 103 99
f 106 105 108
f 107 106 108
f 112 109 110
f 112 110 111
f 110 109 106
f 106 109 105
f 111 110 107
f 107 110 106
f 109 112 105
f 105 112 108
f 112 111 108
f 108 111 107
f 114 113 116
f 115 114 116
f 120 117 118
f 120 118 119
f 118 117 114
f 114 117 113
f 119 118 115
f 115 118 114
f 117 120 113
f 113 120 116
f 120 119 116
f 116 119 115
f 122 121 124
f 123 122 124
f 128 125 126
f 128 126 127
f 126 125 122
f 122 125 121
f 127 126 123
f 123 126 122
f 125 128 121
f 121 128 124
f 128 127 124
f 124 127 123
f 130 129 132
f 131 130 132
f 136 133 134
f 136 134 135
f 134 133 130
f 130 133 129
f 135 134 131
f 131 134 130
f 133 136 129
f 129 136 132
f 136 135 132
f 132 135 131
f 138 137 140
f 139 138 140
f 144 141 142
f 144 142 143
f 142 141 138
f 138 141 137
f 143 142 139
f 139 142 138
f 141 144 137
f 137 144 140
f 144 143 140
f 140 143 139
f 146 145 148
f 147 146 148
f 152 149 150
f 152 150 151
f 150 149 146
f 146 149 145
f 151 150 147
f 147 150 146
f 149 152 145
f 145 152 148
f 152 151 148
f 148 151 147
f 154 153 156
f 155 154 156
f 160 157 158
f 160 158 159
f 158 157 154
f 154 157 153
f 159 158 155
f 155 158 154
f 157 160 153
f 153 160 156
f 160 159 156
f 156 159 155
f 162 161 164
f 163 162 164
f 168 165 166
f 168 166 167
f 166 165 162
f 162 165 161
f 167 166 163
f 163 166 162
f 165 168 161
f 161 168 164
f 168 167 164
f 164 167 163
f 170 169 172
f 171 170 172
f 176 173 174
f 176 174 175
f 174 173 170
f 170 173 169
f 175 174 171
f 171 174 170
f 173 176 169
f 169 176 172
f 176 175 172
f 172 175 171
f 178 177 180
f 179 178 180
f 184 181 182
f 184 182 183
f 182 181 178
f 178 181 177
f 183 182 179
f 179 182 178
f 181 184 177
f 177 184 180
f 184 183 180
f 180 183 179
f 186 185 188
f 187 186 188
f 192 189 190
f 192 190 191
f 190 189 186
f 186 189 185
f 191 190 187
f 187 190 186
f 189 192 185
f 185 192 188
f 192 191 188
f 188 191 187
f 194 193 196
f 195 194 196
f 200 197 198
f 200 198 199
f 198 197 194
f 194 197 193
f 199 198 195
f 195 198 194
f 197 200 193
f 193 200 196
f 200 199 196
f 196 199 195
f 202 201 204
f 203 202 204
f 208 205 206
f 208 206 207
f 206 205 202
f 202 205 201
f 207 206 203
f 203 206 202
f 205 208 201
f 201 208 204
f 208 207 204
f 204 207 203
f 210 209 212
f 211 210 212
f 216 213 214
f 216 214 215
f 214 213 210
f 210 213 209
f 215 214 211
f 211 214 210
f 213 216 209
f 209 216 212
f 216 215 212
f 212 215 211
f 218 217 220
f 219 218 220
f 224 221 222
f 224 222 223
f 222 221 218
f 218 221 217
f 223 222 219
f 219 222 218
f 221 224 217
f 217 224 220
f 224 223 220
f 220 223 219
f 226 225 228
f 227 226 228
f 232 229 230
f 232 230 231
f 230 229 226
f 226 229 225
f 231 230 227
f 227 230 226
f 229 232 225
f 225 232 228
f 232 231 228
f 228 231 227
f 234 233 236
f 235 234 236
f 240 237 238
f 240 238 239
f 238 237 234
f 234 237 233
f 239 238 235
f 235 238 234
f 237 240 233
f 233 240 236
f 240 239 236
f 236 239 235
f 242 241 244
f 243 242 244
f 248 245 246
f 248 246 247
f 246 245 242
f 242 245 241
f 247 246 243
f 243 246 242
f 245 248 241
f 241 248 244
f 248 247 244
f 244 247 243
f 250 249 252
f 251 250 252
f 256 253 254
f 256 254 255
f 254 253 250
f 250 253 249
f 255 254 251
f 251 254 250
f 253 256 249
f 249 256 252
f 256 255 252
f 252 255 251
f 258 257 260
f 259 258 260
f 264 261 262
f 264 262 263
f 262 261 258
f 258 261 257
f 263 262 259
f 259 262 258
f 261 264 257
f 257 264 260
f 264 263 260
f 260 263 259
f 266 265 268
f 267 266 268
f 272 269 270
f 272 270 271
f 270 269 266
f 266 269 265
f 271 270 267
f 267 270 266
f 269 272 265
f 265 272 268
f 272 271 268
f 268 271 267
f 274 273 276
f 275 274 276
f 280 277 278
f 280 278 279
f 278 277 274
f 274 277 273
f 279 278 275
f 275 278 274
f 277 280 273
f 273 280 276
f 280 279 276
f 276 279 275
f 282 281 284
f 283 282 284
f 288 285 286
f 288 286 287
f 286 285 282
f 282 285 281
f 287 286 283
f 283 286 282
f 285 288 281
f 281 288 284
f 288 287 284
f 284 287 283
f 290 289 292
f 291 290 292
f 296 293 294
f 296 294 295
f 294 293 290
f 290 293 289
f 295 294 291
f 291 294 290
f 293 296 289
f 289 296 292
f 296 295 292
f 292 295 291
f 298 297 300
f 299 298 300
f 304 301 302
f 304 302 303
f 302 301 298
f 298 301 297
f 303 302 299
f 299 302 298
f 301 304 297
f 297 304 300
f 304 303 300
f 300 303 299
f 306 305 308
f 307 306 308
f 312 309 310
f 312 310 311
f 310 309 306
f 306 309 305
f 311 310 307
f 307 310 306
f 309 312 305
f 305 312 308
f 312 311 308
f 308 311 307
f 314 313 316
f 315 314 316
f 320 317 318
f 320 318 319
f 318 317 314
f 314 317 313
f 319 318 315
f 315 318 314
f 317 320 313
f 313 320 316
f 320 319 316
f 316 319 315
f 322 321 324
f 323 322 324
f 328 325 326
f 328 326 327
f 326 325 322
f 322 325 321
f 327 326 323
f 323 326 322
f 325 328 321
f 321 328 324
f 328 327 324
f 324 327 323
f 330 329 332
f 331 330 332
f 336 333 334
f 336 334 335
f 334 333 330
f 330 333 329
f 335 334 331
f 331 334 330
f 333 336 329
f 329 336 332
f 336 335 332
f 332 335 331
f 338 337 340
f 339 338 340
f 344 341 342
f 344 342 343
f 342 341 338
f 338 341 337
f 343 342 339
f 339 342 338
f 341 344 337
f 337 344 340
f 344 343 340
f 340 343 339
f 346 345 348
f 347 346 348
f 352 349 350
f 352 350 351
f 350 349 346
f 346 349 345
f 351 350 347
f 347 350 346
f 349 352 345
f 345 352 348
f 352 351 348
f 348 351 347
f 354 353 356
f 355 354 356
f 360 357 358
f 360 358 359
f 358 357 354
f 354 357 353
f 359 358 355
f 355 358 354
f 357 360 353
f 353 360 356
f 360 359 356
f 356 359 355
f 362 361 364
f 363 362 364
f 368 365 366
f 368 366 367
f 366 365 362
f 362 365 361
f 367 366 363
f 363 366 362
f 365 368 361
f 361 368 364
f 368 367 364
f 364 367 363
f 370 369 372
f 371 370 372
f 376 373 374
f 376 374 375
f 374 373 370
f 370 373 369
f 375 374 371
f 371 374 370
f 373 376 369
f 369 376 372
f 376 375 372
f 372 375 371
f 378 377 380
f 379 378 380
f 384 381 382
f 384 382 383
f 382 381 378
f 378 381 377
f 383 382 379
f 379 382 378
f 381 384 377
f 377 384 380
f 384 383 380
f 380 383 379
f 386 385 388
f 387 386 388
f 392 389 390
f 392 390 391
f 390 389 386
f 386 389 385
f 391 390 387
f 387 390 386
f 389 392 385
f 385 392 388
f 392 391 388
f 388 391 387
f 394 393 396
f 395 394 396
f 400 397 398
f 400 398 399
f 398 397 394
f 394 397 393
f 399 398 395
f 395 398 394
f 397 400 393
f 393 400 396
f 400 399 396
f 396 399 395
f 402 401 404
f 403 402 404
f 408 405 406
f 408 406 407
f 406 405 402
f 402 405 401
f 407 406 403
f 403 406 402
f 405 408 401
f 401 408 404
f 408 407 404
f 404 407 403
f 410 409 412
f 411 410 412
f 416 413 414
f 416 414 415
f 414 413 410
f 410 413 409
f 415 414 411
f 411 414 410
f 413 416 409
f 409 416 412
f 416 415 412
f 412 415 411

