# https://github.com/mikedh/trimesh
v -6.37500000 -8.70000002 3.50000000 0.65882353 0.29019608 0.18039216
v 6.37500000 -8.70000002 3.50000000 0.65882353 0.29019608 0.18039216
v 6.37500000 8.70000002 3.50000000 0.65882353 0.29019608 0.18039216
v -6.37500000 8.70000002 3.50000000 0.65882353 0.29019608 0.18039216
v 0.00000000 -2.32500002 6.05000000 0.65882353 0.29019608 0.18039216
v 0.00000000 2.32500002 6.05000000 0.65882353 0.29019608 0.18039216
v -6.37500000 -8.70000002 3.32000000 0.65882353 0.29019608 0.18039216
v 6.37500000 -8.70000002 3.32000000 0.65882353 0.29019608 0.18039216
v 6.37500000 8.70000002 3.32000000 0.65882353 0.29019608 0.18039216
v -6.37500000 8.70000002 3.32000000 0.65882353 0.29019608 0.18039216
v 0.00000000 -2.32500002 5.87000000 0.65882353 0.29019608 0.18039216
v 0.00000000 2.32500002 5.87000000 0.65882353 0.29019608 0.18039216
f 1 2 5
f 2 3 6
f 2 6 5
f 3 4 6
f 4 1 5
f 4 5 6
f 7 11 8
f 8 12 9
f 8 11 12
f 9 12 10
f 10 11 7
f 10 12 11
f 1 8 2
f 1 7 8
f 2 9 3
f 2 8 9
f 3 10 4
f 3 9 10
f 4 7 1
f 4 10 7

