# https://github.com/mikedh/trimesh
v -4.64500000 -1.16429304 0.60000000 0.96078431 0.96078431 0.96078431
v -4.64500000 -0.28466925 0.60000000 0.96078431 0.96078431 0.96078431
v -5.13000000 -0.28466925 0.60000000 0.96078431 0.96078431 0.96078431
v -5.13000000 -1.16429304 0.60000000 0.96078431 0.96078431 0.96078431
v -4.64500000 -1.16429304 1.52000000 0.96078431 0.96078431 0.96078431
v -4.64500000 -0.28466925 1.52000000 0.96078431 0.96078431 0.96078431
v -5.13000000 -0.28466925 1.52000000 0.96078431 0.96078431 0.96078431
v -5.13000000 -1.16429304 1.52000000 0.96078431 0.96078431 0.96078431
v -0.52714972 -5.11217325 0.60000000 0.96078431 0.96078431 0.96078431
v -0.52714972 -4.73551849 0.60000000 0.96078431 0.96078431 0.96078431
v -0.93073972 -4.73551849 0.60000000 0.96078431 0.96078431 0.96078431
v -0.93073972 -5.11217325 0.60000000 0.96078431 0.96078431 0.96078431
v -0.52714972 -5.11217325 1.45000000 0.96078431 0.96078431 0.96078431
v -0.52714972 -4.73551849 1.45000000 0.96078431 0.96078431 0.96078431
v -0.93073972 -4.73551849 1.45000000 0.96078431 0.96078431 0.96078431
v -0.93073972 -5.11217325 1.45000000 0.96078431 0.96078431 0.96078431
v 3.90217429 2.63735578 0.60000000 0.96078431 0.96078431 0.96078431
v 3.90217429 3.15127596 0.60000000 0.96078431 0.96078431 0.96078431
v 3.58217367 3.15127596 0.60000000 0.96078431 0.96078431 0.96078431
v 3.58217367 2.63735578 0.60000000 0.96078431 0.96078431 0.96078431
v 3.90217429 2.63735578 1.00000000 0.96078431 0.96078431 0.96078431
v 3.90217429 3.15127596 1.00000000 0.96078431 0.96078431 0.96078431
v 3.58217367 3.15127596 1.00000000 0.96078431 0.96078431 0.96078431
v 3.58217367 2.63735578 1.00000000 0.96078431 0.96078431 0.96078431
v 3.10663816 2.64592901 0.60000000 0.96078431 0.96078431 0.96078431
v 3.10663816 3.04926117 0.60000000 0.96078431 0.96078431 0.96078431
v 2.72979519 3.04926117 0.60000000 0.96078431 0.96078431 0.96078431
v 2.72979519 2.64592901 0.60000000 0.96078431 0.96078431 0.96078431
v 3.10663816 2.64592901 1.45000000 0.96078431 0.96078431 0.96078431
v 3.10663816 3.04926117 1.45000000 0.96078431 0.96078431 0.96078431
v 2.72979519 3.04926117 1.45000000 0.96078431 0.96078431 0.96078431
v 2.72979519 2.64592901 1.45000000 0.96078431 0.96078431 0.96078431
v 3.75377325 1.92023458 0.60000000 0.96078431 0.96078431 0.96078431
v 3.75377325 2.43415477 0.60000000 0.96078431 0.96078431 0.96078431
v 3.43377263 2.43415477 0.60000000 0.96078431 0.96078431 0.96078431
v 3.43377263 1.92023458 0.60000000 0.96078431 0.96078431 0.96078431
v 3.75377325 1.92023458 1.00000000 0.96078431 0.96078431 0.96078431
v 3.75377325 2.43415477 1.00000000 0.96078431 0.96078431 0.96078431
v 3.43377263 2.43415477 1.00000000 0.96078431 0.96078431 0.96078431
v 3.43377263 1.92023458 1.00000000 0.96078431 0.96078431 0.96078431
v 3.10663816 0.45439693 0.60000000 0.96078431 0.96078431 0.96078431
v 3.10663816 0.85772908 0.60000000 0.96078431 0.96078431 0.96078431
v 2.72979519 0.85772908 0.60000000 0.96078431 0.96078431 0.96078431
v 2.72979519 0.45439693 0.60000000 0.96078431 0.96078431 0.96078431
v 3.10663816 0.45439693 1.45000000 0.96078431 0.96078431 0.96078431
v 3.10663816 0.85772908 1.45000000 0.96078431 0.96078431 0.96078431
v 2.72979519 0.85772908 1.45000000 0.96078431 0.96078431 0.96078431
v 2.72979519 0.45439693 1.45000000 0.96078431 0.96078431 0.96078431
f 2 1 4
f 3 2 4
f 8 5 6
f 8 6 7
f 6 5 2
f 2 5 1
f 7 6 3
f 3 6 2
f 5 8 1
f 1 8 4
f 8 7 4
f 4 7 3
f 10 9 12
f 11 10 12
f 16 13 14
f 16 14 15
f 14 13 10
f 10 13 9
f 15 14 11
f 11 14 10
f 13 16 9
f 9 16 12
f 16 15 12
f 12 15 11
f 18 17 20
f 19 18 20
f 24 21 22
f 24 22 23
f 22 21 18
f 18 21 17
f 23 22 19
f 19 22 18
f 21 24 17
f 17 24 20
f 24 23 20
f 20 23 19
f 26 25 28
f 27 26 28
f 32 29 30
f 32 30 31
f 30 29 26
f 26 29 25
f 31 30 27
f 27 30 26
f 29 32 25
f 25 32 28
f 32 31 28
f 28 31 27
f 34 33 36
f 35 34 36
f 40 37 38
f 40 38 39
f 38 37 34
f 34 37 33
f 39 38 35
f 35 38 34
f 37 40 33
f 33 40 36
f 40 39 36
f 36 39 35
f 42 41 44
f 43 42 44
f 48 45 46
f 48 46 47
f 46 45 42
f 42 45 41
f 47 46 43
f 43 46 42
f 45 48 41
f 41 48 44
f 48 47 44
f 44 47 43

