# https://github.com/mikedh/trimesh
v 5.47500000 -7.80000002 3.35000000 0.88235294 0.86274510 0.82352941
v 5.47500000 7.80000002 3.35000000 0.88235294 0.86274510 0.82352941
v -5.47500000 7.80000002 3.35000000 0.88235294 0.86274510 0.82352941
v -5.47500000 -7.80000002 3.35000000 0.88235294 0.86274510 0.82352941
v 5.47500000 -7.80000002 3.50000000 0.88235294 0.86274510 0.82352941
v 5.47500000 7.80000002 3.50000000 0.88235294 0.86274510 0.82352941
v -5.47500000 7.80000002 3.50000000 0.88235294 0.86274510 0.82352941
v -5.47500000 -7.80000002 3.50000000 0.88235294 0.86274510 0.82352941
f 2 1 4
f 3 2 4
f 8 5 6
f 8 6 7
f 6 5 2
f 2 5 1
f 7 6 3
f 3 6 2
f 5 8 1
f 1 8 4
f 8 7 4
f 4 7 3

