# https://github.com/mikedh/trimesh
v -1.83988684 1.08366300 0.60000000 0.47058824 0.50980392 0.54901961
v -1.83988684 1.89366300 0.60000000 0.47058824 0.50980392 0.54901961
v -4.09988684 1.89366300 0.60000000 0.47058824 0.50980392 0.54901961
v -4.09988684 1.08366300 0.60000000 0.47058824 0.50980392 0.54901961
v -1.83988684 1.08366300 1.40000000 0.47058824 0.50980392 0.54901961
v -1.83988684 1.89366300 1.40000000 0.47058824 0.50980392 0.54901961
v -4.09988684 1.89366300 1.40000000 0.47058824 0.50980392 0.54901961
v -4.09988684 1.08366300 1.40000000 0.47058824 0.50980392 0.54901961
v -4.34500000 2.17541013 0.60000000 0.47058824 0.50980392 0.54901961
v -4.34500000 4.43541013 0.60000000 0.47058824 0.50980392 0.54901961
v -5.15500000 4.43541013 0.60000000 0.47058824 0.50980392 0.54901961
v -5.15500000 2.17541013 0.60000000 0.47058824 0.50980392 0.54901961
v -4.34500000 2.17541013 1.40000000 0.47058824 0.50980392 0.54901961
v -4.34500000 4.43541013 1.40000000 0.47058824 0.50980392 0.54901961
v -5.15500000 4.43541013 1.40000000 0.47058824 0.50980392 0.54901961
v -5.15500000 2.17541013 1.40000000 0.47058824 0.50980392 0.54901961
f 2 1 4
f 3 2 4
f 8 5 6
f 8 6 7
f 6 5 2
f 2 5 1
f 7 6 3
f 3 6 2
f 5 8 1
f 1 8 4
f 8 7 4
f 4 7 3
f 10 9 12
f 11 10 12
f 16 13 14
f 16 14 15
f 14 13 10
f 10 13 9
f 15 14 11
f 11 14 10
f 13 16 9
f 9 16 12
f 16 15 12
f 12 15 11

