# https://github.com/mikedh/trimesh
v 5.22500000 2.85999998 0.60000000 0.92549020 0.90196078 0.85490196
v 5.47500000 2.85999998 0.60000000 0.92549020 0.90196078 0.85490196
v 5.47500000 2.73999998 0.60000000 0.92549020 0.90196078 0.85490196
v 5.22500000 2.73999998 0.60000000 0.92549020 0.90196078 0.85490196
v 5.22500000 2.85999998 3.35000000 0.92549020 0.90196078 0.85490196
v 5.47500000 2.85999998 3.35000000 0.92549020 0.90196078 0.85490196
v 5.47500000 2.73999998 3.35000000 0.92549020 0.90196078 0.85490196
v 5.22500000 2.73999998 3.35000000 0.92549020 0.90196078 0.85490196
v 5.22500000 1.00999998 0.60000000 0.92549020 0.90196078 0.85490196
v 5.47500000 1.00999998 0.60000000 0.92549020 0.90196078 0.85490196
v 5.47500000 0.53999998 0.60000000 0.92549020 0.90196078 0.85490196
v 5.22500000 0.53999998 0.60000000 0.92549020 0.90196078 0.85490196
v 5.22500000 1.00999998 3.35000000 0.92549020 0.90196078 0.85490196
v 5.47500000 1.00999998 3.35000000 0.92549020 0.90196078 0.85490196
v 5.47500000 0.53999998 3.35000000 0.92549020 0.90196078 0.85490196
v 5.22500000 0.53999998 3.35000000 0.92549020 0.90196078 0.85490196
v 5.22500000 -7.06000002 0.60000000 0.92549020 0.90196078 0.85490196
v 5.22500000 -4.64000002 0.60000000 0.92549020 0.90196078 0.85490196
v 5.47500000 -4.64000002 0.60000000 0.92549020 0.90196078 0.85490196
v 5.47500000 -7.06000002 0.60000000 0.92549020 0.90196078 0.85490196
v 5.22500000 -7.06000002 3.35000000 0.92549020 0.90196078 0.85490196
v 5.22500000 -4.64000002 3.35000000 0.92549020 0.90196078 0.85490196
v 5.47500000 -4.64000002 3.35000000 0.92549020 0.90196078 0.85490196
v 5.47500000 -7.06000002 3.35000000 0.92549020 0.90196078 0.85490196
v 5.47500000 4.23999998 0.60000000 0.92549020 0.90196078 0.85490196
v 5.22500000 4.23999998 0.60000000 0.92549020 0.90196078 0.85490196
v 5.22500000 7.35999998 0.60000000 0.92549020 0.90196078 0.85490196
v 5.47500000 7.35999998 0.60000000 0.92549020 0.90196078 0.85490196
v 5.47500000 4.23999998 3.35000000 0.92549020 0.90196078 0.85490196
v 5.22500000 4.23999998 3.35000000 0.92549020 0.90196078 0.85490196
v 5.22500000 7.35999998 3.35000000 0.92549020 0.90196078 0.85490196
v 5.47500000 7.35999998 3.35000000 0.92549020 0.90196078 0.85490196
v 5.47500000 3.73999998 0.60000000 0.92549020 0.90196078 0.85490196
v 5.22500000 3.73999998 0.60000000 0.92549020 0.90196078 0.85490196
v 5.22500000 3.85999998 0.60000000 0.92549020 0.90196078 0.85490196
v 5.47500000 3.85999998 0.60000000 0.92549020 0.90196078 0.85490196
v 5.47500000 3.73999998 3.35000000 0.92549020 0.90196078 0.85490196
v 5.22500000 3.73999998 3.35000000 0.92549020 0.90196078 0.85490196
v 5.22500000 3.85999998 3.35000000 0.92549020 0.90196078 0.85490196
v 5.47500000 3.85999998 3.35000000 0.92549020 0.90196078 0.85490196
v 5.47500000 -0.91000002 0.60000000 0.92549020 0.90196078 0.85490196
v 5.22500000 -0.91000002 0.60000000 0.92549020 0.90196078 0.85490196
v 5.22500000 0.15999998 0.60000000 0.92549020 0.90196078 0.85490196
v 5.47500000 0.15999998 0.60000000 0.92549020 0.90196078 0.85490196
v 5.47500000 -0.91000002 3.35000000 0.92549020 0.90196078 0.85490196
v 5.22500000 -0.91000002 3.35000000 0.92549020 0.90196078 0.85490196
v 5.22500000 0.15999998 3.35000000 0.92549020 0.90196078 0.85490196
v 5.47500000 0.15999998 3.35000000 0.92549020 0.90196078 0.85490196
v 5.47500000 -2.69000002 0.60000000 0.92549020 0.90196078 0.85490196
v 5.47500000 -3.76000002 0.60000000 0.92549020 0.90196078 0.85490196
v 5.22500000 -3.76000002 0.60000000 0.92549020 0.90196078 0.85490196
v 5.22500000 -2.69000002 0.60000000 0.92549020 0.90196078 0.85490196
v 5.47500000 -2.69000002 3.35000000 0.92549020 0.90196078 0.85490196
v 5.47500000 -3.76000002 3.35000000 0.92549020 0.90196078 0.85490196
v 5.22500000 -3.76000002 3.35000000 0.92549020 0.90196078 0.85490196
v 5.22500000 -2.69000002 3.35000000 0.92549020 0.90196078 0.85490196
v 1.62500000 -0.31000002 0.60000000 0.92549020 0.90196078 0.85490196
v 1.52500000 -0.31000002 0.60000000 0.92549020 0.90196078 0.85490196
v 1.52500000 0.85999998 0.60000000 0.92549020 0.90196078 0.85490196
v 1.62500000 0.85999998 0.60000000 0.92549020 0.90196078 0.85490196
v 1.62500000 0.39999998 0.60000000 0.92549020 0.90196078 0.85490196
v 5.08500000 0.39999998 0.60000000 0.92549020 0.90196078 0.85490196
v 5.08500000 0.29999998 0.60000000 0.92549020 0.90196078 0.85490196
v 1.62500000 0.29999998 0.60000000 0.92549020 0.90196078 0.85490196
v 1.62500000 -0.31000002 3.35000000 0.92549020 0.90196078 0.85490196
v 1.52500000 -0.31000002 3.35000000 0.92549020 0.90196078 0.85490196
v 1.52500000 0.85999998 3.35000000 0.92549020 0.90196078 0.85490196
v 1.62500000 0.85999998 3.35000000 0.92549020 0.90196078 0.85490196
v 1.62500000 0.39999998 3.35000000 0.92549020 0.90196078 0.85490196
v 5.08500000 0.39999998 3.35000000 0.92549020 0.90196078 0.85490196
v 5.08500000 0.29999998 3.35000000 0.92549020 0.90196078 0.85490196
v 1.62500000 0.29999998 3.35000000 0.92549020 0.90196078 0.85490196
v 3.51500000 3.99999998 0.60000000 0.92549020 0.90196078 0.85490196
v 3.51500000 4.09999998 0.60000000 0.92549020 0.90196078 0.85490196
v 5.08500000 4.09999998 0.60000000 0.92549020 0.90196078 0.85490196
v 5.08500000 3.99999998 0.60000000 0.92549020 0.90196078 0.85490196
v 3.51500000 3.99999998 3.35000000 0.92549020 0.90196078 0.85490196
v 3.51500000 4.09999998 3.35000000 0.92549020 0.90196078 0.85490196
v 5.08500000 4.09999998 3.35000000 0.92549020 0.90196078 0.85490196
v 5.08500000 3.99999998 3.35000000 0.92549020 0.90196078 0.85490196
v 1.96500000 2.59999998 0.60000000 0.92549020 0.90196078 0.85490196
v 2.32500000 2.59999998 0.60000000 0.92549020 0.90196078 0.85490196
v 2.32500000 3.95999998 0.60000000 0.92549020 0.90196078 0.85490196
v 2.42500000 3.95999998 0.60000000 0.92549020 0.90196078 0.85490196
v 2.42500000 2.59999998 0.60000000 0.92549020 0.90196078 0.85490196
v 5.03500000 2.59999998 0.60000000 0.92549020 0.90196078 0.85490196
v 5.03500000 2.49999998 0.60000000 0.92549020 0.90196078 0.85490196
v 1.96500000 2.49999998 0.60000000 0.92549020 0.90196078 0.85490196
v 1.96500000 2.59999998 3.35000000 0.92549020 0.90196078 0.85490196
v 2.32500000 2.59999998 3.35000000 0.92549020 0.90196078 0.85490196
v 2.32500000 3.95999998 3.35000000 0.92549020 0.90196078 0.85490196
v 2.42500000 3.95999998 3.35000000 0.92549020 0.90196078 0.85490196
v 2.42500000 2.59999998 3.35000000 0.92549020 0.90196078 0.85490196
v 5.03500000 2.59999998 3.35000000 0.92549020 0.90196078 0.85490196
v 5.03500000 2.49999998 3.35000000 0.92549020 0.90196078 0.85490196
v 1.96500000 2.49999998 3.35000000 0.92549020 0.90196078 0.85490196
v 3.71500000 -7.55000002 0.60000000 0.92549020 0.90196078 0.85490196
v 5.03500000 -7.55000002 0.60000000 0.92549020 0.90196078 0.85490196
v 5.03500000 -7.80000002 0.60000000 0.92549020 0.90196078 0.85490196
v 3.71500000 -7.80000002 0.60000000 0.92549020 0.90196078 0.85490196
v 3.71500000 -7.55000002 3.35000000 0.92549020 0.90196078 0.85490196
v 5.03500000 -7.55000002 3.35000000 0.92549020 0.90196078 0.85490196
v 5.03500000 -7.80000002 3.35000000 0.92549020 0.90196078 0.85490196
v 3.71500000 -7.80000002 3.35000000 0.92549020 0.90196078 0.85490196
v 1.73500000 -3.75000002 0.60000000 0.92549020 0.90196078 0.85490196
v 1.77500000 -3.75000002 0.60000000 0.92549020 0.90196078 0.85490196
v 1.77500000 -3.79000002 0.60000000 0.92549020 0.90196078 0.85490196
v 1.87500000 -3.79000002 0.60000000 0.92549020 0.90196078 0.85490196
v 1.87500000 -3.90000002 0.60000000 0.92549020 0.90196078 0.85490196
v 5.03500000 -3.90000002 0.60000000 0.92549020 0.90196078 0.85490196
v 5.03500000 -4.00000002 0.60000000 0.92549020 0.90196078 0.85490196
v 1.61500000 -4.00000002 0.60000000 0.92549020 0.90196078 0.85490196
v 1.61500000 -3.86000002 0.60000000 0.92549020 0.90196078 0.85490196
v 1.52500000 -3.86000002 0.60000000 0.92549020 0.90196078 0.85490196
v 1.52500000 -1.49000002 0.60000000 0.92549020 0.90196078 0.85490196
v 1.62500000 -1.49000002 0.60000000 0.92549020 0.90196078 0.85490196
v 1.62500000 -3.65000002 0.60000000 0.92549020 0.90196078 0.85490196
v 1.73500000 -3.65000002 0.60000000 0.92549020 0.90196078 0.85490196
v 1.73500000 -3.75000002 3.35000000 0.92549020 0.90196078 0.85490196
v 1.77500000 -3.75000002 3.35000000 0.92549020 0.90196078 0.85490196
v 1.77500000 -3.79000002 3.35000000 0.92549020 0.90196078 0.85490196
v 1.87500000 -3.79000002 3.35000000 0.92549020 0.90196078 0.85490196
v 1.87500000 -3.90000002 3.35000000 0.92549020 0.90196078 0.85490196
v 5.03500000 -3.90000002 3.35000000 0.92549020 0.90196078 0.85490196
v 5.03500000 -4.00000002 3.35000000 0.92549020 0.90196078 0.85490196
v 1.61500000 -4.00000002 3.35000000 0.92549020 0.90196078 0.85490196
v 1.61500000 -3.86000002 3.35000000 0.92549020 0.90196078 0.85490196
v 1.52500000 -3.86000002 3.35000000 0.92549020 0.90196078 0.85490196
v 1.52500000 -1.49000002 3.35000000 0.92549020 0.90196078 0.85490196
v 1.62500000 -1.49000002 3.35000000 0.92549020 0.90196078 0.85490196
v 1.62500000 -3.65000002 3.35000000 0.92549020 0.90196078 0.85490196
v 1.73500000 -3.65000002 3.35000000 0.92549020 0.90196078 0.85490196
v 4.73500000 7.54999998 0.60000000 0.92549020 0.90196078 0.85490196
v 4.16500000 7.54999998 0.60000000 0.92549020 0.90196078 0.85490196
v 4.16500000 7.79999998 0.60000000 0.92549020 0.90196078 0.85490196
v 4.73500000 7.79999998 0.60000000 0.92549020 0.90196078 0.85490196
v 4.73500000 7.54999998 3.35000000 0.92549020 0.90196078 0.85490196
v 4.16500000 7.54999998 3.35000000 0.92549020 0.90196078 0.85490196
v 4.16500000 7.79999998 3.35000000 0.92549020 0.90196078 0.85490196
v 4.73500000 7.79999998 3.35000000 0.92549020 0.90196078 0.85490196
v 1.93500000 -7.55000002 0.60000000 0.92549020 0.90196078 0.85490196
v 1.93500000 -7.80000002 0.60000000 0.92549020 0.90196078 0.85490196
v 1.06500000 -7.80000002 0.60000000 0.92549020 0.90196078 0.85490196
v 1.06500000 -7.55000002 0.60000000 0.92549020 0.90196078 0.85490196
v 1.93500000 -7.55000002 3.35000000 0.92549020 0.90196078 0.85490196
v 1.93500000 -7.80000002 3.35000000 0.92549020 0.90196078 0.85490196
v 1.06500000 -7.80000002 3.35000000 0.92549020 0.90196078 0.85490196
v 1.06500000 -7.55000002 3.35000000 0.92549020 0.90196078 0.85490196
v 1.38500000 7.54999998 0.60000000 0.92549020 0.90196078 0.85490196
v 0.81500000 7.54999998 0.60000000 0.92549020 0.90196078 0.85490196
v 0.81500000 7.79999998 0.60000000 0.92549020 0.90196078 0.85490196
v 1.38500000 7.79999998 0.60000000 0.92549020 0.90196078 0.85490196
v 1.38500000 7.54999998 3.35000000 0.92549020 0.90196078 0.85490196
v 0.81500000 7.54999998 3.35000000 0.92549020 0.90196078 0.85490196
v 0.81500000 7.79999998 3.35000000 0.92549020 0.90196078 0.85490196
v 1.38500000 7.79999998 3.35000000 0.92549020 0.90196078 0.85490196
v 0.42500000 -7.36000002 0.60000000 0.92549020 0.90196078 0.85490196
v 0.32500000 -7.36000002 0.60000000 0.92549020 0.90196078 0.85490196
v 0.32500000 -4.64000002 0.60000000 0.92549020 0.90196078 0.85490196
v 0.42500000 -4.64000002 0.60000000 0.92549020 0.90196078 0.85490196
v 0.42500000 -7.36000002 3.35000000 0.92549020 0.90196078 0.85490196
v 0.32500000 -7.36000002 3.35000000 0.92549020 0.90196078 0.85490196
v 0.32500000 -4.64000002 3.35000000 0.92549020 0.90196078 0.85490196
v 0.42500000 -4.64000002 3.35000000 0.92549020 0.90196078 0.85490196
v 0.22500000 -1.96000002 0.60000000 0.92549020 0.90196078 0.85490196
v 0.22500000 4.65999998 0.60000000 0.92549020 0.90196078 0.85490196
v 0.32500000 4.65999998 0.60000000 0.92549020 0.90196078 0.85490196
v 0.32500000 2.59999998 0.60000000 0.92549020 0.90196078 0.85490196
v 0.33500000 2.59999998 0.60000000 0.92549020 0.90196078 0.85490196
v 0.33500000 2.49999998 0.60000000 0.92549020 0.90196078 0.85490196
v 0.32500000 2.49999998 0.60000000 0.92549020 0.90196078 0.85490196
v 0.32500000 -1.96000002 0.60000000 0.92549020 0.90196078 0.85490196
v 0.22500000 -1.96000002 3.35000000 0.92549020 0.90196078 0.85490196
v 0.22500000 4.65999998 3.35000000 0.92549020 0.90196078 0.85490196
v 0.32500000 4.65999998 3.35000000 0.92549020 0.90196078 0.85490196
v 0.32500000 2.59999998 3.35000000 0.92549020 0.90196078 0.85490196
v 0.33500000 2.59999998 3.35000000 0.92549020 0.90196078 0.85490196
v 0.33500000 2.49999998 3.35000000 0.92549020 0.90196078 0.85490196
v 0.32500000 2.49999998 3.35000000 0.92549020 0.90196078 0.85490196
v 0.32500000 -1.96000002 3.35000000 0.92549020 0.90196078 0.85490196
v 0.07500000 5.23999998 0.60000000 0.92549020 0.90196078 0.85490196
v 0.07500000 7.35999998 0.60000000 0.92549020 0.90196078 0.85490196
v 0.32500000 7.35999998 0.60000000 0.92549020 0.90196078 0.85490196
v 0.32500000 5.23999998 0.60000000 0.92549020 0.90196078 0.85490196
v 0.07500000 5.23999998 3.35000000 0.92549020 0.90196078 0.85490196
v 0.07500000 7.35999998 3.35000000 0.92549020 0.90196078 0.85490196
v 0.32500000 7.35999998 3.35000000 0.92549020 0.90196078 0.85490196
v 0.32500000 5.23999998 3.35000000 0.92549020 0.90196078 0.85490196
v 0.18500000 -7.80000002 0.60000000 0.92549020 0.90196078 0.85490196
v 0.11500000 -7.80000002 0.60000000 0.92549020 0.90196078 0.85490196
v 0.11500000 -7.55000002 0.60000000 0.92549020 0.90196078 0.85490196
v 0.18500000 -7.55000002 0.60000000 0.92549020 0.90196078 0.85490196
v 0.18500000 -7.80000002 3.35000000 0.92549020 0.90196078 0.85490196
v 0.11500000 -7.80000002 3.35000000 0.92549020 0.90196078 0.85490196
v 0.11500000 -7.55000002 3.35000000 0.92549020 0.90196078 0.85490196
v 0.18500000 -7.55000002 3.35000000 0.92549020 0.90196078 0.85490196
v -1.58500000 -2.70000002 0.60000000 0.92549020 0.90196078 0.85490196
v -1.58500000 -2.60000002 0.60000000 0.92549020 0.90196078 0.85490196
v -0.11500000 -2.60000002 0.60000000 0.92549020 0.90196078 0.85490196
v -0.11500000 -2.70000002 0.60000000 0.92549020 0.90196078 0.85490196
v -1.58500000 -2.70000002 3.35000000 0.92549020 0.90196078 0.85490196
v -1.58500000 -2.60000002 3.35000000 0.92549020 0.90196078 0.85490196
v -0.11500000 -2.60000002 3.35000000 0.92549020 0.90196078 0.85490196
v -0.11500000 -2.70000002 3.35000000 0.92549020 0.90196078 0.85490196
v -0.71500000 -5.70000002 0.60000000 0.92549020 0.90196078 0.85490196
v -0.71500000 -5.80000002 0.60000000 0.92549020 0.90196078 0.85490196
v -0.97500000 -5.80000002 0.60000000 0.92549020 0.90196078 0.85490196
v -0.97500000 -7.41000002 0.60000000 0.92549020 0.90196078 0.85490196
v -1.07500000 -7.41000002 0.60000000 0.92549020 0.90196078 0.85490196
v -1.07500000 -4.55000002 0.60000000 0.92549020 0.90196078 0.85490196
v -1.61000000 -4.55000002 0.60000000 0.92549020 0.90196078 0.85490196
v -1.61000000 -4.45000002 0.60000000 0.92549020 0.90196078 0.85490196
v -1.07500000 -4.45000002 0.60000000 0.92549020 0.90196078 0.85490196
v -1.07500000 -4.04000002 0.60000000 0.92549020 0.90196078 0.85490196
v -0.97500000 -4.04000002 0.60000000 0.92549020 0.90196078 0.85490196
v -0.97500000 -5.70000002 0.60000000 0.92549020 0.90196078 0.85490196
v -0.71500000 -5.70000002 3.35000000 0.92549020 0.90196078 0.85490196
v -0.71500000 -5.80000002 3.35000000 0.92549020 0.90196078 0.85490196
v -0.97500000 -5.80000002 3.35000000 0.92549020 0.90196078 0.85490196
v -0.97500000 -7.41000002 3.35000000 0.92549020 0.90196078 0.85490196
v -1.07500000 -7.41000002 3.35000000 0.92549020 0.90196078 0.85490196
v -1.07500000 -4.55000002 3.35000000 0.92549020 0.90196078 0.85490196
v -1.61000000 -4.55000002 3.35000000 0.92549020 0.90196078 0.85490196
v -1.61000000 -4.45000002 3.35000000 0.92549020 0.90196078 0.85490196
v -1.07500000 -4.45000002 3.35000000 0.92549020 0.90196078 0.85490196
v -1.07500000 -4.04000002 3.35000000 0.92549020 0.90196078 0.85490196
v -0.97500000 -4.04000002 3.35000000 0.92549020 0.90196078 0.85490196
v -0.97500000 -5.70000002 3.35000000 0.92549020 0.90196078 0.85490196
v -0.71500000 -3.90000002 0.60000000 0.92549020 0.90196078 0.85490196
v -0.71500000 -4.00000002 0.60000000 0.92549020 0.90196078 0.85490196
v -0.93500000 -4.00000002 0.60000000 0.92549020 0.90196078 0.85490196
v -0.93500000 -3.90000002 0.60000000 0.92549020 0.90196078 0.85490196
v -0.71500000 -3.90000002 3.35000000 0.92549020 0.90196078 0.85490196
v -0.71500000 -4.00000002 3.35000000 0.92549020 0.90196078 0.85490196
v -0.93500000 -4.00000002 3.35000000 0.92549020 0.90196078 0.85490196
v -0.93500000 -3.90000002 3.35000000 0.92549020 0.90196078 0.85490196
v -0.76500000 -7.80000002 0.60000000 0.92549020 0.90196078 0.85490196
v -0.83500000 -7.80000002 0.60000000 0.92549020 0.90196078 0.85490196
v -0.83500000 -7.55000002 0.60000000 0.92549020 0.90196078 0.85490196
v -0.76500000 -7.55000002 0.60000000 0.92549020 0.90196078 0.85490196
v -0.76500000 -7.80000002 3.35000000 0.92549020 0.90196078 0.85490196
v -0.83500000 -7.80000002 3.35000000 0.92549020 0.90196078 0.85490196
v -0.83500000 -7.55000002 3.35000000 0.92549020 0.90196078 0.85490196
v -0.76500000 -7.55000002 3.35000000 0.92549020 0.90196078 0.85490196
v -1.66000000 -7.80000002 0.60000000 0.92549020 0.90196078 0.85490196
v -1.66000000 -7.55000002 0.60000000 0.92549020 0.90196078 0.85490196
v -1.21500000 -7.55000002 0.60000000 0.92549020 0.90196078 0.85490196
v -1.21500000 -7.80000002 0.60000000 0.92549020 0.90196078 0.85490196
v -1.66000000 -7.80000002 3.35000000 0.92549020 0.90196078 0.85490196
v -1.66000000 -7.55000002 3.35000000 0.92549020 0.90196078 0.85490196
v -1.21500000 -7.55000002 3.35000000 0.92549020 0.90196078 0.85490196
v -1.21500000 -7.80000002 3.35000000 0.92549020 0.90196078 0.85490196
v -2.54000000 -7.55000002 0.60000000 0.92549020 0.90196078 0.85490196
v -2.54000000 -7.80000002 0.60000000 0.92549020 0.90196078 0.85490196
v -2.63500000 -7.80000002 0.60000000 0.92549020 0.90196078 0.85490196
v -2.63500000 -7.55000002 0.60000000 0.92549020 0.90196078 0.85490196
v -2.54000000 -7.55000002 3.35000000 0.92549020 0.90196078 0.85490196
v -2.54000000 -7.80000002 3.35000000 0.92549020 0.90196078 0.85490196
v -2.63500000 -7.80000002 3.35000000 0.92549020 0.90196078 0.85490196
v -2.63500000 -7.55000002 3.35000000 0.92549020 0.90196078 0.85490196
v -3.22500000 -4.91000002 0.60000000 0.92549020 0.90196078 0.85490196
v -3.22500000 -4.59000002 0.60000000 0.92549020 0.90196078 0.85490196
v -3.12500000 -4.59000002 0.60000000 0.92549020 0.90196078 0.85490196
v -3.12500000 -4.91000002 0.60000000 0.92549020 0.90196078 0.85490196
v -3.22500000 -4.91000002 3.35000000 0.92549020 0.90196078 0.85490196
v -3.22500000 -4.59000002 3.35000000 0.92549020 0.90196078 0.85490196
v -3.12500000 -4.59000002 3.35000000 0.92549020 0.90196078 0.85490196
v -3.12500000 -4.91000002 3.35000000 0.92549020 0.90196078 0.85490196
v -2.69000000 -4.45000002 0.60000000 0.92549020 0.90196078 0.85490196
v -2.69000000 -4.55000002 0.60000000 0.92549020 0.90196078 0.85490196
v -3.08500000 -4.55000002 0.60000000 0.92549020 0.90196078 0.85490196
v -3.08500000 -4.45000002 0.60000000 0.92549020 0.90196078 0.85490196
v -2.69000000 -4.45000002 3.35000000 0.92549020 0.90196078 0.85490196
v -2.69000000 -4.55000002 3.35000000 0.92549020 0.90196078 0.85490196
v -3.08500000 -4.55000002 3.35000000 0.92549020 0.90196078 0.85490196
v -3.08500000 -4.45000002 3.35000000 0.92549020 0.90196078 0.85490196
v -3.65858620 -2.59000002 0.60000000 0.92549020 0.90196078 0.85490196
v -3.65858620 -2.45000002 0.60000000 0.92549020 0.90196078 0.85490196
v -3.64858620 -2.45000002 0.60000000 0.92549020 0.90196078 0.85490196
v -3.64858620 -2.60000002 0.60000000 0.92549020 0.90196078 0.85490196
v -2.86500000 -2.60000002 0.60000000 0.92549020 0.90196078 0.85490196
v -2.86500000 -2.70000002 0.60000000 0.92549020 0.90196078 0.85490196
v -5.03500000 -2.70000002 0.60000000 0.92549020 0.90196078 0.85490196
v -5.03500000 -2.60000002 0.60000000 0.92549020 0.90196078 0.85490196
v -3.79858620 -2.60000002 0.60000000 0.92549020 0.90196078 0.85490196
v -3.79858620 -2.59000002 0.60000000 0.92549020 0.90196078 0.85490196
v -3.65858620 -2.59000002 3.35000000 0.92549020 0.90196078 0.85490196
v -3.65858620 -2.45000002 3.35000000 0.92549020 0.90196078 0.85490196
v -3.64858620 -2.45000002 3.35000000 0.92549020 0.90196078 0.85490196
v -3.64858620 -2.60000002 3.35000000 0.92549020 0.90196078 0.85490196
v -2.86500000 -2.60000002 3.35000000 0.92549020 0.90196078 0.85490196
v -2.86500000 -2.70000002 3.35000000 0.92549020 0.90196078 0.85490196
v -5.03500000 -2.70000002 3.35000000 0.92549020 0.90196078 0.85490196
v -5.03500000 -2.60000002 3.35000000 0.92549020 0.90196078 0.85490196
v -3.79858620 -2.60000002 3.35000000 0.92549020 0.90196078 0.85490196
v -3.79858620 -2.59000002 3.35000000 0.92549020 0.90196078 0.85490196
v -3.37500000 -7.36000002 0.60000000 0.92549020 0.90196078 0.85490196
v -3.37500000 -5.79000002 0.60000000 0.92549020 0.90196078 0.85490196
v -3.12500000 -5.79000002 0.60000000 0.92549020 0.90196078 0.85490196
v -3.12500000 -7.36000002 0.60000000 0.92549020 0.90196078 0.85490196
v -3.37500000 -7.36000002 3.35000000 0.92549020 0.90196078 0.85490196
v -3.37500000 -5.79000002 3.35000000 0.92549020 0.90196078 0.85490196
v -3.12500000 -5.79000002 3.35000000 0.92549020 0.90196078 0.85490196
v -3.12500000 -7.36000002 3.35000000 0.92549020 0.90196078 0.85490196
v -4.64000000 5.04999998 0.60000000 0.92549020 0.90196078 0.85490196
v -4.64000000 4.79999998 0.60000000 0.92549020 0.90196078 0.85490196
v -5.03500000 4.79999998 0.60000000 0.92549020 0.90196078 0.85490196
v -5.03500000 5.04999998 0.60000000 0.92549020 0.90196078 0.85490196
v -4.64000000 5.04999998 3.35000000 0.92549020 0.90196078 0.85490196
v -4.64000000 4.79999998 3.35000000 0.92549020 0.90196078 0.85490196
v -5.03500000 4.79999998 3.35000000 0.92549020 0.90196078 0.85490196
v -5.03500000 5.04999998 3.35000000 0.92549020 0.90196078 0.85490196
v -4.66500000 -5.05000002 0.60000000 0.92549020 0.90196078 0.85490196
v -4.66500000 -5.30000002 0.60000000 0.92549020 0.90196078 0.85490196
v -5.03500000 -5.30000002 0.60000000 0.92549020 0.90196078 0.85490196
v -5.03500000 -5.05000002 0.60000000 0.92549020 0.90196078 0.85490196
v -4.66500000 -5.05000002 3.35000000 0.92549020 0.90196078 0.85490196
v -4.66500000 -5.30000002 3.35000000 0.92549020 0.90196078 0.85490196
v -5.03500000 -5.30000002 3.35000000 0.92549020 0.90196078 0.85490196
v -5.03500000 -5.05000002 3.35000000 0.92549020 0.90196078 0.85490196
v -5.22500000 0.03999998 0.60000000 0.92549020 0.90196078 0.85490196
v -5.47500000 0.03999998 0.60000000 0.92549020 0.90196078 0.85490196
v -5.47500000 4.30999998 0.60000000 0.92549020 0.90196078 0.85490196
v -5.22500000 4.30999998 0.60000000 0.92549020 0.90196078 0.85490196
v -5.22500000 0.03999998 3.35000000 0.92549020 0.90196078 0.85490196
v -5.47500000 0.03999998 3.35000000 0.92549020 0.90196078 0.85490196
v -5.47500000 4.30999998 3.35000000 0.92549020 0.90196078 0.85490196
v -5.22500000 4.30999998 3.35000000 0.92549020 0.90196078 0.85490196
v -5.47500000 -1.49000002 0.60000000 0.92549020 0.90196078 0.85490196
v -5.22500000 -1.49000002 0.60000000 0.92549020 0.90196078 0.85490196
v -5.22500000 -1.96000002 0.60000000 0.92549020 0.90196078 0.85490196
v -5.47500000 -1.96000002 0.60000000 0.92549020 0.90196078 0.85490196
v -5.47500000 -1.49000002 3.35000000 0.92549020 0.90196078 0.85490196
v -5.22500000 -1.49000002 3.35000000 0.92549020 0.90196078 0.85490196
v -5.22500000 -1.96000002 3.35000000 0.92549020 0.90196078 0.85490196
v -5.47500000 -1.96000002 3.35000000 0.92549020 0.90196078 0.85490196
v -5.47500000 -4.56000002 0.60000000 0.92549020 0.90196078 0.85490196
v -5.47500000 -2.84000002 0.60000000 0.92549020 0.90196078 0.85490196
v -5.22500000 -2.84000002 0.60000000 0.92549020 0.90196078 0.85490196
v -5.22500000 -4.56000002 0.60000000 0.92549020 0.90196078 0.85490196
v -5.47500000 -4.56000002 3.35000000 0.92549020 0.90196078 0.85490196
v -5.47500000 -2.84000002 3.35000000 0.92549020 0.90196078 0.85490196
v -5.22500000 -2.84000002 3.35000000 0.92549020 0.90196078 0.85490196
v -5.22500000 -4.56000002 3.35000000 0.92549020 0.90196078 0.85490196
v -0.50000000 4.80000002 2.80000000 0.92549020 0.90196078 0.85490196
v -0.50000000 5.05000002 2.80000000 0.92549020 0.90196078 0.85490196
v -4.50000000 5.05000002 2.80000000 0.92549020 0.90196078 0.85490196
v -4.50000000 4.80000002 2.80000000 0.92549020 0.90196078 0.85490196
v -0.50000000 4.80000002 3.35000000 0.92549020 0.90196078 0.85490196
v -0.50000000 5.05000002 3.35000000 0.92549020 0.90196078 0.85490196
v -4.50000000 5.05000002 3.35000000 0.92549020 0.90196078 0.85490196
v -4.50000000 4.80000002 3.35000000 0.92549020 0.90196078 0.85490196
v 4.02500000 7.55000002 2.80000000 0.92549020 0.90196078 0.85490196
v 4.02500000 7.80000002 2.80000000 0.92549020 0.90196078 0.85490196
v 1.52500000 7.80000002 2.80000000 0.92549020 0.90196078 0.85490196
v 1.52500000 7.55000002 2.80000000 0.92549020 0.90196078 0.85490196
v 4.02500000 7.55000002 3.35000000 0.92549020 0.90196078 0.85490196
v 4.02500000 7.80000002 3.35000000 0.92549020 0.90196078 0.85490196
v 1.52500000 7.80000002 3.35000000 0.92549020 0.90196078 0.85490196
v 1.52500000 7.55000002 3.35000000 0.92549020 0.90196078 0.85490196
v 3.57500000 -7.79999998 2.80000000 0.92549020 0.90196078 0.85490196
v 3.57500000 -7.54999998 2.80000000 0.92549020 0.90196078 0.85490196
v 2.07500000 -7.54999998 2.80000000 0.92549020 0.90196078 0.85490196
v 2.07500000 -7.79999998 2.80000000 0.92549020 0.90196078 0.85490196
v 3.57500000 -7.79999998 3.35000000 0.92549020 0.90196078 0.85490196
v 3.57500000 -7.54999998 3.35000000 0.92549020 0.90196078 0.85490196
v 2.07500000 -7.54999998 3.35000000 0.92549020 0.90196078 0.85490196
v 2.07500000 -7.79999998 3.35000000 0.92549020 0.90196078 0.85490196
v 3.57500000 -7.79999998 0.60000000 0.92549020 0.90196078 0.85490196
v 3.57500000 -7.54999998 0.60000000 0.92549020 0.90196078 0.85490196
v 2.07500000 -7.54999998 0.60000000 0.92549020 0.90196078 0.85490196
v 2.07500000 -7.79999998 0.60000000 0.92549020 0.90196078 0.85490196
v 3.57500000 -7.79999998 1.30000000 0.92549020 0.90196078 0.85490196
v 3.57500000 -7.54999998 1.30000000 0.92549020 0.90196078 0.85490196
v 2.07500000 -7.54999998 1.30000000 0.92549020 0.90196078 0.85490196
v 2.07500000 -7.79999998 1.30000000 0.92549020 0.90196078 0.85490196
v 5.47500000 -2.54999998 2.80000000 0.92549020 0.90196078 0.85490196
v 5.47500000 -1.04999998 2.80000000 0.92549020 0.90196078 0.85490196
v 5.22500000 -1.04999998 2.80000000 0.92549020 0.90196078 0.85490196
v 5.22500000 -2.54999998 2.80000000 0.92549020 0.90196078 0.85490196
v 5.47500000 -2.54999998 3.35000000 0.92549020 0.90196078 0.85490196
v 5.47500000 -1.04999998 3.35000000 0.92549020 0.90196078 0.85490196
v 5.22500000 -1.04999998 3.35000000 0.92549020 0.90196078 0.85490196
v 5.22500000 -2.54999998 3.35000000 0.92549020 0.90196078 0.85490196
v 5.47500000 -2.54999998 0.60000000 0.92549020 0.90196078 0.85490196
v 5.47500000 -1.04999998 0.60000000 0.92549020 0.90196078 0.85490196
v 5.22500000 -1.04999998 0.60000000 0.92549020 0.90196078 0.85490196
v 5.22500000 -2.54999998 0.60000000 0.92549020 0.90196078 0.85490196
v 5.47500000 -2.54999998 1.30000000 0.92549020 0.90196078 0.85490196
v 5.47500000 -1.04999998 1.30000000 0.92549020 0.90196078 0.85490196
v 5.22500000 -1.04999998 1.30000000 0.92549020 0.90196078 0.85490196
v 5.22500000 -2.54999998 1.30000000 0.92549020 0.90196078 0.85490196
v -5.22500000 -1.34999998 2.80000000 0.92549020 0.90196078 0.85490196
v -5.22500000 -0.09999998 2.80000000 0.92549020 0.90196078 0.85490196
v -5.47500000 -0.09999998 2.80000000 0.92549020 0.90196078 0.85490196
v -5.47500000 -1.34999998 2.80000000 0.92549020 0.90196078 0.85490196
v -5.22500000 -1.34999998 3.35000000 0.92549020 0.90196078 0.85490196
v -5.22500000 -0.09999998 3.35000000 0.92549020 0.90196078 0.85490196
v -5.47500000 -0.09999998 3.35000000 0.92549020 0.90196078 0.85490196
v -5.47500000 -1.34999998 3.35000000 0.92549020 0.90196078 0.85490196
v -5.22500000 -1.34999998 0.60000000 0.92549020 0.90196078 0.85490196
v -5.22500000 -0.09999998 0.60000000 0.92549020 0.90196078 0.85490196
v -5.47500000 -0.09999998 0.60000000 0.92549020 0.90196078 0.85490196
v -5.47500000 -1.34999998 0.60000000 0.92549020 0.90196078 0.85490196
v -5.22500000 -1.34999998 1.30000000 0.92549020 0.90196078 0.85490196
v -5.22500000 -0.09999998 1.30000000 0.92549020 0.90196078 0.85490196
v -5.47500000 -0.09999998 1.30000000 0.92549020 0.90196078 0.85490196
v -5.47500000 -1.34999998 1.30000000 0.92549020 0.90196078 0.85490196
v -3.52500000 -5.29999998 2.70000000 0.92549020 0.90196078 0.85490196
v -3.52500000 -5.04999998 2.70000000 0.92549020 0.90196078 0.85490196
v -4.52500000 -5.04999998 2.70000000 0.92549020 0.90196078 0.85490196
v -4.52500000 -5.29999998 2.70000000 0.92549020 0.90196078 0.85490196
v -3.52500000 -5.29999998 3.35000000 0.92549020 0.90196078 0.85490196
v -3.52500000 -5.04999998 3.35000000 0.92549020 0.90196078 0.85490196
v -4.52500000 -5.04999998 3.35000000 0.92549020 0.90196078 0.85490196
v -4.52500000 -5.29999998 3.35000000 0.92549020 0.90196078 0.85490196
v 5.47500000 3.00000002 2.80000000 0.92549020 0.90196078 0.85490196
v 5.47500000 3.60000002 2.80000000 0.92549020 0.90196078 0.85490196
v 5.22500000 3.60000002 2.80000000 0.92549020 0.90196078 0.85490196
v 5.22500000 3.00000002 2.80000000 0.92549020 0.90196078 0.85490196
v 5.47500000 3.00000002 3.35000000 0.92549020 0.90196078 0.85490196
v 5.47500000 3.60000002 3.35000000 0.92549020 0.90196078 0.85490196
v 5.22500000 3.60000002 3.35000000 0.92549020 0.90196078 0.85490196
v 5.22500000 3.00000002 3.35000000 0.92549020 0.90196078 0.85490196
v 5.47500000 3.00000002 0.60000000 0.92549020 0.90196078 0.85490196
v 5.47500000 3.60000002 0.60000000 0.92549020 0.90196078 0.85490196
v 5.22500000 3.60000002 0.60000000 0.92549020 0.90196078 0.85490196
v 5.22500000 3.00000002 0.60000000 0.92549020 0.90196078 0.85490196
v 5.47500000 3.00000002 2.20000000 0.92549020 0.90196078 0.85490196
v 5.47500000 3.60000002 2.20000000 0.92549020 0.90196078 0.85490196
v 5.22500000 3.60000002 2.20000000 0.92549020 0.90196078 0.85490196
v 5.22500000 3.00000002 2.20000000 0.92549020 0.90196078 0.85490196
v 5.47500000 1.15000002 2.80000000 0.92549020 0.90196078 0.85490196
v 5.47500000 1.75000002 2.80000000 0.92549020 0.90196078 0.85490196
v 5.22500000 1.75000002 2.80000000 0.92549020 0.90196078 0.85490196
v 5.22500000 1.15000002 2.80000000 0.92549020 0.90196078 0.85490196
v 5.47500000 1.15000002 3.35000000 0.92549020 0.90196078 0.85490196
v 5.47500000 1.75000002 3.35000000 0.92549020 0.90196078 0.85490196
v 5.22500000 1.75000002 3.35000000 0.92549020 0.90196078 0.85490196
v 5.22500000 1.15000002 3.35000000 0.92549020 0.90196078 0.85490196
v 5.47500000 1.15000002 0.60000000 0.92549020 0.90196078 0.85490196
v 5.47500000 1.75000002 0.60000000 0.92549020 0.90196078 0.85490196
v 5.22500000 1.75000002 0.60000000 0.92549020 0.90196078 0.85490196
v 5.22500000 1.15000002 0.60000000 0.92549020 0.90196078 0.85490196
v 5.47500000 1.15000002 2.20000000 0.92549020 0.90196078 0.85490196
v 5.47500000 1.75000002 2.20000000 0.92549020 0.90196078 0.85490196
v 5.22500000 1.75000002 2.20000000 0.92549020 0.90196078 0.85490196
v 5.22500000 1.15000002 2.20000000 0.92549020 0.90196078 0.85490196
v -0.02500000 -7.79999998 2.80000000 0.92549020 0.90196078 0.85490196
v -0.02500000 -7.54999998 2.80000000 0.92549020 0.90196078 0.85490196
v -0.62500000 -7.54999998 2.80000000 0.92549020 0.90196078 0.85490196
v -0.62500000 -7.79999998 2.80000000 0.92549020 0.90196078 0.85490196
v -0.02500000 -7.79999998 3.35000000 0.92549020 0.90196078 0.85490196
v -0.02500000 -7.54999998 3.35000000 0.92549020 0.90196078 0.85490196
v -0.62500000 -7.54999998 3.35000000 0.92549020 0.90196078 0.85490196
v -0.62500000 -7.79999998 3.35000000 0.92549020 0.90196078 0.85490196
v -0.02500000 -7.79999998 0.60000000 0.92549020 0.90196078 0.85490196
v -0.02500000 -7.54999998 0.60000000 0.92549020 0.90196078 0.85490196
v -0.62500000 -7.54999998 0.60000000 0.92549020 0.90196078 0.85490196
v -0.62500000 -7.79999998 0.60000000 0.92549020 0.90196078 0.85490196
v -0.02500000 -7.79999998 2.20000000 0.92549020 0.90196078 0.85490196
v -0.02500000 -7.54999998 2.20000000 0.92549020 0.90196078 0.85490196
v -0.62500000 -7.54999998 2.20000000 0.92549020 0.90196078 0.85490196
v -0.62500000 -7.79999998 2.20000000 0.92549020 0.90196078 0.85490196
v -1.80000000 -7.79999998 2.80000000 0.92549020 0.90196078 0.85490196
v -1.80000000 -7.54999998 2.80000000 0.92549020 0.90196078 0.85490196
v -2.40000000 -7.54999998 2.80000000 0.92549020 0.90196078 0.85490196
v -2.40000000 -7.79999998 2.80000000 0.92549020 0.90196078 0.85490196
v -1.80000000 -7.79999998 3.35000000 0.92549020 0.90196078 0.85490196
v -1.80000000 -7.54999998 3.35000000 0.92549020 0.90196078 0.85490196
v -2.40000000 -7.54999998 3.35000000 0.92549020 0.90196078 0.85490196
v -2.40000000 -7.79999998 3.35000000 0.92549020 0.90196078 0.85490196
v -1.80000000 -7.79999998 0.60000000 0.92549020 0.90196078 0.85490196
v -1.80000000 -7.54999998 0.60000000 0.92549020 0.90196078 0.85490196
v -2.40000000 -7.54999998 0.60000000 0.92549020 0.90196078 0.85490196
v -2.40000000 -7.79999998 0.60000000 0.92549020 0.90196078 0.85490196
v -1.80000000 -7.79999998 2.20000000 0.92549020 0.90196078 0.85490196
v -1.80000000 -7.54999998 2.20000000 0.92549020 0.90196078 0.85490196
v -2.40000000 -7.54999998 2.20000000 0.92549020 0.90196078 0.85490196
v -2.40000000 -7.79999998 2.20000000 0.92549020 0.90196078 0.85490196
v -1.72500000 -2.69999998 2.70000000 0.92549020 0.90196078 0.85490196
v -1.72500000 -2.59999998 2.70000000 0.92549020 0.90196078 0.85490196
v -2.72500000 -2.59999998 2.70000000 0.92549020 0.90196078 0.85490196
v -2.72500000 -2.69999998 2.70000000 0.92549020 0.90196078 0.85490196
v -1.72500000 -2.69999998 3.35000000 0.92549020 0.90196078 0.85490196
v -1.72500000 -2.59999998 3.35000000 0.92549020 0.90196078 0.85490196
v -2.72500000 -2.59999998 3.35000000 0.92549020 0.90196078 0.85490196
v -2.72500000 -2.69999998 3.35000000 0.92549020 0.90196078 0.85490196
v 1.47500000 -3.99999998 2.70000000 0.92549020 0.90196078 0.85490196
v 1.47500000 -3.89999998 2.70000000 0.92549020 0.90196078 0.85490196
v 0.57500000 -3.89999998 2.70000000 0.92549020 0.90196078 0.85490196
v 0.57500000 -3.99999998 2.70000000 0.92549020 0.90196078 0.85490196
v 1.47500000 -3.99999998 3.35000000 0.92549020 0.90196078 0.85490196
v 1.47500000 -3.89999998 3.35000000 0.92549020 0.90196078 0.85490196
v 0.57500000 -3.89999998 3.35000000 0.92549020 0.90196078 0.85490196
v 0.57500000 -3.99999998 3.35000000 0.92549020 0.90196078 0.85490196
v 1.37500000 2.50000002 2.70000000 0.92549020 0.90196078 0.85490196
v 1.37500000 2.60000002 2.70000000 0.92549020 0.90196078 0.85490196
v 0.47500000 2.60000002 2.70000000 0.92549020 0.90196078 0.85490196
v 0.47500000 2.50000002 2.70000000 0.92549020 0.90196078 0.85490196
v 1.37500000 2.50000002 3.35000000 0.92549020 0.90196078 0.85490196
v 1.37500000 2.60000002 3.35000000 0.92549020 0.90196078 0.85490196
v 0.47500000 2.60000002 3.35000000 0.92549020 0.90196078 0.85490196
v 0.47500000 2.50000002 3.35000000 0.92549020 0.90196078 0.85490196
v 1.62500000 -1.34999998 2.70000000 0.92549020 0.90196078 0.85490196
v 1.62500000 -0.44999998 2.70000000 0.92549020 0.90196078 0.85490196
v 1.52500000 -0.44999998 2.70000000 0.92549020 0.90196078 0.85490196
v 1.52500000 -1.34999998 2.70000000 0.92549020 0.90196078 0.85490196
v 1.62500000 -1.34999998 3.35000000 0.92549020 0.90196078 0.85490196
v 1.62500000 -0.44999998 3.35000000 0.92549020 0.90196078 0.85490196
v 1.52500000 -0.44999998 3.35000000 0.92549020 0.90196078 0.85490196
v 1.52500000 -1.34999998 3.35000000 0.92549020 0.90196078 0.85490196
v 1.62500000 1.00000002 2.70000000 0.92549020 0.90196078 0.85490196
v 1.62500000 1.90000002 2.70000000 0.92549020 0.90196078 0.85490196
v 1.52500000 1.90000002 2.70000000 0.92549020 0.90196078 0.85490196
v 1.52500000 1.00000002 2.70000000 0.92549020 0.90196078 0.85490196
v 1.62500000 1.00000002 3.35000000 0.92549020 0.90196078 0.85490196
v 1.62500000 1.90000002 3.35000000 0.92549020 0.90196078 0.85490196
v 1.52500000 1.90000002 3.35000000 0.92549020 0.90196078 0.85490196
v 1.52500000 1.00000002 3.35000000 0.92549020 0.90196078 0.85490196
v 3.37500000 4.00000002 2.70000000 0.92549020 0.90196078 0.85490196
v 3.37500000 4.10000002 2.70000000 0.92549020 0.90196078 0.85490196
v 2.57500000 4.10000002 2.70000000 0.92549020 0.90196078 0.85490196
v 2.57500000 4.00000002 2.70000000 0.92549020 0.90196078 0.85490196
v 3.37500000 4.00000002 3.35000000 0.92549020 0.90196078 0.85490196
v 3.37500000 4.10000002 3.35000000 0.92549020 0.90196078 0.85490196
v 2.57500000 4.10000002 3.35000000 0.92549020 0.90196078 0.85490196
v 2.57500000 4.00000002 3.35000000 0.92549020 0.90196078 0.85490196
v -1.75000000 -4.54999998 2.70000000 0.92549020 0.90196078 0.85490196
v -1.75000000 -4.44999998 2.70000000 0.92549020 0.90196078 0.85490196
v -2.55000000 -4.44999998 2.70000000 0.92549020 0.90196078 0.85490196
v -2.55000000 -4.54999998 2.70000000 0.92549020 0.90196078 0.85490196
v -1.75000000 -4.54999998 3.35000000 0.92549020 0.90196078 0.85490196
v -1.75000000 -4.44999998 3.35000000 0.92549020 0.90196078 0.85490196
v -2.55000000 -4.44999998 3.35000000 0.92549020 0.90196078 0.85490196
v -2.55000000 -4.54999998 3.35000000 0.92549020 0.90196078 0.85490196
v 0.22500000 -3.99999998 2.70000000 0.92549020 0.90196078 0.85490196
v 0.22500000 -3.89999998 2.70000000 0.92549020 0.90196078 0.85490196
v -0.57500000 -3.89999998 2.70000000 0.92549020 0.90196078 0.85490196
v -0.57500000 -3.99999998 2.70000000 0.92549020 0.90196078 0.85490196
v 0.22500000 -3.99999998 3.35000000 0.92549020 0.90196078 0.85490196
v 0.22500000 -3.89999998 3.35000000 0.92549020 0.90196078 0.85490196
v -0.57500000 -3.89999998 3.35000000 0.92549020 0.90196078 0.85490196
v -0.57500000 -3.99999998 3.35000000 0.92549020 0.90196078 0.85490196
v 0.22500000 -5.79999998 2.70000000 0.92549020 0.90196078 0.85490196
v 0.22500000 -5.69999998 2.70000000 0.92549020 0.90196078 0.85490196
v -0.57500000 -5.69999998 2.70000000 0.92549020 0.90196078 0.85490196
v -0.57500000 -5.79999998 2.70000000 0.92549020 0.90196078 0.85490196
v 0.22500000 -5.79999998 3.35000000 0.92549020 0.90196078 0.85490196
v 0.22500000 -5.69999998 3.35000000 0.92549020 0.90196078 0.85490196
v -0.57500000 -5.69999998 3.35000000 0.92549020 0.90196078 0.85490196
v -0.57500000 -5.79999998 3.35000000 0.92549020 0.90196078 0.85490196
f 3 4 1
f 2 3 1
f 5 8 7
f 5 7 6
f 5 6 1
f 1 6 2
f 6 7 2
f 2 7 3
f 8 5 4
f 4 5 1
f 7 8 3
f 3 8 4
f 11 12 9
f 10 11 9
f 13 16 15
f 13 15 14
f 13 14 9
f 9 14 10
f 14 15 10
f 10 15 11
f 16 13 12
f 12 13 9
f 15 16 11
f 11 16 12
f 19 20 17
f 18 19 17
f 21 24 23
f 21 23 22
f 21 22 17
f 17 22 18
f 22 23 18
f 18 23 19
f 24 21 20
f 20 21 17
f 23 24 19
f 19 24 20
f 27 28 25
f 26 27 25
f 29 32 31
f 29 31 30
f 29 30 25
f 25 30 26
f 30 31 26
f 26 31 27
f 32 29 28
f 28 29 25
f 31 32 27
f 27 32 28
f 35 36 33
f 34 35 33
f 37 40 39
f 37 39 38
f 37 38 33
f 33 38 34
f 38 39 34
f 34 39 35
f 40 37 36
f 36 37 33
f 39 40 35
f 35 40 36
f 43 44 41
f 42 43 41
f 45 48 47
f 45 47 46
f 45 46 41
f 41 46 42
f 46 47 42
f 42 47 43
f 48 45 44
f 44 45 41
f 47 48 43
f 43 48 44
f 51 52 49
f 50 51 49
f 53 56 55
f 53 55 54
f 53 54 49
f 49 54 50
f 54 55 50
f 50 55 51
f 56 53 52
f 52 53 49
f 55 56 51
f 51 56 52
f 62 63 64
f 61 62 64
f 59 60 61
f 58 59 61
f 64 57 58
f 61 64 58
f 72 71 70
f 72 70 69
f 69 68 67
f 69 67 66
f 66 65 72
f 66 72 69
f 65 66 57
f 57 66 58
f 66 67 58
f 58 67 59
f 67 68 59
f 59 68 60
f 68 69 60
f 60 69 61
f 69 70 61
f 61 70 62
f 70 71 62
f 62 71 63
f 72 65 64
f 64 65 57
f 71 72 63
f 63 72 64
f 75 76 73
f 74 75 73
f 77 80 79
f 77 79 78
f 77 78 73
f 73 78 74
f 78 79 74
f 74 79 75
f 80 77 76
f 76 77 73
f 79 80 75
f 75 80 76
f 87 88 81
f 85 86 87
f 83 84 85
f 82 83 85
f 87 81 82
f 85 87 82
f 89 96 95
f 95 94 93
f 93 92 91
f 93 91 90
f 90 89 95
f 90 95 93
f 89 90 81
f 81 90 82
f 90 91 82
f 82 91 83
f 91 92 83
f 83 92 84
f 92 93 84
f 84 93 85
f 93 94 85
f 85 94 86
f 94 95 86
f 86 95 87
f 96 89 88
f 88 89 81
f 95 96 87
f 87 96 88
f 99 100 97
f 98 99 97
f 101 104 103
f 101 103 102
f 101 102 97
f 97 102 98
f 102 103 98
f 98 103 99
f 104 101 100
f 100 101 97
f 103 104 99
f 99 104 100
f 117 118 105
f 115 116 117
f 114 115 117
f 113 114 117
f 112 113 117
f 110 111 112
f 109 110 112
f 108 109 112
f 107 108 112
f 106 107 112
f 105 106 112
f 117 105 112
f 119 132 131
f 131 130 129
f 131 129 128
f 131 128 127
f 131 127 126
f 126 125 124
f 126 124 123
f 126 123 122
f 126 122 121
f 126 121 120
f 126 120 119
f 126 119 131
f 119 120 105
f 105 120 106
f 120 121 106
f 106 121 107
f 121 122 107
f 107 122 108
f 122 123 108
f 108 123 109
f 123 124 109
f 109 124 110
f 124 125 110
f 110 125 111
f 125 126 111
f 111 126 112
f 126 127 112
f 112 127 113
f 127 128 113
f 113 128 114
f 128 129 114
f 114 129 115
f 129 130 115
f 115 130 116
f 130 131 116
f 116 131 117
f 132 119 118
f 118 119 105
f 131 132 117
f 117 132 118
f 135 136 133
f 134 135 133
f 137 140 139
f 137 139 138
f 137 138 133
f 133 138 134
f 138 139 134
f 134 139 135
f 140 137 136
f 136 137 133
f 139 140 135
f 135 140 136
f 143 144 141
f 142 143 141
f 145 148 147
f 145 147 146
f 145 146 141
f 141 146 142
f 146 147 142
f 142 147 143
f 148 145 144
f 144 145 141
f 147 148 143
f 143 148 144
f 151 152 149
f 150 151 149
f 153 156 155
f 153 155 154
f 153 154 149
f 149 154 150
f 154 155 150
f 150 155 151
f 156 153 152
f 152 153 149
f 155 156 151
f 151 156 152
f 159 160 157
f 158 159 157
f 161 164 163
f 161 163 162
f 161 162 157
f 157 162 158
f 162 163 158
f 158 163 159
f 164 161 160
f 160 161 157
f 163 164 159
f 159 164 160
f 171 172 165
f 169 170 171
f 168 169 171
f 166 167 168
f 165 166 168
f 171 165 168
f 173 180 179
f 179 178 177
f 179 177 176
f 176 175 174
f 176 174 173
f 176 173 179
f 173 174 165
f 165 174 166
f 174 175 166
f 166 175 167
f 175 176 167
f 167 176 168
f 176 177 168
f 168 177 169
f 177 178 169
f 169 178 170
f 178 179 170
f 170 179 171
f 180 173 172
f 172 173 165
f 179 180 171
f 171 180 172
f 183 184 181
f 182 183 181
f 185 188 187
f 185 187 186
f 185 186 181
f 181 186 182
f 186 187 182
f 182 187 183
f 188 185 184
f 184 185 181
f 187 188 183
f 183 188 184
f 191 192 189
f 190 191 189
f 193 196 195
f 193 195 194
f 193 194 189
f 189 194 190
f 194 195 190
f 190 195 191
f 196 193 192
f 192 193 189
f 195 196 191
f 191 196 192
f 199 200 197
f 198 199 197
f 201 204 203
f 201 203 202
f 201 202 197
f 197 202 198
f 202 203 198
f 198 203 199
f 204 201 200
f 200 201 197
f 203 204 199
f 199 204 200
f 214 215 216
f 213 214 216
f 211 212 213
f 210 211 213
f 208 209 210
f 207 208 210
f 205 206 207
f 216 205 207
f 213 216 207
f 210 213 207
f 228 227 226
f 228 226 225
f 225 224 223
f 225 223 222
f 222 221 220
f 222 220 219
f 219 218 217
f 219 217 228
f 219 228 225
f 219 225 222
f 217 218 205
f 205 218 206
f 218 219 206
f 206 219 207
f 219 220 207
f 207 220 208
f 220 221 208
f 208 221 209
f 221 222 209
f 209 222 210
f 222 223 210
f 210 223 211
f 223 224 211
f 211 224 212
f 224 225 212
f 212 225 213
f 225 226 213
f 213 226 214
f 226 227 214
f 214 227 215
f 228 217 216
f 216 217 205
f 227 228 215
f 215 228 216
f 231 232 229
f 230 231 229
f 233 236 235
f 233 235 234
f 233 234 229
f 229 234 230
f 234 235 230
f 230 235 231
f 236 233 232
f 232 233 229
f 235 236 231
f 231 236 232
f 239 240 237
f 238 239 237
f 241 244 243
f 241 243 242
f 241 242 237
f 237 242 238
f 242 243 238
f 238 243 239
f 244 241 240
f 240 241 237
f 243 244 239
f 239 244 240
f 247 248 245
f 246 247 245
f 249 252 251
f 249 251 250
f 249 250 245
f 245 250 246
f 250 251 246
f 246 251 247
f 252 249 248
f 248 249 245
f 251 252 247
f 247 252 248
f 255 256 253
f 254 255 253
f 257 260 259
f 257 259 258
f 257 258 253
f 253 258 254
f 258 259 254
f 254 259 255
f 260 257 256
f 256 257 253
f 259 260 255
f 255 260 256
f 263 264 261
f 262 263 261
f 265 268 267
f 265 267 266
f 265 266 261
f 261 266 262
f 266 267 262
f 262 267 263
f 268 265 264
f 264 265 261
f 267 268 263
f 263 268 264
f 271 272 269
f 270 271 269
f 273 276 275
f 273 275 274
f 273 274 269
f 269 274 270
f 274 275 270
f 270 275 271
f 276 273 272
f 272 273 269
f 275 276 271
f 271 276 272
f 285 286 277
f 283 284 285
f 282 283 285
f 280 281 282
f 278 279 280
f 277 278 280
f 285 277 280
f 282 285 280
f 287 296 295
f 295 294 293
f 295 293 292
f 292 291 290
f 290 289 288
f 290 288 287
f 290 287 295
f 290 295 292
f 287 288 277
f 277 288 278
f 288 289 278
f 278 289 279
f 289 290 279
f 279 290 280
f 290 291 280
f 280 291 281
f 291 292 281
f 281 292 282
f 292 293 282
f 282 293 283
f 293 294 283
f 283 294 284
f 294 295 284
f 284 295 285
f 296 287 286
f 286 287 277
f 295 296 285
f 285 296 286
f 299 300 297
f 298 299 297
f 301 304 303
f 301 303 302
f 301 302 297
f 297 302 298
f 302 303 298
f 298 303 299
f 304 301 300
f 300 301 297
f 303 304 299
f 299 304 300
f 307 308 305
f 306 307 305
f 309 312 311
f 309 311 310
f 309 310 305
f 305 310 306
f 310 311 306
f 306 311 307
f 312 309 308
f 308 309 305
f 311 312 307
f 307 312 308
f 315 316 313
f 314 315 313
f 317 320 319
f 317 319 318
f 317 318 313
f 313 318 314
f 318 319 314
f 314 319 315
f 320 317 316
f 316 317 313
f 319 320 315
f 315 320 316
f 323 324 321
f 322 323 321
f 325 328 327
f 325 327 326
f 325 326 321
f 321 326 322
f 326 327 322
f 322 327 323
f 328 325 324
f 324 325 321
f 327 328 323
f 323 328 324
f 331 332 329
f 330 331 329
f 333 336 335
f 333 335 334
f 333 334 329
f 329 334 330
f 334 335 330
f 330 335 331
f 336 333 332
f 332 333 329
f 335 336 331
f 331 336 332
f 339 340 337
f 338 339 337
f 341 344 343
f 341 343 342
f 341 342 337
f 337 342 338
f 342 343 338
f 338 343 339
f 344 341 340
f 340 341 337
f 343 344 339
f 339 344 340
f 346 345 348
f 347 346 348
f 352 349 350
f 352 350 351
f 350 349 346
f 346 349 345
f 351 350 347
f 347 350 346
f 349 352 345
f 345 352 348
f 352 351 348
f 348 351 347
f 354 353 356
f 355 354 356
f 360 357 358
f 360 358 359
f 358 357 354
f 354 357 353
f 359 358 355
f 355 358 354
f 357 360 353
f 353 360 356
f 360 359 356
f 356 359 355
f 362 361 364
f 363 362 364
f 368 365 366
f 368 366 367
f 366 365 362
f 362 365 361
f 367 366 363
f 363 366 362
f 365 368 361
f 361 368 364
f 368 367 364
f 364 367 363
f 370 369 372
f 371 370 372
f 376 373 374
f 376 374 375
f 374 373 370
f 370 373 369
f 375 374 371
f 371 374 370
f 373 376 369
f 369 376 372
f 376 375 372
f 372 375 371
f 378 377 380
f 379 378 380
f 384 381 382
f 384 382 383
f 382 381 378
f 378 381 377
f 383 382 379
f 379 382 378
f 381 384 377
f 377 384 380
f 384 383 380
f 380 383 379
f 386 385 388
f 387 386 388
f 392 389 390
f 392 390 391
f 390 389 386
f 386 389 385
f 391 390 387
f 387 390 386
f 389 392 385
f 385 392 388
f 392 391 388
f 388 391 387
f 394 393 396
f 395 394 396
f 400 397 398
f 400 398 399
f 398 397 394
f 394 397 393
f 399 398 395
f 395 398 394
f 397 400 393
f 393 400 396
f 400 399 396
f 396 399 395
f 402 401 404
f 403 402 404
f 408 405 406
f 408 406 407
f 406 405 402
f 402 405 401
f 407 406 403
f 403 406 402
f 405 408 401
f 401 408 404
f 408 407 404
f 404 407 403
f 410 409 412
f 411 410 412
f 416 413 414
f 416 414 415
f 414 413 410
f 410 413 409
f 415 414 411
f 411 414 410
f 413 416 409
f 409 416 412
f 416 415 412
f 412 415 411
f 418 417 420
f 419 418 420
f 424 421 422
f 424 422 423
f 422 421 418
f 418 421 417
f 423 422 419
f 419 422 418
f 421 424 417
f 417 424 420
f 424 423 420
f 420 423 419
f 426 425 428
f 427 426 428
f 432 429 430
f 432 430 431
f 430 429 426
f 426 429 425
f 431 430 427
f 427 430 426
f 429 432 425
f 425 432 428
f 432 431 428
f 428 431 427
f 434 433 436
f 435 434 436
f 440 437 438
f 440 438 439
f 438 437 434
f 434 437 433
f 439 438 435
f 435 438 434
f 437 440 433
f 433 440 436
f 440 439 436
f 436 439 435
f 442 441 444
f 443 442 444
f 448 445 446
f 448 446 447
f 446 445 442
f 442 445 441
f 447 446 443
f 443 446 442
f 445 448 441
f 441 448 444
f 448 447 444
f 444 447 443
f 450 449 452
f 451 450 452
f 456 453 454
f 456 454 455
f 454 453 450
f 450 453 449
f 455 454 451
f 451 454 450
f 453 456 449
f 449 456 452
f 456 455 452
f 452 455 451
f 458 457 460
f 459 458 460
f 464 461 462
f 464 462 463
f 462 461 458
f 458 461 457
f 463 462 459
f 459 462 458
f 461 464 457
f 457 464 460
f 464 463 460
f 460 463 459
f 466 465 468
f 467 466 468
f 472 469 470
f 472 470 471
f 470 469 466
f 466 469 465
f 471 470 467
f 467 470 466
f 469 472 465
f 465 472 468
f 472 471 468
f 468 471 467
f 474 473 476
f 475 474 476
f 480 477 478
f 480 478 479
f 478 477 474
f 474 477 473
f 479 478 475
f 475 478 474
f 477 480 473
f 473 480 476
f 480 479 476
f 476 479 475
f 482 481 484
f 483 482 484
f 488 485 486
f 488 486 487
f 486 485 482
f 482 485 481
f 487 486 483
f 483 486 482
f 485 488 481
f 481 488 484
f 488 487 484
f 484 487 483
f 490 489 492
f 491 490 492
f 496 493 494
f 496 494 495
f 494 493 490
f 490 493 489
f 495 494 491
f 491 494 490
f 493 496 489
f 489 496 492
f 496 495 492
f 492 495 491
f 498 497 500
f 499 498 500
f 504 501 502
f 504 502 503
f 502 501 498
f 498 501 497
f 503 502 499
f 499 502 498
f 501 504 497
f 497 504 500
f 504 503 500
f 500 503 499
f 506 505 508
f 507 506 508
f 512 509 510
f 512 510 511
f 510 509 506
f 506 509 505
f 511 510 507
f 507 510 506
f 509 512 505
f 505 512 508
f 512 511 508
f 508 511 507
f 514 513 516
f 515 514 516
f 520 517 518
f 520 518 519
f 518 517 514
f 514 517 513
f 519 518 515
f 515 518 514
f 517 520 513
f 513 520 516
f 520 519 516
f 516 519 515
f 522 521 524
f 523 522 524
f 528 525 526
f 528 526 527
f 526 525 522
f 522 525 521
f 527 526 523
f 523 526 522
f 525 528 521
f 521 528 524
f 528 527 524
f 524 527 523
f 530 529 532
f 531 530 532
f 536 533 534
f 536 534 535
f 534 533 530
f 530 533 529
f 535 534 531
f 531 534 530
f 533 536 529
f 529 536 532
f 536 535 532
f 532 535 531
f 538 537 540
f 539 538 540
f 544 541 542
f 544 542 543
f 542 541 538
f 538 541 537
f 543 542 539
f 539 542 538
f 541 544 537
f 537 544 540
f 544 543 540
f 540 543 539
f 546 545 548
f 547 546 548
f 552 549 550
f 552 550 551
f 550 549 546
f 546 549 545
f 551 550 547
f 547 550 546
f 549 552 545
f 545 552 548
f 552 551 548
f 548 551 547

