# https://github.com/mikedh/trimesh
v -1.22877545 -0.01639945 0.60000000 0.58823529 0.43137255 0.29411765
v -1.22877545 0.34360055 0.60000000 0.58823529 0.43137255 0.29411765
v -1.62877545 0.34360055 0.60000000 0.58823529 0.43137255 0.29411765
v -1.62877545 -0.01639945 0.60000000 0.58823529 0.43137255 0.29411765
v -1.22877545 -0.01639945 1.05000000 0.58823529 0.43137255 0.29411765
v -1.22877545 0.34360055 1.05000000 0.58823529 0.43137255 0.29411765
v -1.62877545 0.34360055 1.05000000 0.58823529 0.43137255 0.29411765
v -1.62877545 -0.01639945 1.05000000 0.58823529 0.43137255 0.29411765
v -0.57500000 -0.01639945 0.60000000 0.58823529 0.43137255 0.29411765
v -0.57500000 0.34360055 0.60000000 0.58823529 0.43137255 0.29411765
v -0.97500000 0.34360055 0.60000000 0.58823529 0.43137255 0.29411765
v -0.97500000 -0.01639945 0.60000000 0.58823529 0.43137255 0.29411765
v -0.57500000 -0.01639945 1.05000000 0.58823529 0.43137255 0.29411765
v -0.57500000 0.34360055 1.05000000 0.58823529 0.43137255 0.29411765
v -0.97500000 0.34360055 1.05000000 0.58823529 0.43137255 0.29411765
v -0.97500000 -0.01639945 1.05000000 0.58823529 0.43137255 0.29411765
v 0.09122856 -0.01639945 0.60000000 0.58823529 0.43137255 0.29411765
v 0.09122856 0.34360055 0.60000000 0.58823529 0.43137255 0.29411765
v -0.30877144 0.34360055 0.60000000 0.58823529 0.43137255 0.29411765
v -0.30877144 -0.01639945 0.60000000 0.58823529 0.43137255 0.29411765
v 0.09122856 -0.01639945 1.05000000 0.58823529 0.43137255 0.29411765
v 0.09122856 0.34360055 1.05000000 0.58823529 0.43137255 0.29411765
v -0.30877144 0.34360055 1.05000000 0.58823529 0.43137255 0.29411765
v -0.30877144 -0.01639945 1.05000000 0.58823529 0.43137255 0.29411765
v -1.22877545 -1.04360051 0.60000000 0.58823529 0.43137255 0.29411765
v -1.22877545 -0.68360051 0.60000000 0.58823529 0.43137255 0.29411765
v -1.62877545 -0.68360051 0.60000000 0.58823529 0.43137255 0.29411765
v -1.62877545 -1.04360051 0.60000000 0.58823529 0.43137255 0.29411765
v -1.22877545 -1.04360051 1.05000000 0.58823529 0.43137255 0.29411765
v -1.22877545 -0.68360051 1.05000000 0.58823529 0.43137255 0.29411765
v -1.62877545 -0.68360051 1.05000000 0.58823529 0.43137255 0.29411765
v -1.62877545 -1.04360051 1.05000000 0.58823529 0.43137255 0.29411765
v -0.57500000 -1.04360051 0.60000000 0.58823529 0.43137255 0.29411765
v -0.57500000 -0.68360051 0.60000000 0.58823529 0.43137255 0.29411765
v -0.97500000 -0.68360051 0.60000000 0.58823529 0.43137255 0.29411765
v -0.97500000 -1.04360051 0.60000000 0.58823529 0.43137255 0.29411765
v -0.57500000 -1.04360051 1.05000000 0.58823529 0.43137255 0.29411765
v -0.57500000 -0.68360051 1.05000000 0.58823529 0.43137255 0.29411765
v -0.97500000 -0.68360051 1.05000000 0.58823529 0.43137255 0.29411765
v -0.97500000 -1.04360051 1.05000000 0.58823529 0.43137255 0.29411765
v 0.09122856 -1.04360051 0.60000000 0.58823529 0.43137255 0.29411765
v 0.09122856 -0.68360051 0.60000000 0.58823529 0.43137255 0.29411765
v -0.30877144 -0.68360051 0.60000000 0.58823529 0.43137255 0.29411765
v -0.30877144 -1.04360051 0.60000000 0.58823529 0.43137255 0.29411765
v 0.09122856 -1.04360051 1.05000000 0.58823529 0.43137255 0.29411765
v 0.09122856 -0.68360051 1.05000000 0.58823529 0.43137255 0.29411765
v -0.30877144 -0.68360051 1.05000000 0.58823529 0.43137255 0.29411765
v -0.30877144 -1.04360051 1.05000000 0.58823529 0.43137255 0.29411765
v 4.79500000 -0.62352666 0.60000000 0.58823529 0.43137255 0.29411765
v 4.79500000 -0.26352666 0.60000000 0.58823529 0.43137255 0.29411765
v 4.39500000 -0.26352666 0.60000000 0.58823529 0.43137255 0.29411765
v 4.39500000 -0.62352666 0.60000000 0.58823529 0.43137255 0.29411765
v 4.79500000 -0.62352666 1.05000000 0.58823529 0.43137255 0.29411765
v 4.79500000 -0.26352666 1.05000000 0.58823529 0.43137255 0.29411765
v 4.39500000 -0.26352666 1.05000000 0.58823529 0.43137255 0.29411765
v 4.39500000 -0.62352666 1.05000000 0.58823529 0.43137255 0.29411765
v 4.66500000 6.39962004 0.60000000 0.58823529 0.43137255 0.29411765
v 4.66500000 6.79962004 0.60000000 0.58823529 0.43137255 0.29411765
v 4.30500000 6.79962004 0.60000000 0.58823529 0.43137255 0.29411765
v 4.30500000 6.39962004 0.60000000 0.58823529 0.43137255 0.29411765
v 4.66500000 6.39962004 1.05000000 0.58823529 0.43137255 0.29411765
v 4.66500000 6.79962004 1.05000000 0.58823529 0.43137255 0.29411765
v 4.30500000 6.79962004 1.05000000 0.58823529 0.43137255 0.29411765
v 4.30500000 6.39962004 1.05000000 0.58823529 0.43137255 0.29411765
v 4.64693565 -7.02999998 0.60000000 0.58823529 0.43137255 0.29411765
v 4.64693565 -6.66999998 0.60000000 0.58823529 0.43137255 0.29411765
v 4.24693565 -6.66999998 0.60000000 0.58823529 0.43137255 0.29411765
v 4.24693565 -7.02999998 0.60000000 0.58823529 0.43137255 0.29411765
v 4.64693565 -7.02999998 1.05000000 0.58823529 0.43137255 0.29411765
v 4.64693565 -6.66999998 1.05000000 0.58823529 0.43137255 0.29411765
v 4.24693565 -6.66999998 1.05000000 0.58823529 0.43137255 0.29411765
v 4.24693565 -7.02999998 1.05000000 0.58823529 0.43137255 0.29411765
v 0.22163010 -0.80062962 0.60000000 0.58823529 0.43137255 0.29411765
v 0.22163010 0.09937038 0.60000000 0.58823529 0.43137255 0.29411765
v -1.72836990 0.09937038 0.60000000 0.58823529 0.43137255 0.29411765
v -1.72836990 -0.80062962 0.60000000 0.58823529 0.43137255 0.29411765
v 0.22163010 -0.80062962 1.35000000 0.58823529 0.43137255 0.29411765
v 0.22163010 0.09937038 1.35000000 0.58823529 0.43137255 0.29411765
v -1.72836990 0.09937038 1.35000000 0.58823529 0.43137255 0.29411765
v -1.72836990 -0.80062962 1.35000000 0.58823529 0.43137255 0.29411765
v 5.19163010 -0.42062962 0.60000000 0.58823529 0.43137255 0.29411765
v 5.19163010 0.27937038 0.60000000 0.58823529 0.43137255 0.29411765
v 3.99163010 0.27937038 0.60000000 0.58823529 0.43137255 0.29411765
v 3.99163010 -0.42062962 0.60000000 0.58823529 0.43137255 0.29411765
v 5.19163010 -0.42062962 1.35000000 0.58823529 0.43137255 0.29411765
v 5.19163010 0.27937038 1.35000000 0.58823529 0.43137255 0.29411765
v 3.99163010 0.27937038 1.35000000 0.58823529 0.43137255 0.29411765
v 3.99163010 -0.42062962 1.35000000 0.58823529 0.43137255 0.29411765
v 5.13163010 -7.52062962 0.60000000 0.58823529 0.43137255 0.29411765
v 5.13163010 -6.87062962 0.60000000 0.58823529 0.43137255 0.29411765
v 3.78163010 -6.87062962 0.60000000 0.58823529 0.43137255 0.29411765
v 3.78163010 -7.52062962 0.60000000 0.58823529 0.43137255 0.29411765
v 5.13163010 -7.52062962 1.35000000 0.58823529 0.43137255 0.29411765
v 5.13163010 -6.87062962 1.35000000 0.58823529 0.43137255 0.29411765
v 3.78163010 -6.87062962 1.35000000 0.58823529 0.43137255 0.29411765
v 3.78163010 -7.52062962 1.35000000 0.58823529 0.43137255 0.29411765
v 5.20163010 5.93937038 0.60000000 0.58823529 0.43137255 0.29411765
v 5.20163010 7.46937038 0.60000000 0.58823529 0.43137255 0.29411765
v 4.50163010 7.46937038 0.60000000 0.58823529 0.43137255 0.29411765
v 4.50163010 5.93937038 0.60000000 0.58823529 0.43137255 0.29411765
v 5.20163010 5.93937038 1.35000000 0.58823529 0.43137255 0.29411765
v 5.20163010 7.46937038 1.35000000 0.58823529 0.43137255 0.29411765
v 4.50163010 7.46937038 1.35000000 0.58823529 0.43137255 0.29411765
v 4.50163010 5.93937038 1.35000000 0.58823529 0.43137255 0.29411765
v 0.19163010 2.23937038 0.60000000 0.58823529 0.43137255 0.29411765
v 0.19163010 4.35937038 0.60000000 0.58823529 0.43137255 0.29411765
v -0.15836990 4.35937038 0.60000000 0.58823529 0.43137255 0.29411765
v -0.15836990 2.23937038 0.60000000 0.58823529 0.43137255 0.29411765
v 0.19163010 2.23937038 1.10000000 0.58823529 0.43137255 0.29411765
v 0.19163010 4.35937038 1.10000000 0.58823529 0.43137255 0.29411765
v -0.15836990 4.35937038 1.10000000 0.58823529 0.43137255 0.29411765
v -0.15836990 2.23937038 1.10000000 0.58823529 0.43137255 0.29411765
f 2 1 4
f 3 2 4
f 8 5 6
f 8 6 7
f 6 5 2
f 2 5 1
f 7 6 3
f 3 6 2
f 5 8 1
f 1 8 4
f 8 7 4
f 4 7 3
f 10 9 12
f 11 10 12
f 16 13 14
f 16 14 15
f 14 13 10
f 10 13 9
f 15 14 11
f 11 14 10
f 13 16 9
f 9 16 12
f 16 15 12
f 12 15 11
f 18 17 20
f 19 18 20
f 24 21 22
f 24 22 23
f 22 21 18
f 18 21 17
f 23 22 19
f 19 22 18
f 21 24 17
f 17 24 20
f 24 23 20
f 20 23 19
f 26 25 28
f 27 26 28
f 32 29 30
f 32 30 31
f 30 29 26
f 26 29 25
f 31 30 27
f 27 30 26
f 29 32 25
f 25 32 28
f 32 31 28
f 28 31 27
f 34 33 36
f 35 34 36
f 40 37 38
f 40 38 39
f 38 37 34
f 34 37 33
f 39 38 35
f 35 38 34
f 37 40 33
f 33 40 36
f 40 39 36
f 36 39 35
f 42 41 44
f 43 42 44
f 48 45 46
f 48 46 47
f 46 45 42
f 42 45 41
f 47 46 43
f 43 46 42
f 45 48 41
f 41 48 44
f 48 47 44
f 44 47 43
f 50 49 52
f 51 50 52
f 56 53 54
f 56 54 55
f 54 53 50
f 50 53 49
f 55 54 51
f 51 54 50
f 53 56 49
f 49 56 52
f 56 55 52
f 52 55 51
f 58 57 60
f 59 58 60
f 64 61 62
f 64 62 63
f 62 61 58
f 58 61 57
f 63 62 59
f 59 62 58
f 61 64 57
f 57 64 60
f 64 63 60
f 60 63 59
f 66 65 68
f 67 66 68
f 72 69 70
f 72 70 71
f 70 69 66
f 66 69 65
f 71 70 67
f 67 70 66
f 69 72 65
f 65 72 68
f 72 71 68
f 68 71 67
f 74 73 76
f 75 74 76
f 80 77 78
f 80 78 79
f 78 77 74
f 74 77 73
f 79 78 75
f 75 78 74
f 77 80 73
f 73 80 76
f 80 79 76
f 76 79 75
f 82 81 84
f 83 82 84
f 88 85 86
f 88 86 87
f 86 85 82
f 82 85 81
f 87 86 83
f 83 86 82
f 85 88 81
f 81 88 84
f 88 87 84
f 84 87 83
f 90 89 92
f 91 90 92
f 96 93 94
f 96 94 95
f 94 93 90
f 90 93 89
f 95 94 91
f 91 94 90
f 93 96 89
f 89 96 92
f 96 95 92
f 92 95 91
f 98 97 100
f 99 98 100
f 104 101 102
f 104 102 103
f 102 101 98
f 98 101 97
f 103 102 99
f 99 102 98
f 101 104 97
f 97 104 100
f 104 103 100
f 100 103 99
f 106 105 108
f 107 106 108
f 112 109 110
f 112 110 111
f 110 109 106
f 106 109 105
f 111 110 107
f 107 110 106
f 109 112 105
f 105 112 108
f 112 111 108
f 108 111 107

